<svg xmlns="http://www.w3.org/2000/svg" width="356.821" height="118.426" viewBox="0 0 356.821 118.426">
  <g id="Group_39815" data-name="Group 39815" transform="translate(-1437.09 -154.997)">
    <g id="Group_39672" data-name="Group 39672">
      <path id="Path_46919" data-name="Path 46919" d="M807.634,797.836c-4.338.59-6.855-.764-7.927-3-1.987-4.156,1.453-11.573,8.307-14.921,2.082-1,3.411.139,4.175,1.738a12.7,12.7,0,0,1,1.041,5.877c3.047.61,9.087-1.769,10.54,1.267a5.153,5.153,0,0,1,.178,3.051c-1.005,4.884-4.6,18.554-2.078,23.826.455.954,1.049,1.164,1.528.938a3.6,3.6,0,0,0,1.393-2.03c.455-1.1,2.683-7.552,4.132-12.748,1.065-3.74,4.294-17.133,4.785-19.817.087-.432.166-.673.408-.784.724-.344,1.931.946,1.931.946-.522,4.46-2.042,13.417-3.672,21.74-1.235,6.665-5.023,20.129-10.073,22.528-2.723,1.294-4.686-.131-6.1-3.087-3.016-6.309-3.443-19.338-3.257-26.972a21.751,21.751,0,0,1-2.481.783c-.238,2.173-.693,5.331-1.7,10.417a4.932,4.932,0,0,1-.764.459c-.72.344-1.682.606-2.062-.194a3.978,3.978,0,0,1,0-2.454c.384-1.456,1.132-5.244,1.694-7.567" transform="translate(681.936 -595.559)" fill="#ff2626"/>
      <path id="Path_46920" data-name="Path 46920" d="M856.417,779.213c-.277-.574-1.334-.673-4.29.74-2.874,1.377-2.968-.293-4.773.574a71.524,71.524,0,0,0-11.6,4.639s-4.9,2.529-6.111,3.1c-.356.17-.8.364-1.243.558.638-3.875,1.29-7.678,1.773-11.307a4.083,4.083,0,0,0-.356-2.181c-1.3-2.719-6.641-3.811-9.047-2.671a4.2,4.2,0,0,0-2.778,4.069c.222,3.127-.06,9.515-.515,16.971a51.972,51.972,0,0,1-11.363,3.317.648.648,0,0,0-.649-.091c-.491.238-.146,1.579.21,2.315,2.062,4.286,3.372,6.174,9.649,4.057.515-.012,1.057-.039,1.651-.111-.5,11.9-.574,24.091,1.678,28.8,1.718,3.59,7.955,5.529,11.32,3.934a5.008,5.008,0,0,0,1.745-1.71c2.917-3.756,2.782-9.091,2.407-13.476,0,0-1.207-1.286-1.928-.946-.241.115-.32.352-.412.784a23.045,23.045,0,0,1-3.241,7.207,6.02,6.02,0,0,1-1.868,2.062c-.641.3-1.112-.063-1.492-.859a7.277,7.277,0,0,1-.669-2.426c-.495-8.177.7-17.976,2.2-27.689.586-.253,1.168-.507,1.734-.76.032.091,2.236-1.045,3.495-1.643,1.12-.53,3.091-1.433,3.071-1.5,10.472-5.311,16.987-10.239,20.869-13.706,0,0,.843-1.4.527-2.058" transform="translate(699.91 -617.223)" fill="#ff2626"/>
      <path id="Path_46921" data-name="Path 46921" d="M818.729,818.121l-3.04-15.609c-.265-.562-.42-.883-.661-.768-.8.384-5.862,18.174-5.363,19.215.19.4.661.57,1.619.309a75.256,75.256,0,0,0,7.445-3.146m2.022,8.549c-.352-.325-.946-.337-2.228.273-.479.226-9.764,6.107-11.137,7.349-2.628,2.323-3.827,15.443-4.8,20.414-.214.784-.147,1.539-1.025,1.959-2.81,1.33-8.509-1.548-9.736-4.108a3.354,3.354,0,0,1-.04-1.931c.76-4.381,1.591-8.6,2.426-12.823a6.665,6.665,0,0,1-5.992-4.306,1.141,1.141,0,0,1,.546-1.73c1.2-.574,4.08-1.548,7.12-2.8,3.15-15.218,6.451-30.111,10.239-47.7.958-4.373,1.516-6.7,3.2-7.5,1.124-.534,2.83-.463,5.363.1,1.5.261,10.658-3.206,12.415.467a3.59,3.59,0,0,1,.285,2.03c-1.547,14.454-1.5,45.4,6.863,62.893,2.98,6.23,6.985,10.7,12.356,12.265a1.26,1.26,0,0,1,1.176.807c.918,1.92-.764,6.839-4.686,8.7-6.894,3.277-11.925-1.69-15.514-9.2-3.665-7.67-5.889-18.079-6.831-25.179" transform="translate(649.059 -615.951)" fill="#ff2626"/>
    </g>
    <path id="Path_46922" data-name="Path 46922" d="M848.111,786.8H825.757v15.36h21.562v9.067H825.757V841.66H816.08V777.734h32.031Z" transform="translate(732.018 -600.914)" fill="#292929"/>
    <path id="Path_46923" data-name="Path 46923" d="M835.3,777.734v54.779h18.839v9.056h-28.5V777.734Z" transform="translate(760.283 -600.914)" fill="#292929"/>
    <path id="Path_46924" data-name="Path 46924" d="M841.5,810.362q0,10.58,7.132,17.391a23.708,23.708,0,0,0,33.392-.127,24.667,24.667,0,0,0,.087-34.2,23.954,23.954,0,0,0-33.728,0,22.982,22.982,0,0,0-6.883,16.939m-9.752-.1a31.214,31.214,0,0,1,9.914-23.153,32.689,32.689,0,0,1,23.731-9.677,33.445,33.445,0,0,1,33.308,33.2,31.323,31.323,0,0,1-9.875,23.363,33.928,33.928,0,0,1-46.211,1.076q-10.864-9.469-10.868-24.807" transform="translate(778.359 -601.813)" fill="#292929"/>
    <path id="Path_46925" data-name="Path 46925" d="M859.064,810.362q0,10.58,7.14,17.391a23.709,23.709,0,0,0,33.392-.127,24.677,24.677,0,0,0,.079-34.2,22.65,22.65,0,0,0-16.84-6.942,23.61,23.61,0,0,0-23.771,23.881m-9.744-.1a31.211,31.211,0,0,1,9.91-23.153,32.69,32.69,0,0,1,23.731-9.677,33.452,33.452,0,0,1,33.313,33.2,31.342,31.342,0,0,1-9.878,23.363,33.928,33.928,0,0,1-46.211,1.076Q849.32,825.6,849.32,810.259" transform="translate(830.334 -601.813)" fill="#292929"/>
    <path id="Path_46926" data-name="Path 46926" d="M877.366,807.048h3.071q13.719,0,13.726-10.461,0-9.8-13.353-9.8h-3.443Zm12.031,7.314,19.825,27.206H897.4l-18.3-26.129h-1.737v26.129H867.7V777.733H879.02q12.7,0,18.336,4.754a17.438,17.438,0,0,1,6.222,13.975,18.084,18.084,0,0,1-3.9,11.66,17.359,17.359,0,0,1-10.283,6.241" transform="translate(884.689 -600.916)" fill="#292929"/>
    <g id="Group_39180" data-name="Group 39180" transform="translate(1627.633 256.531)">
      <path id="Path_46847" data-name="Path 46847" d="M836.176,802.475V799.99a2.775,2.775,0,0,1,2.359-3.115v1.413c-.748.222-.839.736-.839,1.456h.839v2.731Z" transform="translate(-836.176 -796.871)" fill="#292929"/>
      <path id="Path_46927" data-name="Path 46927" d="M837.722,813.45V796.875h2.446v14.359h5.826v2.216Z" transform="translate(-831.603 -796.872)" fill="#292929"/>
      <path id="Path_46849" data-name="Path 46849" d="M846.691,799.968a4.4,4.4,0,1,0,4.35,4.437,4.275,4.275,0,0,0-4.35-4.437M851,810.587v-1.927h-.044a4.825,4.825,0,0,1-4.262,2.24,6.53,6.53,0,1,1,0-13.057,4.993,4.993,0,0,1,4.262,2.082H851v-1.745h2.359v12.407Z" transform="translate(-824.777 -794.008)" fill="#292929"/>
      <path id="Path_46850" data-name="Path 46850" d="M860.8,810.587v-6.9c0-1.951-.657-3.72-2.969-3.72-2.45,0-2.992,1.658-2.992,3.7v6.922h-2.359v-6.9a4.357,4.357,0,0,0-.519-2.553,2.606,2.606,0,0,0-2.335-1.168c-2.426,0-3.1,1.615-3.1,3.7v6.922h-2.359V798.179h2.177v1.342h.044a4.153,4.153,0,0,1,3.606-1.678,4.351,4.351,0,0,1,3.9,2.082,4.43,4.43,0,0,1,4.144-2.082c3.332,0,5.126,2.058,5.126,5.264v7.48Z" transform="translate(-812.549 -794.008)" fill="#292929"/>
      <path id="Path_46928" data-name="Path 46928" d="M849.724,813.45h2.359V801.035h-2.359Zm0-13.844h2.359v-2.731h-2.359Z" transform="translate(-796.104 -796.871)" fill="#292929"/>
      <path id="Path_46852" data-name="Path 46852" d="M859.875,810.587v-6.744c0-2.105-.633-3.875-3.127-3.875-2.311,0-3.309,1.769-3.309,3.855v6.764h-2.359V798.179h2.2V799.5h.044A4.394,4.394,0,0,1,857,797.843a5.077,5.077,0,0,1,4.441,2.216,5.777,5.777,0,0,1,.8,3.182v7.346Z" transform="translate(-792.09 -794.008)" fill="#292929"/>
      <path id="Path_46853" data-name="Path 46853" d="M861.156,799.968a4.4,4.4,0,1,0,4.35,4.437,4.275,4.275,0,0,0-4.35-4.437m4.306,10.619v-1.927h-.044a4.825,4.825,0,0,1-4.263,2.24,6.53,6.53,0,1,1,0-13.057,4.994,4.994,0,0,1,4.263,2.082h.044v-1.745h2.359v12.407Z" transform="translate(-781.992 -794.008)" fill="#292929"/>
      <path id="Path_46929" data-name="Path 46929" d="M862.353,803.168V813.45h-2.359V803.168h-1.7v-2.129h1.7v-4.164h2.359v4.164h2.062v2.129Z" transform="translate(-770.749 -796.871)" fill="#292929"/>
      <path id="Path_46855" data-name="Path 46855" d="M866.769,799.094h-2.4v5.6h2.4c1.86,0,3.467-.764,3.467-2.8s-1.606-2.8-3.467-2.8m0,7.817h-2.4v6.542h-2.446V796.874h4.848c3.309,0,5.917,1.48,5.917,5.018s-2.608,5.018-5.917,5.018" transform="translate(-760.028 -796.874)" fill="#292929"/>
      <path id="Path_46856" data-name="Path 46856" d="M871.514,799.968a4.4,4.4,0,1,0,4.349,4.437,4.275,4.275,0,0,0-4.349-4.437m4.306,10.619v-1.927h-.043a4.825,4.825,0,0,1-4.262,2.24,6.53,6.53,0,1,1,0-13.057,4.993,4.993,0,0,1,4.262,2.082h.043v-1.745h2.359v12.407Z" transform="translate(-751.356 -794.008)" fill="#292929"/>
      <path id="Path_46857" data-name="Path 46857" d="M872.727,800.688c-1.112.558-1.381,1.995-1.381,3.115v6.788h-2.359V798.178h2.2v1.12h.043a3.813,3.813,0,0,1,3.194-1.457v2.4a4.106,4.106,0,0,0-1.7.447" transform="translate(-739.129 -794.011)" fill="#292929"/>
      <path id="Path_46930" data-name="Path 46930" d="M877.858,801.038h2.79l-4.556,5.85,5.28,6.562h-2.948l-5.03-6.431ZM873.35,813.45h-2.358V796.875h2.358Z" transform="translate(-733.201 -796.871)" fill="#292929"/>
      <path id="Path_46859" data-name="Path 46859" d="M880.057,799.968A4.062,4.062,0,0,0,876,803.6h8.114a4.067,4.067,0,0,0-4.057-3.629m6.344,5.422H876a4.268,4.268,0,0,0,4.124,3.384,4.044,4.044,0,0,0,3.582-2.086h2.355a6.39,6.39,0,0,1-6.028,4.211,6.522,6.522,0,0,1-6.392-6.538,6.414,6.414,0,1,1,12.827-.135,10.419,10.419,0,0,1-.067,1.164" transform="translate(-725.36 -794.008)" fill="#292929"/>
      <path id="Path_46860" data-name="Path 46860" d="M877.594,802.475v-1.413c.744-.221.835-.736.835-1.452h-.835v-2.735h2.355v2.486a2.774,2.774,0,0,1-2.355,3.115" transform="translate(-713.671 -796.871)" fill="#292929"/>
    </g>
  </g>
</svg>
