<svg xmlns="http://www.w3.org/2000/svg" width="33.014" height="25.666" viewBox="0 0 33.014 25.666">
  <g id="Icon_feather-box" data-name="Icon feather-box" transform="translate(3.25 2.784)">
    <path id="Path_47840" data-name="Path 47840" d="M29.014,13.757V10.976a2.781,2.781,0,0,0-1.39-2.405L11.4-1.624a2.781,2.781,0,0,0-2.781,0L-1.11,3.937A2.781,2.781,0,0,0-2.5,6.342V9.123a2.781,2.781,0,0,0,1.39,2.405l16.22,10.2a2.781,2.781,0,0,0,2.781,0l9.732-5.561a2.781,2.781,0,0,0,1.39-2.405Z" transform="translate(0 0)" fill="none" stroke="#fff" stroke-linecap="round" stroke-linejoin="round" stroke-width="1.5"/>
    <path id="Path_47841" data-name="Path 47841" d="M-2.049,5.809,16.534,17.122,28.671,10.1" transform="translate(-0.033 -0.571)" fill="none" stroke="#fff" stroke-linecap="round" stroke-linejoin="round" stroke-width="1.5"/>
    <path id="Path_47842" data-name="Path 47842" d="M18,22.852V18" transform="translate(-1.499 -1.462)" fill="none" stroke="#fff" stroke-linecap="round" stroke-linejoin="round" stroke-width="1.5"/>
  </g>
</svg>
