<svg xmlns="http://www.w3.org/2000/svg" xmlns:xlink="http://www.w3.org/1999/xlink" width="523.217" height="90.5" viewBox="0 0 523.217 90.5">
  <defs>
    <clipPath id="clip-path">
      <rect id="Rectangle_407" data-name="Rectangle 407" width="523.217" height="90.5" fill="#fff"/>
    </clipPath>
  </defs>
  <g id="Group_39990" data-name="Group 39990" transform="translate(0 0)">
    <path id="Path_47991" data-name="Path 47991" d="M3.3,15.257h9.566V32.772l20.237.025v8.609H3.3Zm12.865,14.22V15.211l16.984.017V29.494ZM36.455,11.933l-20.241-.021V3.3H46.026V29.452H36.455ZM12.915,0V11.954H0V44.7H36.409V32.755H49.325V0Z" transform="translate(0 0.001)" fill="#fff"/>
    <g id="Group_39989" data-name="Group 39989" transform="translate(0 0)">
      <g id="Group_39988" data-name="Group 39988" clip-path="url(#clip-path)">
        <path id="Path_47992" data-name="Path 47992" d="M37.156,57.859V7.217h-6.2V57.859a9.324,9.324,0,0,0,9.311,9.311h.9v-6.2h-.9a3.116,3.116,0,0,1-3.111-3.111" transform="translate(98.471 22.959)" fill="#fff"/>
        <path id="Path_47993" data-name="Path 47993" d="M66.917,6.96V67.975h6.2v-47.6l35.56,30.263,35.556-30.263v47.6h6.2V6.96L108.678,42.424Z" transform="translate(212.87 22.141)" fill="#fff"/>
        <path id="Path_47994" data-name="Path 47994" d="M11.9,37.189c0,16.524,15.32,29.97,34.151,29.97H85.14v-32.7H46.08v6.2H78.939v20.3H46.046C30.631,60.963,18.1,50.3,18.1,37.189S30.631,13.415,46.046,13.415H85.257v-6.2H46.046C27.215,7.219,11.9,20.665,11.9,37.189" transform="translate(37.839 22.966)" fill="#fff"/>
        <path id="Path_47995" data-name="Path 47995" d="M77.2,26.979l-23.117,0a2.992,2.992,0,0,1-2.99-2.99V22.919a2.992,2.992,0,0,1,2.99-2.989H79.8v-6.2H54.078A9.188,9.188,0,0,0,44.9,22.911V24a9.191,9.191,0,0,0,9.182,9.178H77.2a2.99,2.99,0,0,1,2.985,2.985v1.079A2.992,2.992,0,0,1,77.2,40.229H47.133v6.2H77.2a9.184,9.184,0,0,0,9.178-9.178V36.156A9.187,9.187,0,0,0,77.2,26.979" transform="translate(142.819 43.688)" fill="#fff"/>
        <path id="Path_47996" data-name="Path 47996" d="M87.693,26.979l-23.117,0a2.992,2.992,0,0,1-2.99-2.99V22.919a2.992,2.992,0,0,1,2.99-2.989h25.71v-6.2H64.563a9.187,9.187,0,0,0-9.178,9.178V24a9.19,9.19,0,0,0,9.178,9.178H87.684a2.987,2.987,0,0,1,2.985,2.985v1.079a2.99,2.99,0,0,1-2.985,2.985H57.622v6.2H87.693a9.187,9.187,0,0,0,9.178-9.178V36.156a9.19,9.19,0,0,0-9.178-9.178" transform="translate(176.186 43.688)" fill="#fff"/>
        <path id="Path_47997" data-name="Path 47997" d="M55.236,12.771c-11.644,0-21.115,8.32-21.115,18.552s9.47,18.552,21.115,18.552S76.35,41.554,76.35,31.323,66.876,12.771,55.236,12.771m0,30.9c-8.224,0-14.914-5.54-14.914-12.351s6.69-12.355,14.914-12.355S70.15,24.512,70.15,31.323,63.46,43.674,55.236,43.674" transform="translate(108.543 40.627)" fill="#fff"/>
        <path id="Path_47998" data-name="Path 47998" d="M87.367,67.662h7.505l19.053-26.5H147.96l19.049,26.5h7.513L130.943,7.057ZM130.943,17.5,143.5,34.966h-25.12Z" transform="translate(277.925 22.45)" fill="#fff"/>
        <path id="Path_47999" data-name="Path 47999" d="M177.465,7.211h-8.814L143.075,32.787,117.5,7.211h-8.814l29.983,29.983L108.689,67.177H117.5L143.075,41.6l25.576,25.576h8.814L147.482,37.194Z" transform="translate(345.753 22.94)" fill="#fff"/>
      </g>
    </g>
  </g>
</svg>
