<svg xmlns="http://www.w3.org/2000/svg" width="148.954" height="38.853" viewBox="0 0 148.954 38.853">
  <g id="Group_39894" data-name="Group 39894" transform="translate(-208.046 -4261.324)">
    <text id="HAKKIMIZDA" transform="translate(307 4285)" fill="#fff" font-size="18" font-family="Manrope-Medium, Manrope" font-weight="500"><tspan x="-49.405" y="0">Google Play</tspan></text>
    <path id="Icon_awesome-google-play" data-name="Icon awesome-google-play" d="M24.549,17.783,7.8.987,29.11,13.222l-4.562,4.562ZM3.426,0A2.95,2.95,0,0,0,1.779,2.679V36.173a2.95,2.95,0,0,0,1.647,2.679L22.9,19.422ZM35.7,17.123l-4.47-2.588-4.987,4.9,4.987,4.9,4.562-2.588a3.045,3.045,0,0,0-.091-4.615ZM7.8,37.873,29.11,25.639l-4.562-4.562Z" transform="translate(206.268 4261.324)" fill="#fff"/>
  </g>
</svg>
