<svg xmlns="http://www.w3.org/2000/svg" width="90.402" height="90.464" viewBox="0 0 90.402 90.464">
  <g id="Group_34" data-name="Group 34" transform="translate(0)">
    <path id="Path_91" data-name="Path 91" d="M521.034,272.48a42.417,42.417,0,1,1,29.936-12.429,42.2,42.2,0,0,1-29.936,12.429v2.848a45.232,45.232,0,1,0-45.2-45.234,45.269,45.269,0,0,0,45.2,45.234Z" transform="translate(-475.837 -184.864)" fill="#4d4d4f"/>
    <path id="Path_92" data-name="Path 92" d="M530.354,223.843a3.87,3.87,0,0,0-.272-3.305,3.715,3.715,0,0,0-4.407-1.708l-12.909,4.245a4.076,4.076,0,0,0-1.057-5.023l-3.728-2.987a16.381,16.381,0,0,0-12.06-3.531l-8.934.965a1.14,1.14,0,0,0-1,1.258,1.269,1.269,0,0,0,.048.234,1.126,1.126,0,0,0,1.189.785l8.934-.963a14.18,14.18,0,0,1,10.431,3.053l3.728,2.987a1.747,1.747,0,0,1,.413,2.233,1.883,1.883,0,0,1-2.356.818l-.029-.013-7.159-3.448a1.12,1.12,0,0,0-1.5.548,1.156,1.156,0,0,0,.536,1.524c.021.01,6.09,2.931,7.072,3.411.083.037.164.071.245.1a7.725,7.725,0,0,0,5.648.313l13.179-4.332a1.5,1.5,0,0,1,1.775.687,1.565,1.565,0,0,1,.106,1.331,1.51,1.51,0,0,1-.951.919l-16.608,5.461a8.54,8.54,0,0,1-5.293.023l-14.015-4.49a1.123,1.123,0,0,0-1.411.749,1.175,1.175,0,0,0,0,.7,1.149,1.149,0,0,0,.733.743l14.017,4.484a10.722,10.722,0,0,0,6.661-.025l16.608-5.461a3.779,3.779,0,0,0,2.364-2.285" transform="translate(-466.407 -160.161)" fill="#4d4d4f"/>
    <path id="Path_93" data-name="Path 93" d="M516.334,212.289a.265.265,0,0,0-.177-.116,3.531,3.531,0,0,1-3.558-3.9.21.21,0,1,0-.421,0,3.527,3.527,0,0,1-3.541,3.9.188.188,0,0,0-.129.048.2.2,0,0,0-.064.068.254.254,0,0,0,0,.212.223.223,0,0,0,.193.116h.015a3.521,3.521,0,0,1,3.543,3.9.209.209,0,1,0,.419,0,3.533,3.533,0,0,1,3.543-3.9.251.251,0,0,0,.195-.116.207.207,0,0,0-.017-.212" transform="translate(-445.547 -163.3)" fill="#4d4d4f"/>
    <path id="Path_94" data-name="Path 94" d="M498.712,196.641a.173.173,0,0,0,.166-.179.169.169,0,0,0-.166-.168,1.515,1.515,0,0,1-1.522-1.677.165.165,0,1,0-.33,0,1.512,1.512,0,0,1-1.517,1.677h-.017a.166.166,0,0,0-.149.168.169.169,0,0,0,.166.168,1.506,1.506,0,0,1,1.517,1.677.168.168,0,0,0,.166.164c.075.015.152-.064.152-.152a1.512,1.512,0,0,1,1.522-1.677Z" transform="translate(-457.858 -175.954)" fill="#4d4d4f"/>
    <path id="Path_95" data-name="Path 95" d="M492.024,202.064a2.021,2.021,0,0,1-2.032-2.242.221.221,0,0,0-.442,0,2.021,2.021,0,0,1-2.036,2.242H487.5a.228.228,0,0,0-.206.226.23.23,0,0,0,.22.226,2.014,2.014,0,0,1,2.036,2.24.225.225,0,0,0,.22.222c.1.035.2-.068.2-.2a2.022,2.022,0,0,1,2.032-2.244h.017a.229.229,0,0,0,.22-.241.226.226,0,0,0-.22-.226" transform="translate(-465.186 -171.163)" fill="#4d4d4f"/>
    <path id="Path_96" data-name="Path 96" d="M505.911,213.789a1.638,1.638,0,0,1-1.648-1.816.178.178,0,1,0-.355,0,1.638,1.638,0,0,1-1.648,1.816h-.015a.182.182,0,0,0,.015.363,1.631,1.631,0,0,1,1.648,1.816.181.181,0,0,0,.179.181c.081.027.162-.054.162-.168a1.638,1.638,0,0,1,1.646-1.816h.015a.188.188,0,0,0,0-.376" transform="translate(-451.439 -159.832)" fill="#4d4d4f"/>
    <path id="Path_97" data-name="Path 97" d="M496.529,203.987a1.638,1.638,0,0,1-1.648-1.816.178.178,0,1,0-.355,0,1.638,1.638,0,0,1-1.648,1.816h-.016a.182.182,0,0,0,.016.363,1.631,1.631,0,0,1,1.648,1.816.182.182,0,0,0,.179.181c.081.027.162-.054.162-.168a1.638,1.638,0,0,1,1.646-1.816h.016a.188.188,0,0,0,0-.376" transform="translate(-460.16 -168.944)" fill="#4d4d4f"/>
    <path id="Path_98" data-name="Path 98" d="M494.44,209.479a1.636,1.636,0,0,1-1.648-1.814.178.178,0,1,0-.355,0,1.636,1.636,0,0,1-1.648,1.814h-.014a.186.186,0,0,0-.164.185.183.183,0,0,0,.177.179,1.63,1.63,0,0,1,1.648,1.816.182.182,0,0,0,.179.181c.081.027.162-.054.162-.168a1.638,1.638,0,0,1,1.646-1.816h.015a.189.189,0,0,0,0-.378" transform="translate(-462.102 -163.836)" fill="#4d4d4f"/>
    <path id="Path_99" data-name="Path 99" d="M508.911,197.4a1.638,1.638,0,0,1-1.648-1.816.178.178,0,1,0-.355,0,1.638,1.638,0,0,1-1.648,1.816h-.015a.182.182,0,0,0,.015.363,1.631,1.631,0,0,1,1.648,1.816.182.182,0,0,0,.18.181c.081.027.162-.054.162-.168a1.638,1.638,0,0,1,1.646-1.816h.015a.188.188,0,0,0,0-.376" transform="translate(-448.65 -175.066)" fill="#4d4d4f"/>
    <path id="Path_100" data-name="Path 100" d="M487.848,210.135a.8.8,0,0,1-.8-.884.086.086,0,1,0-.172,0,.8.8,0,0,1-.8.884h-.006a.089.089,0,0,0,.006.177.8.8,0,0,1,.8.884.087.087,0,0,0,.087.089c.041.015.081-.027.081-.081a.8.8,0,0,1,.8-.886h.006a.092.092,0,0,0,0-.183" transform="translate(-466.408 -162.277)" fill="#4d4d4f"/>
    <path id="Path_101" data-name="Path 101" d="M511.336,203.792a.8.8,0,0,1-.8-.882.087.087,0,1,0-.174,0,.8.8,0,0,1-.8.882h-.006a.092.092,0,0,0-.081.093.089.089,0,0,0,.087.087.794.794,0,0,1,.8.884.086.086,0,0,0,.087.087c.041.015.081-.025.081-.077a.8.8,0,0,1,.8-.888h.006a.09.09,0,0,0,.087-.093.092.092,0,0,0-.087-.093" transform="translate(-444.573 -168.173)" fill="#4d4d4f"/>
    <path id="Path_102" data-name="Path 102" d="M505.913,202.42c-.318.49-3.111,4.828-3.111,6.651a3.622,3.622,0,1,0,7.228,0c0-1.823-2.794-6.161-3.114-6.651a.6.6,0,0,0-.5-.276.607.607,0,0,0-.5.276m2.912,6.651a2.42,2.42,0,1,1-4.82,0c0-.945,1.326-3.41,2.41-5.179,1.088,1.769,2.41,4.234,2.41,5.179" transform="translate(-450.77 -168.8)" fill="#4d4d4f"/>
    <path id="Path_103" data-name="Path 103" d="M501.042,205.56c-.318.49-3.111,4.828-3.111,6.651a3.622,3.622,0,1,0,7.228,0c0-1.823-2.794-6.161-3.114-6.651a.6.6,0,0,0-.5-.276.6.6,0,0,0-.5.276m2.912,6.651a2.42,2.42,0,1,1-4.82,0c0-.945,1.326-3.41,2.41-5.179,1.088,1.769,2.41,4.234,2.41,5.179" transform="translate(-455.298 -165.882)" fill="#4d4d4f"/>
    <path id="Path_104" data-name="Path 104" d="M501.835,197.4a.6.6,0,0,0-.5.264c-.38.561-3.72,5.544-3.72,7.7a4.217,4.217,0,1,0,8.432,0c0-2.161-3.34-7.143-3.72-7.7a.6.6,0,0,0-.5-.264m0,11.033a3.041,3.041,0,0,1-3.012-3.064c0-1.187,1.685-4.2,3.012-6.258,1.328,2.061,3.012,5.071,3.012,6.258a3.041,3.041,0,0,1-3.012,3.064" transform="translate(-455.588 -173.208)" fill="#4d4d4f"/>
  </g>
</svg>
