<svg xmlns="http://www.w3.org/2000/svg" xmlns:xlink="http://www.w3.org/1999/xlink" width="36" height="36" viewBox="0 0 36 36">
  <defs>
    <clipPath id="clip-path">
      <rect id="Rectangle_1653" data-name="Rectangle 1653" width="36" height="36" fill="#fff"/>
    </clipPath>
  </defs>
  <g id="Group_40045" data-name="Group 40045" clip-path="url(#clip-path)">
    <path id="Path_48064" data-name="Path 48064" d="M33.227,12.541a.9.9,0,0,0-.9.9V31.5a2.7,2.7,0,0,1-2.688,2.7H4.483a2.7,2.7,0,0,1-2.689-2.7V8.012a2.7,2.7,0,0,1,2.689-2.7H21.445a.9.9,0,0,0,0-1.8H4.483A4.5,4.5,0,0,0,0,8.012V31.5A4.5,4.5,0,0,0,4.483,36H29.641a4.5,4.5,0,0,0,4.483-4.5V13.442a.9.9,0,0,0-.9-.9" fill="#fff"/>
    <path id="Path_48065" data-name="Path 48065" d="M33.768,1.188a4.02,4.02,0,0,0-5.706,0l-16,16.077a.9.9,0,0,0-.23.4l-2.1,7.633a.9.9,0,0,0,1.1,1.109l7.594-2.115a.9.9,0,0,0,.4-.231L34.82,7.98a4.075,4.075,0,0,0,0-5.735ZM14.02,17.85,27.111,4.693l4.222,4.243L18.241,22.094Zm-.844,1.7,3.373,3.391-4.665,1.3ZM33.552,6.706l-.951.956L28.379,3.418l.951-.956a2.235,2.235,0,0,1,3.17,0L33.552,3.52a2.263,2.263,0,0,1,0,3.186" fill="#fff"/>
  </g>
</svg>
