<svg xmlns="http://www.w3.org/2000/svg" width="21.223" height="23.531" viewBox="0 0 21.223 23.531">
  <g id="Icon_feather-package" data-name="Icon feather-package" transform="translate(-3.75 -2.222)">
    <path id="Path_47269" data-name="Path 47269" d="M21.111,12,11.25,6.315" transform="translate(-1.819 -0.893)" fill="none" stroke="#b4b4b4" stroke-linecap="round" stroke-linejoin="round" stroke-width="1.5"/>
    <path id="Path_47270" data-name="Path 47270" d="M24.223,18.341V9.575a2.191,2.191,0,0,0-1.1-1.9L15.457,3.3a2.191,2.191,0,0,0-2.191,0L5.6,7.68a2.191,2.191,0,0,0-1.1,1.9v8.766a2.191,2.191,0,0,0,1.1,1.9l7.67,4.383a2.191,2.191,0,0,0,2.191,0l7.67-4.383A2.191,2.191,0,0,0,24.223,18.341Z" fill="none" stroke="#b4b4b4" stroke-linecap="round" stroke-linejoin="round" stroke-width="1.5"/>
    <path id="Path_47271" data-name="Path 47271" d="M4.905,10.44l9.566,5.533,9.566-5.533" transform="translate(-0.109 -2.004)" fill="none" stroke="#b4b4b4" stroke-linecap="round" stroke-linejoin="round" stroke-width="1.5"/>
    <path id="Path_47272" data-name="Path 47272" d="M18,29.045V18" transform="translate(-3.639 -4.042)" fill="none" stroke="#b4b4b4" stroke-linecap="round" stroke-linejoin="round" stroke-width="1.5"/>
  </g>
</svg>
