<svg id="Group_39992" data-name="Group 39992" xmlns="http://www.w3.org/2000/svg" xmlns:xlink="http://www.w3.org/1999/xlink" width="506.905" height="135.33" viewBox="0 0 506.905 135.33">
  <defs>
    <clipPath id="clip-path">
      <rect id="Rectangle_408" data-name="Rectangle 408" width="506.905" height="135.33" fill="#fff"/>
    </clipPath>
  </defs>
  <g id="Group_39991" data-name="Group 39991" clip-path="url(#clip-path)">
    <path id="Path_48000" data-name="Path 48000" d="M32.067,34.467Q32.067,3.5,61.777.387A5.983,5.983,0,0,0,59.552,0H4.6C1.538.072,0,1.6,0,4.611V32.166c0,3.08,1.537,4.6,4.6,4.6H32.067Z" transform="translate(0 0)" fill="#fff" fill-rule="evenodd"/>
    <path id="Path_48001" data-name="Path 48001" d="M79.205,1.886H125.17c3.063,0,4.59,1.539,4.6,4.594V34.065q0,4.585-4.6,4.589H88.4q-9.2,0-9.2,9.193v57.091c0,3.062-1.528,4.583-4.588,4.583H47.025c-3.06,0-4.6-1.521-4.6-4.583V36.352q0-34.465,36.784-34.466" transform="translate(-7.907 -0.352)" fill="#fff" fill-rule="evenodd"/>
    <path id="Path_48002" data-name="Path 48002" d="M285.65,146.707l4.361,12.429h.089q1.314-4.184,3.375-11.181a5.556,5.556,0,0,0,.242-1.4c0-.441-.416-.659-1.25-.659-.133,0-.2-.052-.2-.155s.124-.153.371-.153q.682,0,1.469.035c.529.023.782.031.77.031.011,0,.246-.008.7-.031s.811-.035,1.074-.035c.205,0,.307.043.307.133s-.183.153-.548.194c-.161.032-.293.063-.4.091q-.7.262-1.425,2.367-1.577,4.886-4.034,12.21c-.291.835-.49,1.358-.591,1.569s-.214.316-.33.316c-.174,0-.394-.377-.657-1.139l-4.3-12.188h-.046l-4.581,12.166c-.292.776-.532,1.161-.722,1.161q-.243,0-.768-1.731l-3.9-13a2.387,2.387,0,0,0-1.2-1.709,2.921,2.921,0,0,0-.988-.132c-.129,0-.2-.052-.2-.155s.116-.153.349-.153q.682,0,2.587.066c-.014,0,.251-.008.791-.031s1.029-.035,1.467-.035c.265,0,.4.051.4.153s-.073.155-.218.155a2.122,2.122,0,0,0-.867.132.522.522,0,0,0-.273.527,20.212,20.212,0,0,0,.416,2.016q.283,1.272,2.937,10.609h.045l4.647-12.494c.248-.67.434-1.01.548-1.01q.2,0,.55,1.032" transform="translate(-50.753 -27.138)" fill="#fff"/>
    <path id="Path_48003" data-name="Path 48003" d="M305.555,153.783a8.536,8.536,0,0,1,2.062-5.612,8.071,8.071,0,0,1,6.574-2.957,8.769,8.769,0,0,1,6.161,2.19,7.807,7.807,0,0,1,2.456,6.028,8.881,8.881,0,0,1-2.391,6.317,8.309,8.309,0,0,1-6.356,2.65,7.992,7.992,0,0,1-6.511-2.828,8.775,8.775,0,0,1-2-5.787m2.084-.614a8.983,8.983,0,0,0,2.039,6.118,6.257,6.257,0,0,0,4.975,2.278,5.619,5.619,0,0,0,3.769-1.36q2.28-1.971,2.279-6.159a8.647,8.647,0,0,0-2.037-6.029,5.99,5.99,0,0,0-4.624-2.06,6.067,6.067,0,0,0-4.583,1.8,7.577,7.577,0,0,0-1.818,5.412" transform="translate(-56.956 -27.068)" fill="#fff"/>
    <path id="Path_48004" data-name="Path 48004" d="M333.383,155.806v-3.858q0-4.013-.043-4.737a1.2,1.2,0,0,0-.945-1.249,3.427,3.427,0,0,0-.744-.067c-.119,0-.177-.044-.177-.129,0-.12.119-.178.353-.178.407,0,.934.011,1.577.035s.943.031.9.031c.045,0,.423-.007,1.129-.031s1.194-.035,1.457-.035a6.855,6.855,0,0,1,4.015.967,3.488,3.488,0,0,1,1.509,2.979c0,1.743-.885,3.427-2.651,5.066q2.17,2.759,2.477,3.155,1.25,1.579,2.084,2.456a4.693,4.693,0,0,0,2.672,1.578,5.284,5.284,0,0,0,.854.067c.133,0,.2.044.2.132,0,.117-.173.174-.525.174h-1.556a5.085,5.085,0,0,1-2.346-.416,4.791,4.791,0,0,1-1.36-1.183c-.246-.278-.783-.958-1.6-2.039q-.967-1.34-2.392-3.245a.4.4,0,0,0-.283-.133l-2.7-.044c-.1,0-.155.059-.155.177v.526q0,3.789.111,4.757c.086.729.373,1.132.854,1.2a7.6,7.6,0,0,0,.986.089c.117,0,.177.044.177.132,0,.117-.118.174-.351.174-.5,0-1.088-.01-1.768-.033s-.988-.032-.932-.032q-1.511.065-2.06.065c-.233,0-.348-.057-.348-.174,0-.088.067-.132.205-.132a3.276,3.276,0,0,0,.626-.089c.337-.072.548-.475.636-1.2q.107-.856.11-4.757m1.753-9.12v7.168a.285.285,0,0,0,.155.264,5.07,5.07,0,0,0,2.3.351,2.866,2.866,0,0,0,1.641-.416q1.34-.925,1.34-3.377a4.719,4.719,0,0,0-1.021-3.223,3.5,3.5,0,0,0-2.773-1.16,5.656,5.656,0,0,0-1.469.132.255.255,0,0,0-.177.263" transform="translate(-61.788 -27.138)" fill="#fff"/>
    <path id="Path_48005" data-name="Path 48005" d="M357.473,155.806v-3.858q0-4.013-.044-4.736a1.193,1.193,0,0,0-.943-1.25,3.445,3.445,0,0,0-.744-.067c-.119,0-.177-.044-.177-.129,0-.12.119-.177.352-.177q.592,0,1.523.034c.622.024.919.032.888.032.032,0,.325-.008.888-.032s.978-.034,1.237-.034c.235,0,.354.058.354.177,0,.085-.059.129-.177.129a3.207,3.207,0,0,0-.547.067c-.5.087-.769.506-.811,1.25q-.048.721-.047,4.736v1.314h.09q2.17-2.236,5.131-5.306,1.183-1.246,1.182-1.578a.447.447,0,0,0-.283-.461c-.132-.042-.2-.1-.2-.175,0-.1.086-.152.264-.152.145,0,.413.011.8.034s.666.032.843.032q1.777-.065,2.106-.066c.22,0,.327.05.327.152s-.072.155-.222.155a3.187,3.187,0,0,0-1.246.317,10.467,10.467,0,0,0-2.346,1.875q-4.035,3.858-4.825,4.8.483.547,2.9,3.027,2.519,2.584,3.133,3.157c.994.92,1.635,1.5,1.931,1.731a5.526,5.526,0,0,0,1.335.767,3.509,3.509,0,0,0,1.361.286c.189,0,.285.044.285.132,0,.117-.162.174-.483.174h-1.121q-1.054,0-1.517-.043a3.322,3.322,0,0,1-1.4-.418,12.5,12.5,0,0,1-1.253-.921q-.7-.567-3.337-3.375-2.485-2.671-3.361-3.749h-.09v2.15q0,3.789.112,4.757c.088.729.375,1.132.856,1.2a7.608,7.608,0,0,0,.832.089c.13,0,.2.044.2.132,0,.117-.118.174-.355.174-.438,0-.971-.01-1.6-.033l-.922-.031c-.013,0-.3.009-.867.031s-.973.033-1.238.033c-.233,0-.349-.057-.349-.174,0-.088.068-.132.207-.132a3.247,3.247,0,0,0,.625-.089c.337-.072.548-.475.637-1.2q.109-.856.108-4.757" transform="translate(-66.278 -27.138)" fill="#fff"/>
    <path id="Path_48006" data-name="Path 48006" d="M383.716,146.46v9.275q0,3.791.107,4.757.132,1.095.858,1.2a7.536,7.536,0,0,0,.987.088c.115,0,.175.045.175.132,0,.118-.118.175-.351.175-.5,0-1.085-.011-1.766-.033s-.991-.032-.932-.032l-.867.032c-.59.023-1.018.033-1.281.033-.235,0-.351-.057-.351-.175,0-.087.07-.132.209-.132a3.29,3.29,0,0,0,.624-.088c.335-.072.546-.475.635-1.2q.107-.854.109-4.757V146.46l-3.243.044a9.29,9.29,0,0,0-1.229.09,1.539,1.539,0,0,0-1.007.613c-.089.175-.177.354-.265.526-.128.25-.24.372-.327.372s-.111-.065-.111-.2a10.451,10.451,0,0,1,.485-2.28c.071-.277.142-.415.218-.415a1.746,1.746,0,0,1,.328.121,1.924,1.924,0,0,0,.636.14q1.227.11,1.731.11h8.221a9.856,9.856,0,0,0,1.543-.11,5.525,5.525,0,0,0,.627-.111c.073,0,.111.09.111.264,0,.249-.012.7-.033,1.358s-.035,1.01-.035,1.054c0,.192-.05.285-.152.285s-.147-.123-.177-.372l-.021-.242q-.11-1.161-2.7-1.207Z" transform="translate(-70.03 -27.068)" fill="#fff"/>
    <path id="Path_48007" data-name="Path 48007" d="M396.954,153.783a8.531,8.531,0,0,1,2.062-5.612,8.068,8.068,0,0,1,6.575-2.957,8.775,8.775,0,0,1,6.161,2.19,7.8,7.8,0,0,1,2.453,6.028,8.879,8.879,0,0,1-2.39,6.317,8.309,8.309,0,0,1-6.356,2.65,8,8,0,0,1-6.511-2.828,8.779,8.779,0,0,1-1.995-5.787m2.083-.614a8.992,8.992,0,0,0,2.039,6.118,6.261,6.261,0,0,0,4.975,2.278,5.63,5.63,0,0,0,3.772-1.36q2.275-1.971,2.279-6.159a8.655,8.655,0,0,0-2.038-6.029,5.993,5.993,0,0,0-4.626-2.06,6.065,6.065,0,0,0-4.582,1.8,7.57,7.57,0,0,0-1.818,5.412" transform="translate(-73.993 -27.068)" fill="#fff"/>
    <path id="Path_48008" data-name="Path 48008" d="M425.858,155.806v-3.858c0-2.675-.017-4.255-.043-4.736a1.2,1.2,0,0,0-.945-1.25,3.421,3.421,0,0,0-.741-.067c-.119,0-.179-.044-.179-.129,0-.12.119-.177.352-.177.393,0,.911.011,1.545.034s.945.032.932.032c.115,0,.512-.008,1.185-.032s1.2-.034,1.575-.034a5.752,5.752,0,0,1,4.08,1.249,3.426,3.426,0,0,1,1.1,2.61,4.967,4.967,0,0,1-1.524,3.769,5.4,5.4,0,0,1-3.87,1.447,2.826,2.826,0,0,1-.458-.022c-.163,0-.241-.051-.241-.151,0-.133.194-.2.589-.2a3.79,3.79,0,0,0,2.7-1.03,3.349,3.349,0,0,0,1.1-2.543,4.6,4.6,0,0,0-1.228-3.375,4,4,0,0,0-3-1.094,2.568,2.568,0,0,0-.943.128c-.119.046-.177.184-.177.417v9.012q0,3.789.111,4.757c.087.729.371,1.132.856,1.2a7.545,7.545,0,0,0,.985.089q.173,0,.173.132c0,.117-.116.174-.349.174-.5,0-1.085-.01-1.766-.033s-.989-.031-.93-.031l-.834.031c-.585.024-1.009.033-1.273.033-.233,0-.348-.057-.348-.174,0-.088.067-.132.206-.132a3.262,3.262,0,0,0,.626-.089c.336-.072.548-.475.635-1.2q.111-.856.111-4.757" transform="translate(-79.026 -27.138)" fill="#fff"/>
    <path id="Path_48009" data-name="Path 48009" d="M446.35,162.4a6.636,6.636,0,0,1-2.938-.59c-.218-.1-.327-.381-.327-.834a15.163,15.163,0,0,1,.129-2.5c.033-.117.081-.177.156-.177.1,0,.151.082.151.243a4.486,4.486,0,0,0,.066.81q.46,2.236,3.244,2.235a3.079,3.079,0,0,0,2.368-.941,2.761,2.761,0,0,0,.768-1.974,3.473,3.473,0,0,0-.538-1.941,10.075,10.075,0,0,0-1.982-2.006l-.988-.811a9.445,9.445,0,0,1-2.3-2.543,4.455,4.455,0,0,1-.549-2.212,3.629,3.629,0,0,1,1.229-2.861,4.819,4.819,0,0,1,3.308-1.085,9.115,9.115,0,0,1,2.04.218,3.684,3.684,0,0,0,.766.11c.147,0,.221.05.221.155,0-.076-.015.141-.044.644s-.043,1.063-.043,1.677c0,.335-.055.5-.155.5s-.161-.093-.177-.281a2.836,2.836,0,0,0-.286-1.1q-.633-1.161-2.739-1.163a2.774,2.774,0,0,0-1.931.692,2.365,2.365,0,0,0-.766,1.85,2.834,2.834,0,0,0,.548,1.7,11.576,11.576,0,0,0,2.125,1.983l.617.481a10.3,10.3,0,0,1,2.564,2.676,4.77,4.77,0,0,1,.635,2.476,4.209,4.209,0,0,1-1.864,3.64,5.636,5.636,0,0,1-3.31.919" transform="translate(-82.592 -27.068)" fill="#fff"/>
    <path id="Path_48010" data-name="Path 48010" d="M127.664,121.955H113.991V80.936h-11.3V69.359h36.275V80.936h-11.3Z" transform="translate(-19.142 -12.929)" fill="#fff"/>
    <path id="Path_48011" data-name="Path 48011" d="M167.028,80.936v8.721h15.415v11.577H167.028v9.138H183.28v11.582H153.355v-52.6H183.28V80.936Z" transform="translate(-28.586 -12.929)" fill="#fff"/>
    <path id="Path_48012" data-name="Path 48012" d="M237.494,86.685a14.555,14.555,0,0,0-12-5.79c-8.372,0-14.022,6.417-14.022,14.581,0,8.3,5.65,14.3,14.231,14.3a15.724,15.724,0,0,0,11.788-5.578v16.392c-4.534,1.395-7.812,2.442-12.066,2.442a29.094,29.094,0,0,1-19.743-7.744c-5.858-5.3-8.439-12-8.439-19.88a27.514,27.514,0,0,1,7.743-19.251,28.484,28.484,0,0,1,20.018-8.512,32.083,32.083,0,0,1,12.487,2.652Z" transform="translate(-36.767 -12.609)" fill="#fff"/>
    <path id="Path_48013" data-name="Path 48013" d="M290.494,89.657v-20.3h13.672v52.6H290.494V100.4h-19.74v21.554H257.081v-52.6h13.673v20.3Z" transform="translate(-47.921 -12.929)" fill="#fff"/>
    <path id="Path_48014" data-name="Path 48014" d="M325.917,69.359H339.59l25.041,32.156h.14V69.359h13.673v52.6H364.771L339.728,89.727h-.138v32.227H325.917Z" transform="translate(-60.752 -12.929)" fill="#fff"/>
    <path id="Path_48015" data-name="Path 48015" d="M456.36,94.281c0,17.019-12.14,29.018-29.089,29.018s-29.09-12-29.09-29.018c0-15.906,13.953-27.068,29.09-27.068S456.36,78.375,456.36,94.281m-43.947.068c0,9.068,6.768,15.7,14.859,15.7s14.856-6.627,14.856-15.7c0-7.254-6.766-13.881-14.856-13.881s-14.859,6.627-14.859,13.881" transform="translate(-74.222 -12.529)" fill="#fff"/>
    <path id="Path_48016" data-name="Path 48016" d="M485.542,121.955V74.8H472.848v-5.44h31.391V74.8H491.4v47.156Z" transform="translate(-88.14 -12.929)" fill="#fff"/>
    <path id="Path_48017" data-name="Path 48017" d="M558.676,114.769a27.707,27.707,0,0,1-38.715,0,26.6,26.6,0,0,1-8.02-19.252,26.3,26.3,0,0,1,8.09-19.251,27.123,27.123,0,0,1,19.323-8.025,27.513,27.513,0,0,1,27.413,27.275,25.859,25.859,0,0,1-8.091,19.252m-34.6-3.974a20.969,20.969,0,0,0,15.276,6.418,20.663,20.663,0,0,0,15.206-6.35,21.453,21.453,0,0,0,6.347-15.416,21.674,21.674,0,0,0-21.553-21.763A20.427,20.427,0,0,0,524.077,80.1a21.061,21.061,0,0,0-6.28,15.345,21.288,21.288,0,0,0,6.28,15.348" transform="translate(-95.427 -12.721)" fill="#fff"/>
    <path id="Path_48018" data-name="Path 48018" d="M589.093,121.955v-52.6h8.65a43.8,43.8,0,0,1,7.465.488,12.824,12.824,0,0,1,5.576,2.373,13.24,13.24,0,0,1,4.327,5.16,16.353,16.353,0,0,1,1.6,6.765,14.773,14.773,0,0,1-1.325,6.349,13.017,13.017,0,0,1-3.7,4.953,14.18,14.18,0,0,1-5.51,2.788,32.918,32.918,0,0,1-6.974.7h-4.258v23.02Zm9.765-28.46q5.544,0,8.788-2.093c2.093-1.4,3.137-3.839,3.208-7.395a8.575,8.575,0,0,0-2.719-6.836c-1.745-1.534-5.371-2.3-11.022-2.372h-2.164V93.5Z" transform="translate(-109.809 -12.929)" fill="#fff"/>
  </g>
</svg>
