<svg xmlns="http://www.w3.org/2000/svg" width="117.492" height="38.828" viewBox="0 0 117.492 38.828">
  <g id="Group_39895" data-name="Group 39895" transform="translate(-407.883 -4257.553)">
    <text id="HAKKIMIZDA" transform="translate(488.375 4283.383)" fill="#fff" font-size="16" font-family="Manrope-Medium, Manrope" font-weight="500"><tspan x="-36.956" y="0">App Store</tspan></text>
    <path id="Icon_metro-apple" data-name="Icon metro-apple" d="M31.841,22.559a8.784,8.784,0,0,1,4.191-7.393,9.067,9.067,0,0,0-7.1-3.848c-3.024-.306-5.9,1.78-7.434,1.78s-3.9-1.735-6.406-1.689a9.5,9.5,0,0,0-8.031,4.868c-3.424,5.942-.877,14.744,2.46,19.563,1.631,2.359,3.575,5.008,6.128,4.913,2.459-.1,3.388-1.591,6.361-1.591s3.808,1.591,6.41,1.542c2.646-.049,4.322-2.4,5.941-4.77a21.4,21.4,0,0,0,2.689-5.522,8.576,8.576,0,0,1-5.21-7.854ZM26.952,8.128a8.557,8.557,0,0,0,2.02-6.2,8.7,8.7,0,0,0-5.718,2.941,8.14,8.14,0,0,0-2.062,6.008A7.2,7.2,0,0,0,26.952,8.128Z" transform="translate(402.447 4255.625)" fill="#fff"/>
  </g>
</svg>
