<svg xmlns="http://www.w3.org/2000/svg" width="29.146" height="25.502" viewBox="0 0 29.146 25.502">
  <path id="camera" d="M18.461,33.822a.462.462,0,0,1,.427.3l1.258,3.347h6.267a.913.913,0,0,1,.911.911V54.77a.913.913,0,0,1-.911.911H2.732a.913.913,0,0,1-.911-.911V38.376a.913.913,0,0,1,.911-.911H9.006l1.144-3.051A.913.913,0,0,1,11,33.822h7.457m0-1.822H11a2.729,2.729,0,0,0-2.556,1.77l-.706,1.873H2.732A2.733,2.733,0,0,0,0,38.376V54.77A2.733,2.733,0,0,0,2.732,57.5H26.413a2.733,2.733,0,0,0,2.732-2.732V38.376a2.733,2.733,0,0,0-2.732-2.732H21.4L20.59,33.48A2.264,2.264,0,0,0,18.461,32ZM14.573,53.4A6.831,6.831,0,1,1,21.4,46.573,6.836,6.836,0,0,1,14.573,53.4Zm0-11.84a5.009,5.009,0,1,0,5.009,5.009A5.017,5.017,0,0,0,14.573,41.563Z" transform="translate(0 -32)" fill="#fff"/>
</svg>
