<svg xmlns="http://www.w3.org/2000/svg" width="342.394" height="71.586" viewBox="0 0 342.394 71.586">
  <g id="Group_39784" data-name="Group 39784" transform="translate(-1105.055 -1395.465)">
    <path id="Path_47962" data-name="Path 47962" d="M672.146,790.22v8.69H687.7v11.45h-15.55v19.449H659.055V778.771h29.222v11.45Z" transform="translate(446 617.659)" fill="#69c3c4"/>
    <path id="Path_47963" data-name="Path 47963" d="M669.388,829.809V778.771H683.06V818.36H698.9v11.45Z" transform="translate(468.287 617.659)" fill="#69c3c4"/>
    <path id="Path_47964" data-name="Path 47964" d="M750.7,819.986c-8.9,0-14.755-7.037-14.755-15.175,0-8,5.859-14.9,14.609-14.9s14.537,7.172,14.537,15.105c0,7.794-5.786,14.966-14.392,14.966m-43.541,0c-8.9,0-14.755-7.037-14.755-15.175,0-8,5.859-14.9,14.609-14.9s14.54,7.172,14.54,15.105c0,7.794-5.786,14.966-14.395,14.966m43.323-41.521c-8.637,0-16.292,3.226-21.75,9.432a29.013,29.013,0,0,0-21.791-9.432c-9.114,0-17.141,3.586-22.637,10.484a23.585,23.585,0,0,0-3.472,5.723,28.183,28.183,0,0,0-2.1,10.9c0,14.689,13.018,25.863,28.136,25.863a29.1,29.1,0,0,0,21.838-9.388,29.275,29.275,0,0,0,21.7,9.388c15.7,0,28.354-11.38,28.354-26.485,0-15.036-12.659-26.485-28.281-26.485" transform="translate(488.449 617)" fill="#69c3c4"/>
    <path id="Path_47965" data-name="Path 47965" d="M729.491,790.221H724.5v14.208h4.846c5.136,0,8.968-2.071,8.968-7.311,0-5.035-4.123-6.9-8.823-6.9m7.523,39.589-12.368-16.485H724.5V829.81H711.409V778.771h16.923c5.644,0,11.863.139,16.491,3.656a17.338,17.338,0,0,1,6.582,13.931c0,7.864-4.846,14.761-13.306,16.071l14.537,17.381Z" transform="translate(558.915 617.66)" fill="#69c3c4"/>
    <path id="Path_47966" data-name="Path 47966" d="M743.7,790.232h-5.063V802.37h5.568c4.486,0,8.536-.963,8.536-6.137,0-5.31-4.555-6-9.041-6m16.491,19.174c-4.628,3.864-9.619,4.413-15.623,4.413h-5.932v16H725.546V778.783h17.5c5.5,0,12.078.208,16.491,3.725a17.01,17.01,0,0,1,6.291,13.517c0,4.691-1.881,10.209-5.641,13.382" transform="translate(589.404 617.686)" fill="#202328"/>
    <path id="Path_47967" data-name="Path 47967" d="M762.153,794.647h-.218l-5.5,17.451h11.209Zm11.718,35.176-2.6-7.381H752.679l-2.822,7.381H735.175l21.482-51.039h10.777L788.7,829.823Z" transform="translate(610.171 617.688)" fill="#202328"/>
    <path id="Path_47968" data-name="Path 47968" d="M785.759,778.784v32l-.076.076-19.9-32.072h-12.58v51.038h12.58V798.614l19.973,31.208h12.579V778.784Z" transform="translate(649.059 617.687)" fill="#202328"/>
    <path id="Path_47969" data-name="Path 47969" d="M725.506,801.342v-1.982a2.213,2.213,0,0,1,1.881-2.484V798c-.6.177-.669.587-.669,1.162h.669v2.178Z" transform="translate(589.318 656.706)" fill="#4d4d4f"/>
    <path id="Path_47970" data-name="Path 47970" d="M727.052,810.1V796.875H729v11.453h4.647V810.1Z" transform="translate(592.652 656.705)" fill="#202328"/>
    <path id="Path_47971" data-name="Path 47971" d="M734.673,799.538a3.512,3.512,0,1,0,3.469,3.539,3.41,3.41,0,0,0-3.469-3.539m3.434,8.47V806.47h-.035a3.848,3.848,0,0,1-3.4,1.787,5.208,5.208,0,1,1,0-10.414,3.984,3.984,0,0,1,3.4,1.66h.035v-1.392h1.881v9.9Z" transform="translate(597.63 658.793)" fill="#202328"/>
    <path id="Path_47972" data-name="Path 47972" d="M746.762,808.008v-5.5c0-1.556-.524-2.967-2.367-2.967-1.954,0-2.387,1.323-2.387,2.949v5.521h-1.881v-5.5a3.477,3.477,0,0,0-.414-2.036,2.079,2.079,0,0,0-1.862-.931c-1.935,0-2.475,1.288-2.475,2.949v5.521h-1.881v-9.9h1.736v1.07h.035a3.312,3.312,0,0,1,2.876-1.339,3.471,3.471,0,0,1,3.109,1.66,3.533,3.533,0,0,1,3.305-1.66c2.658,0,4.088,1.641,4.088,4.2v5.966Z" transform="translate(606.547 658.793)" fill="#202328"/>
    <path id="Path_47973" data-name="Path 47973" d="M739.054,810.1h1.881v-9.9h-1.881Zm0-11.042h1.881v-2.178h-1.881Z" transform="translate(618.537 656.706)" fill="#202328"/>
    <path id="Path_47974" data-name="Path 47974" d="M747.425,808.008v-5.379c0-1.68-.505-3.091-2.494-3.091-1.844,0-2.639,1.411-2.639,3.075v5.395h-1.881v-9.9h1.755v1.051h.035a3.5,3.5,0,0,1,2.93-1.319,4.05,4.05,0,0,1,3.542,1.768,4.612,4.612,0,0,1,.634,2.538v5.859Z" transform="translate(621.464 658.793)" fill="#202328"/>
    <path id="Path_47975" data-name="Path 47975" d="M749.137,799.538a3.512,3.512,0,1,0,3.469,3.539,3.41,3.41,0,0,0-3.469-3.539m3.434,8.47V806.47h-.035a3.848,3.848,0,0,1-3.4,1.787,5.208,5.208,0,1,1,0-10.414,3.983,3.983,0,0,1,3.4,1.66h.035v-1.392h1.882v9.9Z" transform="translate(628.826 658.793)" fill="#202328"/>
    <path id="Path_47976" data-name="Path 47976" d="M750.862,801.894v8.2H748.98v-8.2h-1.354v-1.7h1.354v-3.321h1.881V800.2h1.645v1.7Z" transform="translate(637.025 656.706)" fill="#202328"/>
    <path id="Path_47977" data-name="Path 47977" d="M755.118,798.645H753.2v4.467h1.916c1.484,0,2.765-.609,2.765-2.235s-1.282-2.232-2.765-2.232m0,6.235H753.2V810.1h-1.951V796.874h3.867c2.639,0,4.719,1.18,4.719,4s-2.08,4-4.719,4" transform="translate(644.844 656.703)" fill="#202328"/>
    <path id="Path_47978" data-name="Path 47978" d="M759.5,799.538a3.512,3.512,0,1,0,3.469,3.539,3.41,3.41,0,0,0-3.469-3.539m3.435,8.47V806.47H762.9a3.848,3.848,0,0,1-3.4,1.787,5.208,5.208,0,1,1,0-10.414,3.984,3.984,0,0,1,3.4,1.66h.035v-1.392h1.881v9.9Z" transform="translate(651.167 658.793)" fill="#202328"/>
    <path id="Path_47979" data-name="Path 47979" d="M761.3,800.112a2.666,2.666,0,0,0-1.1,2.484v5.414h-1.881v-9.9h1.755V799h.035a3.04,3.04,0,0,1,2.547-1.162v1.913a3.273,3.273,0,0,0-1.354.357" transform="translate(660.081 658.791)" fill="#202328"/>
    <path id="Path_47980" data-name="Path 47980" d="M765.8,800.2h2.222l-3.633,4.666L768.6,810.1h-2.349l-4.012-5.13Zm-3.6,9.9H760.32v-13.22H762.2Z" transform="translate(664.402 656.706)" fill="#202328"/>
    <path id="Path_47981" data-name="Path 47981" d="M768.089,799.538a3.24,3.24,0,0,0-3.236,2.895h6.471a3.244,3.244,0,0,0-3.236-2.895m5.06,4.325h-8.3a3.4,3.4,0,0,0,3.289,2.7A3.226,3.226,0,0,0,771,804.9h1.878a5.1,5.1,0,0,1-4.808,3.359,5.2,5.2,0,0,1-5.1-5.215,5.116,5.116,0,1,1,10.231-.107,8.316,8.316,0,0,1-.054.928" transform="translate(670.122 658.793)" fill="#202328"/>
    <path id="Path_47982" data-name="Path 47982" d="M766.923,801.342v-1.127c.6-.177.669-.587.669-1.159h-.669v-2.181H768.8v1.982a2.215,2.215,0,0,1-1.882,2.484" transform="translate(678.645 656.706)" fill="#202328"/>
  </g>
</svg>
