<svg xmlns="http://www.w3.org/2000/svg" width="36" height="36" viewBox="0 0 36 36">
  <g id="Group_40005" data-name="Group 40005" transform="translate(-554 -1233)">
    <rect id="Rectangle_410" data-name="Rectangle 410" width="36" height="36" transform="translate(554 1233)" fill="#052971" opacity="0"/>
    <path id="Path_48004" data-name="Path 48004" d="M35.156,2.049H32.181V1.867a.842.842,0,0,0-.6-.808A23.1,23.1,0,0,0,18,.985a23.1,23.1,0,0,0-13.586.074.843.843,0,0,0-.6.808v.182H.844A.845.845,0,0,0,0,2.893V31.156A.845.845,0,0,0,.844,32H35.156A.845.845,0,0,0,36,31.156V2.893a.845.845,0,0,0-.844-.844M30.493,26.22a23.047,23.047,0,0,0-11.649,0V2.5a21.4,21.4,0,0,1,11.649,0ZM4.663,28.181a2.135,2.135,0,0,0,.248-.037,21.454,21.454,0,0,1,12.841,0,.839.839,0,0,0,.5,0,21.453,21.453,0,0,1,12.843,0,.859.859,0,0,0,1.09-.808V3.737h2.13V30.312H1.688V3.737h2.13v23.6a.847.847,0,0,0,.845.843m.844-1.961V2.5a21.4,21.4,0,0,1,11.649,0V26.221a23.006,23.006,0,0,0-11.649,0" transform="translate(554 1235)" fill="#052971"/>
  </g>
</svg>
