<svg xmlns="http://www.w3.org/2000/svg" width="310.5" height="81.571" viewBox="0 0 310.5 81.571">
  <g id="Group_40206" data-name="Group 40206" transform="translate(-207.522 -76.311)">
    <path id="Path_48106" data-name="Path 48106" d="M207.522,157.834h190.55V76.311l-190.55.015v81.508m112.535-12.892V89.2h11.691q15.69,0,23.381,6.487a25.885,25.885,0,0,1,7.015,9.731,29.535,29.535,0,0,1,2.566,11.92,28.682,28.682,0,0,1-2.566,11.685,26.589,26.589,0,0,1-7.089,9.581,24.9,24.9,0,0,1-10.862,5.28,56.411,56.411,0,0,1-12.217,1.058Zm10.332-10.036h1.283a49.483,49.483,0,0,0,8.372-.525,18.3,18.3,0,0,0,7.619-3.24,16.344,16.344,0,0,0,6.712-13.8q0-9.732-7.392-14.787-4.826-3.312-15.837-3.314Zm37.72,10.036V89.2h29.944V99.238H378.441v12.821h18.783v10.026H378.441v12.821h19.612v10.036Zm-82.016,0V89.2h29.943V99.238H296.427v12.821h18.781v10.026H296.427v12.821h19.609v10.036Zm-62.658,0V89.2H237.54l14.933,42.615L267.634,89.2h14.03v55.741H271.332V103.158l-14.409,41.785h-8.748L233.77,103.158v41.785Z" transform="translate(0 0)" fill="#fff" fill-rule="evenodd"/>
    <path id="Path_48107" data-name="Path 48107" d="M772.69,157.955H652.764v-4.916H767.252V81.368l-114.488-.014V76.439l119.926.013Z" transform="translate(-254.667 -0.073)" fill="#fff"/>
    <path id="Path_48108" data-name="Path 48108" d="M665.9,130.925h1.932a17.024,17.024,0,0,0,2.974-.223,6.6,6.6,0,0,0,2.45-1.2,5.014,5.014,0,0,0,1.266-2.372,12.993,12.993,0,0,0,.37-3.271,13.777,13.777,0,0,0-.521-4.014,2.891,2.891,0,0,0-1.635-2.232,6.263,6.263,0,0,0-2.156-.6c-.643-.049-1.511-.073-2.6-.073H665.9v13.977m-13.336,31.738V106.911H668.1a41.75,41.75,0,0,1,9.295.972,11.3,11.3,0,0,1,6.539,3.489,13.093,13.093,0,0,1,2.973,5.426,25.355,25.355,0,0,1,.818,6.843,25.88,25.88,0,0,1-1.633,9.513,9.727,9.727,0,0,1-4.831,5.649,21.389,21.389,0,0,1-5.651,1.858,38.366,38.366,0,0,1-5.8.375h-2.082c-.693,0-1.387-.023-2.082-.079v21.708Z" transform="translate(-254.554 -17.502)" fill="#fff" fill-rule="evenodd"/>
    <path id="Path_48109" data-name="Path 48109" d="M742.586,117.021l-3.938,24.973h7.581Zm-20.07,45.642,12.191-55.752h15.757l12.119,55.752H749.351l-1.861-10.856H737.233l-1.559,10.856Z" transform="translate(-294.564 -17.502)" fill="#fff" fill-rule="evenodd"/>
    <path id="Path_48110" data-name="Path 48110" d="M832.411,131.446l-.15.151,1.188,31.068H821.036V106.914h13.456L844.6,138.06l-1.04-31.145h12.414v55.751h-13.38Z" transform="translate(-350.915 -17.504)" fill="#fff"/>
  </g>
</svg>
