<svg xmlns="http://www.w3.org/2000/svg" width="186.814" height="28.925" viewBox="0 0 186.814 28.925">
  <g id="Group_40228" data-name="Group 40228" transform="translate(-533.5 -1685.537)">
    <text id="HAKKIMIZDA" transform="translate(654.314 1706)" font-size="17" font-family="Manrope-Medium, Manrope" font-weight="500"><tspan x="-65.735" y="0">Web Uygulaması</tspan></text>
    <path id="Icon_awesome-laptop" data-name="Icon awesome-laptop" d="M35.252,23.5h-13.7a1.781,1.781,0,0,1-1.85,1.808H16.27A1.918,1.918,0,0,1,14.419,23.5H.9a.907.907,0,0,0-.9.9v.9a3.626,3.626,0,0,0,3.616,3.616H32.541a3.626,3.626,0,0,0,3.616-3.616v-.9A.907.907,0,0,0,35.252,23.5ZM32.541,2.712A2.72,2.72,0,0,0,29.829,0H6.327A2.72,2.72,0,0,0,3.616,2.712V21.694H32.541ZM28.925,18.078H7.231V3.616H28.925Z" transform="translate(533.5 1685.537)"/>
  </g>
</svg>
