<svg xmlns="http://www.w3.org/2000/svg" width="119.289" height="35.97" viewBox="0 0 119.289 35.97">
  <g id="Group_40082" data-name="Group 40082" transform="translate(-731.355 -517.515)">
    <text id="HAKKIMIZDA" transform="translate(810.645 542)" font-size="17" font-family="Manrope-Medium, Manrope" font-weight="500"><tspan x="-39.266" y="0">App Store</tspan></text>
    <path id="Icon_metro-apple" data-name="Icon metro-apple" d="M29.9,21.04a8.138,8.138,0,0,1,3.883-6.849A8.4,8.4,0,0,0,27.2,10.627c-2.8-.284-5.466,1.649-6.887,1.649s-3.612-1.607-5.935-1.565a8.8,8.8,0,0,0-7.44,4.51c-3.172,5.5-.812,13.659,2.279,18.123,1.511,2.185,3.312,4.639,5.677,4.552,2.278-.091,3.139-1.474,5.893-1.474s3.528,1.474,5.938,1.429c2.451-.046,4-2.227,5.5-4.419a19.827,19.827,0,0,0,2.491-5.115A7.944,7.944,0,0,1,29.9,21.04ZM25.369,7.672A7.927,7.927,0,0,0,27.24,1.928a8.064,8.064,0,0,0-5.3,2.724,7.541,7.541,0,0,0-1.91,5.565A6.671,6.671,0,0,0,25.369,7.672Z" transform="translate(725.92 515.587)"/>
  </g>
</svg>
