<svg xmlns="http://www.w3.org/2000/svg" xmlns:xlink="http://www.w3.org/1999/xlink" width="285.124" height="80" viewBox="0 0 285.124 80">
  <defs>
    <linearGradient id="linear-gradient" x1="1.191" y1="0.497" x2="7.746" y2="0.466" gradientUnits="objectBoundingBox">
      <stop offset="0" stop-color="#1c307f"/>
      <stop offset="0.35" stop-color="#1c307f"/>
      <stop offset="0.534" stop-color="#0e5c66"/>
      <stop offset="0.711" stop-color="#048151"/>
      <stop offset="0.805" stop-color="#008f4a"/>
      <stop offset="1" stop-color="#008f4a"/>
    </linearGradient>
    <linearGradient id="linear-gradient-2" x1="0.185" y1="0.502" x2="7.766" y2="0.462" xlink:href="#linear-gradient"/>
    <linearGradient id="linear-gradient-3" x1="-0.909" y1="0.508" x2="6.314" y2="0.468" xlink:href="#linear-gradient"/>
    <linearGradient id="linear-gradient-4" x1="-2.636" y1="0.514" x2="6.309" y2="0.474" xlink:href="#linear-gradient"/>
    <linearGradient id="linear-gradient-5" x1="-1.266" y1="0.509" x2="1.633" y2="0.494" xlink:href="#linear-gradient"/>
    <linearGradient id="linear-gradient-6" x1="-5.673" y1="0.52" x2="1.907" y2="0.496" xlink:href="#linear-gradient"/>
    <linearGradient id="linear-gradient-7" x1="-5.187" y1="0.557" x2="1.002" y2="0.495" xlink:href="#linear-gradient"/>
    <linearGradient id="linear-gradient-8" x1="-5.82" y1="0.525" x2="0.266" y2="0.501" xlink:href="#linear-gradient"/>
  </defs>
  <g id="Group_40305" data-name="Group 40305" transform="translate(417.592 133.135)">
    <path id="Path_62388" data-name="Path 62388" d="M-392.485-72.628l-16.872-16.129h-2.114v16.129h-6.121v-38.319h6.121v16.585h1.658l16.758-16.585h7.607l-19.161,19.216,20.418,19.1Z" fill="url(#linear-gradient)"/>
    <path id="Path_62389" data-name="Path 62389" d="M-354.259-85.381H-377.25a9.365,9.365,0,0,0,2.859,6.119,8.14,8.14,0,0,0,5.721,2.286q5.889,0,8.35-4.917L-355-80.75a13.318,13.318,0,0,1-5.29,6.664,15.363,15.363,0,0,1-8.378,2.259A14.08,14.08,0,0,1-378.88-76a14.4,14.4,0,0,1-4.261-10.753,14.567,14.567,0,0,1,4.261-10.839,14.3,14.3,0,0,1,10.438-4.2,13.538,13.538,0,0,1,9.866,4.033,14.658,14.658,0,0,1,4.317,10.322ZM-373.932-94.7a7.881,7.881,0,0,0-3.146,5.09h16.7a8.579,8.579,0,0,0-2.86-5.148,7.972,7.972,0,0,0-5.2-1.772A9.133,9.133,0,0,0-373.932-94.7Z" fill="url(#linear-gradient-2)"/>
    <path id="Path_62390" data-name="Path 62390" d="M-319.927-72.628h-5.946v-3.26a13.594,13.594,0,0,1-10.294,4.061,13.453,13.453,0,0,1-9.924-4.2,14.71,14.71,0,0,1-4.147-10.783,14.669,14.669,0,0,1,4.175-10.75,13.433,13.433,0,0,1,9.9-4.234,13.594,13.594,0,0,1,10.294,4.061V-101h5.946Zm-8.75-7.179a9.317,9.317,0,0,0,2.8-7.006,9.315,9.315,0,0,0-2.8-7,9.074,9.074,0,0,0-6.519-2.717,8.944,8.944,0,0,0-6.634,2.659,9.607,9.607,0,0,0-2.631,7.062,9.609,9.609,0,0,0,2.631,7.064A8.944,8.944,0,0,0-335.2-77.09,9.074,9.074,0,0,0-328.677-79.807Z" fill="url(#linear-gradient-3)"/>
    <path id="Path_62391" data-name="Path 62391" d="M-307.325-81.493a4.667,4.667,0,0,0,2.2,3.6,9.072,9.072,0,0,0,4.89,1.2,7.17,7.17,0,0,0,4.089-1.029,3.174,3.174,0,0,0,1.516-2.746q0-2.517-3.833-3.373l-6.175-1.26q-7.722-1.714-7.721-7.721a7.962,7.962,0,0,1,3.06-6.489,12.513,12.513,0,0,1,8.149-2.49,13.438,13.438,0,0,1,7.98,2.259,9.6,9.6,0,0,1,3.974,5.921l-5.663,1.2a5.034,5.034,0,0,0-2.058-3.374,7.267,7.267,0,0,0-4.4-1.257,5.767,5.767,0,0,0-3.744,1.057,3.3,3.3,0,0,0-1.288,2.659q0,2.4,3.432,3.2l6.748,1.486a10.467,10.467,0,0,1,5.432,2.717,6.762,6.762,0,0,1,1.947,4.948,7.9,7.9,0,0,1-3.26,6.748,14.328,14.328,0,0,1-8.694,2.4,15.975,15.975,0,0,1-8.522-2.145,8.182,8.182,0,0,1-4-6.263Z" fill="url(#linear-gradient-4)"/>
    <path id="Path_62392" data-name="Path 62392" d="M-275.6-57.54a23.958,23.958,0,0,1-4.4-6.275q-5.878-12.69,3.737-30.044a76.8,76.8,0,0,1,9.349-13.284A95.848,95.848,0,0,1-254.9-118.827a90.075,90.075,0,0,1,13.018-8.878,43.936,43.936,0,0,1,12.618-4.873,17.376,17.376,0,0,1,5.139-.536,11.189,11.189,0,0,1,3.939.8q6.94,3.207,3.071,14.821a70.9,70.9,0,0,1-5.008,10.95,38.753,38.753,0,0,1-6.075,8.41q-3.6,3.741-5.206,2.271-1.338-1.335,1.334-4.273,1.735-1.732,2.137-.268c0,.268.068.382.2.335a4.825,4.825,0,0,0,1-.868,38.451,38.451,0,0,0,3.472-4.4q1.731-2.537,3.271-5.274a58.186,58.186,0,0,0,2.736-5.542,41.848,41.848,0,0,0,1.87-5.209,27.336,27.336,0,0,0,.335-3.4,7.634,7.634,0,0,0-.335-2.871,5.674,5.674,0,0,0-4.806-3.872q-3.741-.668-9.747,1.337a48.138,48.138,0,0,0-10.347,4.938,84.362,84.362,0,0,0-10.683,7.88,104.8,104.8,0,0,0-10.015,9.879,89.485,89.485,0,0,0-8.345,10.948,55.083,55.083,0,0,0-4.738,8.813,46.613,46.613,0,0,0-2.871,8.546,23.355,23.355,0,0,0-.536,5.541,16.274,16.274,0,0,0,.669,5.274q3.069,11.348,13.486,13.086a21.364,21.364,0,0,0,2.27.2q1.467.066,3.069,0t3.071-.2q1.47-.136,2.27-.268a52.451,52.451,0,0,0,11.016-4.14,70.869,70.869,0,0,0,11.549-7.209q1.6-1.2,3.206-2.538t3.4-3q1.8-1.669,4.205-3.94t5.61-5.474q2.668-2.668,4.4-4.338t2.738-2.605a5.272,5.272,0,0,1,1.4-1.067c.265-.088.4-.044.4.133a10.345,10.345,0,0,1-1.4,1.6q-1.4,1.47-3.607,3.6t-4.806,4.741q-2.605,2.605-5.006,4.941t-4.207,4.072q-1.8,1.733-2.471,2.27Q-241.417-57.542-253.969-54.2a40.683,40.683,0,0,1-5.81.936,27.5,27.5,0,0,1-5.406,0A16.808,16.808,0,0,1-275.6-57.54Z" fill="url(#linear-gradient-5)"/>
    <path id="Path_62393" data-name="Path 62393" d="M-207.371-88.25a6.287,6.287,0,0,0-.6,1.2q-.471,1.068-1,2.535t-1,3.006q-.468,1.538-.734,2.468a13.806,13.806,0,0,0-.4,6.143q.8,2.937,4.673.936,5.34-2.805,13.486-12.685a28.082,28.082,0,0,1,2.4-2.871q1.334-1.4,1.6-1.4.667-.531-.934,2-1.338,2.005-3.271,4.408t-3.94,4.673a50.04,50.04,0,0,1-4,4.073,37.416,37.416,0,0,1-3.339,2.736q-4.139,2.667-6.675,1.469a5.848,5.848,0,0,1-2.4-2.939q-1.467-4.135,1.87-13.083a81.818,81.818,0,0,1,4.137-8.946,92.382,92.382,0,0,1,5.609-9.346q2-2.937,4.205-5.609t4.206-4.673a27.866,27.866,0,0,1,3.739-3.2,8.973,8.973,0,0,1,2.938-1.47h.4c.887,0,1.334.534,1.334,1.6a8.12,8.12,0,0,1-1,3.139q-1,2.071-2.538,4.673t-3.469,5.474q-1.939,2.871-3.94,5.407-.936,1.2-2.27,2.6t-2.736,2.738q-1.4,1.338-2.606,2.338a17,17,0,0,1-1.869,1.4q-.535.268-1.067.6A4.722,4.722,0,0,0-207.371-88.25Zm7.076-13.486A25.015,25.015,0,0,0-202.032-99c-.621,1.113-1.225,2.2-1.8,3.269s-1.066,2-1.469,2.806a8.2,8.2,0,0,0-.6,1.334c0,.18.445-.067,1.337-.733s1.955-1.537,3.2-2.6a61.452,61.452,0,0,0,4.809-4.809,57.069,57.069,0,0,0,4.4-5.474,62.6,62.6,0,0,0,4.873-8.077q1.8-3.67,1.134-4.34l-.132-.133q-.671-.132-2.939,1.935a48.533,48.533,0,0,0-4.4,4.608q-1.47,1.735-3.339,4.4T-200.295-101.736Z" fill="url(#linear-gradient-6)"/>
    <path id="Path_62394" data-name="Path 62394" d="M-189.612-75.7q-2.672,1.471-3.94,0t-.333-4.54a16.044,16.044,0,0,1,1.47-3.4,42.161,42.161,0,0,1,2.267-3.672,25.492,25.492,0,0,1,2.338-2.936q1.133-1.2,1.8-1.2a1.286,1.286,0,0,1,.936.4,1.153,1.153,0,0,1,.4.8,5.809,5.809,0,0,1-1.337,2.268q-1.334,1.872-2.47,3.739t-1.87,3.4a15.557,15.557,0,0,0-1,2.538c-.179.668-.133,1,.135,1a3.5,3.5,0,0,0,1.4-.6c.668-.4,1.355-.869,2.07-1.4q.8-.667,2.67-2.4t3.805-3.672q1.935-1.935,3.537-3.672t2.137-2.4q1.6-2.134,2.538-1.6a1.215,1.215,0,0,1,.266,1.136,10.357,10.357,0,0,1-1.2,2.6,45.777,45.777,0,0,0-4.54,9.815q-1.069,3.8.668,3.8a6.907,6.907,0,0,0,2.471-.933,32.7,32.7,0,0,0,3.539-2.138q.8-.667,2.268-1.935t2.938-2.47q4.139-3.873,5.675-5.209a17.768,17.768,0,0,1,1.8-1.467.391.391,0,0,1,.268.133,8.166,8.166,0,0,1-1.67,2q-1.669,1.737-3.872,3.873t-4.4,4.14q-2.205,2-3.4,2.936-4.809,3.607-7.078,2.805a3.049,3.049,0,0,1-1.667-1.8,6.007,6.007,0,0,1-.335-3.272,17.429,17.429,0,0,1,.668-2.8c.354-1.155.754-2.27,1.2-3.337.177-.356.133-.444-.132-.267a19.117,19.117,0,0,0-2.005,2Q-187.609-77.034-189.612-75.7Z" fill="url(#linear-gradient-7)"/>
    <path id="Path_62395" data-name="Path 62395" d="M-133-88.918a10.639,10.639,0,0,1-2,1.469q-1.337.8-3,1.67a37.223,37.223,0,0,1-3.539,1.6q-1.872.733-3.472,1.269a14.688,14.688,0,0,0-1.935.8,2.127,2.127,0,0,0-.736.666,19.726,19.726,0,0,1-4.473,5.273,19.405,19.405,0,0,1-5.406,3.54,9.26,9.26,0,0,1-2.8.468,5.5,5.5,0,0,1-2.538-.336,3.175,3.175,0,0,1-1.2-.866,1.9,1.9,0,0,1-.536-1.269c0-.268-.086-.312-.265-.135a9.889,9.889,0,0,0-.936,1.337q-.8,1.068-1.134,1.469a1.644,1.644,0,0,1-.734.533c-.444,0-.668-.088-.668-.268q-.266-.4.6-2.736t2.2-5.409q2-4.536,5.141-10.147T-153.831-101q3.471-5.406,6.878-10.079a63.044,63.044,0,0,1,6.075-7.344,6.712,6.712,0,0,1,1.334-1.134,2.046,2.046,0,0,1,.936-.2q1.467,0,1.467,1.334,0,.534-2,2.671a90.769,90.769,0,0,0-9.614,12.149q-5.075,7.482-11.08,17.491-1.737,2.941-2.871,5.009t-.869,1.8q.4-.4,2.4-3.071a48.659,48.659,0,0,1,4.34-5.074,27.608,27.608,0,0,1,4.073-3.6q4-2.537,6.142-.936,2.535,2,.268,8.012c-.091.265.2.312.866.133a24.608,24.608,0,0,0,2.538-.869q1.533-.6,3.336-1.4a34.245,34.245,0,0,0,3.407-1.734q1.065-.536,1.935-1a3.382,3.382,0,0,1,1.136-.468l.666-.267Zm-17.759,7.344-.934.133a30.837,30.837,0,0,0-4.14,1,24.94,24.94,0,0,0-3.471,1.269,8.458,8.458,0,0,0-1.47.8,5.806,5.806,0,0,0-1.334,1.2,5.156,5.156,0,0,0-1,1,2,2,0,0,0-.2,1,1.046,1.046,0,0,0,.8,1.068,3.7,3.7,0,0,0,3.471-.132,4.563,4.563,0,0,0,1.269-.6q.73-.468,1.4-.869,1.065-.8,2.8-2.4a14.707,14.707,0,0,0,2.4-2.67Zm1.469-2.138a12.482,12.482,0,0,0,1.334-2.668,7.615,7.615,0,0,0,.536-2.538,3.455,3.455,0,0,0-.133-1.134,1.822,1.822,0,0,0-.4-.6,4.086,4.086,0,0,1-.465-.267.83.83,0,0,0-.468-.133,7.018,7.018,0,0,0-2.536.8,9.6,9.6,0,0,0-1.87,1.2q-.8.667-2.27,2.135c-.447.536-1,1.158-1.669,1.87s-1.293,1.425-1.87,2.138-1.134,1.38-1.67,2a8.24,8.24,0,0,0-1.066,1.467c0,.091.266,0,.8-.265a9.725,9.725,0,0,1,2.4-1.2,32.9,32.9,0,0,1,7.076-1.737c.8-.177,1.337-.31,1.6-.4A1.2,1.2,0,0,0-149.291-83.712Z" fill="url(#linear-gradient-8)"/>
  </g>
</svg>
