<svg id="Group_39994" data-name="Group 39994" xmlns="http://www.w3.org/2000/svg" xmlns:xlink="http://www.w3.org/1999/xlink" width="440.479" height="67.223" viewBox="0 0 440.479 67.223">
  <defs>
    <clipPath id="clip-path">
      <rect id="Rectangle_409" data-name="Rectangle 409" width="440.479" height="67.223" fill="#fff"/>
    </clipPath>
  </defs>
  <g id="Group_39993" data-name="Group 39993" clip-path="url(#clip-path)">
    <path id="Path_48019" data-name="Path 48019" d="M0,66.586V0H24.55a33.04,33.04,0,0,1,23.89,9.669,31.714,31.714,0,0,1,9.932,23.625,31.71,31.71,0,0,1-9.932,23.623,33.028,33.028,0,0,1-23.89,9.669ZM17.307,14.657v37.27h3.888q8.3,0,13.424-4.416,5.736-4.941,5.739-14.216,0-8.746-5.209-13.691T21.371,14.657Z" fill="#fff"/>
    <path id="Path_48020" data-name="Path 48020" d="M333.055,67.381H311.4L294.976,41.64H294.8V67.381H277.4V.457h26c13.222,0,23.254,6.306,23.254,20.595,0,9.233-5.061,17.219-14.643,18.9ZM294.8,30.463h1.686c5.769,0,12.072-.983,12.072-8.346s-6.3-8.346-12.072-8.346H294.8Z" transform="translate(-96.067 -0.158)" fill="#fff"/>
    <path id="Path_48021" data-name="Path 48021" d="M387.012,52.649h20.857V67.381H369.617V.457h17.4Z" transform="translate(-128.001 -0.158)" fill="#fff"/>
    <path id="Path_48022" data-name="Path 48022" d="M457.145,55.753l-4.613,11.629H434.07L459.805.457H478.8l25.206,66.924H485.457l-4.348-11.629ZM469.3,21.14h-.176l-7.191,21.3H476.4Z" transform="translate(-150.322 -0.158)" fill="#fff"/>
    <path id="Path_48023" data-name="Path 48023" d="M556.887.457h17.13L587.6,36.23,601.972.457H619.28L629.4,67.381H612l-4.882-38.52h-.176l-16.067,38.52h-6.922L568.6,28.861h-.179l-5.59,38.52H545.526Z" transform="translate(-188.92 -0.158)" fill="#fff"/>
    <path id="Path_48024" data-name="Path 48024" d="M127.06.53a33.126,33.126,0,1,0,33.127,33.124A33.127,33.127,0,0,0,127.06.53m0,48.582a15.458,15.458,0,1,1,15.458-15.459A15.474,15.474,0,0,1,127.06,49.112" transform="translate(-32.53 -0.184)" fill="#fff"/>
    <path id="Path_48025" data-name="Path 48025" d="M168.258,33.654A33.126,33.126,0,1,0,201.385.529a33.129,33.129,0,0,0-33.127,33.125m48.585,0A15.458,15.458,0,1,1,201.385,18.2a15.478,15.478,0,0,1,15.459,15.459" transform="translate(-58.269 -0.183)" fill="#fff"/>
  </g>
</svg>
