<svg id="Group_40077" data-name="Group 40077" xmlns="http://www.w3.org/2000/svg" xmlns:xlink="http://www.w3.org/1999/xlink" width="377.151" height="105.784" viewBox="0 0 377.151 105.784">
  <defs>
    <clipPath id="clip-path">
      <rect id="Rectangle_419" data-name="Rectangle 419" width="377.151" height="105.784" fill="#fff"/>
    </clipPath>
  </defs>
  <g id="Group_40076" data-name="Group 40076" clip-path="url(#clip-path)">
    <path id="Path_48091" data-name="Path 48091" d="M549.619,105.76l-158.51.024V89.262h16.855V60.45c6.249-.285,12.974.568,18.753-2.267,7.574-3.5,9.373-12.086,9.373-19.742,0-5.761-.758-11.043-4.639-15.388-4.642-5.289-13.923-6.24-20.36-6.24H391.109V.01L549.619,0Zm-36.945-16.5H529.72V16.679H513.905l1.608,41.232L502.353,16.679H485.215V89.262h15.81l-1.511-39.573Zm-66.694-.028L448.131,75.1H461.3l2.322,14.132h16.858L464.908,16.775H444.834L429.221,89.234Zm13.606-26.318h-9.66l4.832-32.678ZM407.964,29.943h1.8a21.709,21.709,0,0,1,6.536.569c2.841,1.324,3.124,5.479,3.124,8.221,0,2.453-.377,5.29-2.086,7.175-2.65,2.082-6.247,1.7-9.373,1.791Z" transform="translate(-172.468)" fill="#fff" fill-rule="evenodd"/>
    <path id="Path_48092" data-name="Path 48092" d="M42.2,40.9V90.844H55.659q7.071,0,12.513-5.827,6.491-6.875,6.493-19.008,0-13.164-6.971-19.947A16.582,16.582,0,0,0,55.756,40.9Zm16.041,61.5h-29.6V29.248H56.043a31.358,31.358,0,0,1,23.208,9.833Q89.179,49.4,89.184,64.868q0,16.144-8.786,26.838Q71.7,102.4,58.239,102.4" transform="translate(-12.627 -12.898)" fill="#fff" fill-rule="evenodd"/>
    <path id="Path_48093" data-name="Path 48093" d="M299.9,40.612v22.26h8.5a10.182,10.182,0,0,0,7.068-2.677Q319,57.042,319,51.31q0-10.7-11.748-10.7ZM299.8,71.175V102.4H286.145V29.249h25.212a21.549,21.549,0,0,1,15.474,5.923q6.488,6.2,6.488,16.042a18.972,18.972,0,0,1-5.44,13.85,23.757,23.757,0,0,1-12.416,6.4L338.668,102.4H321.574Z" transform="translate(-126.182 -12.898)" fill="#fff" fill-rule="evenodd"/>
    <path id="Path_48094" data-name="Path 48094" d="M156.505,64.7a24.386,24.386,0,0,0,6.78,17.575,24.329,24.329,0,0,0,34.188-.094A24.318,24.318,0,0,0,204.351,64.7q0-10.789-6.877-17.75a24.538,24.538,0,0,0-34.285,0q-6.684,6.966-6.684,17.75m-13.847,0q0-16.137,10.982-27.113a38.036,38.036,0,0,1,53.667.188,36.374,36.374,0,0,1,11.176,26.833,36.535,36.535,0,0,1-11.267,26.926,37,37,0,0,1-27.027,11.176A35.846,35.846,0,0,1,153.64,91.537,36.891,36.891,0,0,1,142.658,64.7" transform="translate(-62.908 -11.732)" fill="#fff" fill-rule="evenodd"/>
    <path id="Path_48095" data-name="Path 48095" d="M185.605,80.863a11.259,11.259,0,0,0,3.123,8.105,11.212,11.212,0,0,0,15.757-.048,12,12,0,0,0,0-16.243,11.329,11.329,0,0,0-15.8,0,11.349,11.349,0,0,0-3.077,8.185m-6.384,0a16.979,16.979,0,0,1,5.064-12.494,17.559,17.559,0,0,1,29.884,12.45,16.849,16.849,0,0,1-5.2,12.414,17.043,17.043,0,0,1-12.455,5.146,16.512,16.512,0,0,1-12.233-5.146,17.022,17.022,0,0,1-5.064-12.371" transform="translate(-79.031 -27.916)" fill="#fff" fill-rule="evenodd"/>
    <path id="Path_48096" data-name="Path 48096" d="M0,.181H218.51V6.2L7.024,6.266V99.491H218.549v6.361L0,105.758Z" transform="translate(0 -0.08)" fill="#fff"/>
  </g>
</svg>
