<svg id="Group_40010" data-name="Group 40010" xmlns="http://www.w3.org/2000/svg" xmlns:xlink="http://www.w3.org/1999/xlink" width="102.282" height="120" viewBox="0 0 102.282 120">
  <defs>
    <clipPath id="clip-path">
      <rect id="Rectangle_414" data-name="Rectangle 414" width="102.282" height="120" fill="none"/>
    </clipPath>
  </defs>
  <g id="Group_40006" data-name="Group 40006" clip-path="url(#clip-path)">
    <path id="Path_48009" data-name="Path 48009" d="M51.141,120c-1.179-.733-6.15-3.875-12.131-8.482a136.554,136.554,0,0,1-10.934-9.32A81.966,81.966,0,0,1,18.03,90.874c-5.735-8-8.716-12.887-10.63-17.423C5.461,68.86,4.582,64.5,3.249,57.9l-.139-.692C.531,44.455.057,19.888,0,16.3c2.571-.482,16.069-3.036,25.43-5.306C35.088,8.647,49.1,1.118,51.141,0c2.047,1.118,16.053,8.647,25.711,10.99,9.361,2.27,22.86,4.824,25.43,5.306-.055,3.593-.53,28.16-3.11,40.917l-.139.692C97.7,64.5,96.821,68.86,94.884,73.451c-1.915,4.536-4.9,9.421-10.632,17.423A81.966,81.966,0,0,1,74.206,102.2a136.688,136.688,0,0,1-10.932,9.32c-5.983,4.607-10.953,7.749-12.133,8.482" fill="#313133"/>
    <path id="Path_48010" data-name="Path 48010" d="M50.923,112.718c-2.135-1.408-5.408-3.657-9.093-6.5C33.473,99.776,26.8,93.215,22.516,87.246c-5.337-7.448-8.084-11.928-9.8-15.981-1.695-4.018-2.466-7.839-3.746-14.17l-.135-.668C6.877,46.711,6.212,29.46,6,21.5c5.191-1,14.167-2.791,21.08-4.469,8.229-2,19.062-7.4,23.841-9.914,4.778,2.51,15.61,7.919,23.839,9.914,6.914,1.677,15.89,3.467,21.079,4.469-.209,7.965-.875,25.222-2.837,34.931l-.134.668c-1.278,6.331-2.049,10.152-3.746,14.17-1.711,4.053-4.457,8.533-9.795,15.98-4.278,5.97-10.957,12.531-19.315,18.976-3.683,2.84-6.956,5.089-9.091,6.5" fill="#313133"/>
    <path id="Path_48011" data-name="Path 48011" d="M76.718,10.99C67.06,8.648,53.054,1.118,51.007,0a.255.255,0,0,0-.084.119V119.747c.028.149.055.235.084.253,1.18-.732,6.15-3.875,12.133-8.482a137.041,137.041,0,0,0,10.932-9.32A81.9,81.9,0,0,0,84.117,90.874c5.736-8,8.717-12.887,10.631-17.423C96.686,68.86,97.566,64.5,98.9,57.9l.141-.691c2.578-12.757,3.053-37.325,3.109-40.918-2.569-.482-16.069-3.036-25.429-5.306" fill="#040405"/>
    <path id="Path_48012" data-name="Path 48012" d="M50.924,113.453l-.6-.393c-2.095-1.382-5.368-3.629-9.061-6.477-8.35-6.443-15.033-13.014-19.326-19.006-5.333-7.444-8.082-11.936-9.806-16.025s-2.491-7.894-3.77-14.224l-.134-.668C6.315,47.171,5.637,30.812,5.4,21.906L5.38,20.99l.9-.175c4.8-.928,13.9-2.735,20.8-4.412C35.206,14.433,46.11,8.95,50.42,6.684l.5-.263.5.264C55.736,8.95,66.635,14.431,74.763,16.4c6.919,1.679,16,3.485,20.8,4.412l.9.175-.024.916c-.188,7.171-.839,24.912-2.828,34.755l-.133.661c-1.277,6.331-2.048,10.152-3.769,14.23-1.728,4.094-4.477,8.586-9.807,16.025-4.292,5.99-10.974,12.561-19.326,19.006-3.7,2.851-6.968,5.1-9.06,6.477ZM7.591,22.764c.216,7.612.885,24.183,2.76,33.468l.133.663c1.253,6.2,2.008,9.941,3.644,13.816,1.657,3.929,4.34,8.3,9.571,15.607,4.172,5.822,10.7,12.237,18.889,18.552,3.308,2.551,6.273,4.612,8.336,5.989,2.06-1.375,5.023-3.435,8.334-5.989,8.187-6.316,14.719-12.732,18.889-18.552,5.228-7.3,7.912-11.674,9.572-15.607,1.637-3.878,2.392-7.619,3.642-13.817l.134-.662c1.875-9.284,2.544-25.856,2.76-33.468-4.991-.97-13.452-2.67-20-4.259C66.194,16.55,55.6,11.3,50.924,8.863,46.243,11.3,35.647,16.551,27.593,18.5c-6.54,1.587-15.007,3.288-20,4.259" fill="#fff"/>
    <path id="Path_48013" data-name="Path 48013" d="M27.441,68.582v-7.6H20.328v7.6H17.81V51.116h2.518v7.529h7.113V51.116h2.521V68.582Z" fill="#fff"/>
    <path id="Path_48014" data-name="Path 48014" d="M27.426,68.557V60.979H20.343v7.577H17.835V51.143h2.508v7.506h7.083V51.143h2.51V68.557Z" fill="#fff"/>
    <path id="Path_48015" data-name="Path 48015" d="M33.257,55.506h2.425V68.582H33.257Zm0-4.389h2.425V54H33.257Z" fill="#fff"/>
    <path id="Path_48016" data-name="Path 48016" d="M33.282,55.519h2.374V68.557H33.282Zm0-4.377h2.374v2.871H33.282Z" fill="#fff"/>
    <path id="Path_48017" data-name="Path 48017" d="M39.112,51.115h2.427v2.879H39.112Zm1.05,21.48A4.372,4.372,0,0,1,37.5,73.728V71.155c1.726-.118,1.609-1.6,1.609-2.95v-12.7h2.426V68.511c0,1.7-.025,2.9-1.376,4.084" fill="#fff"/>
    <path id="Path_48018" data-name="Path 48018" d="M39.115,51.141h2.4v2.873h-2.4Zm1.038,21.431a4.291,4.291,0,0,1-2.626,1.13V71.135c1.7-.118,1.588-1.6,1.588-2.943V55.521h2.4V68.5c0,1.695-.024,2.9-1.359,4.074" fill="#fff"/>
    <path id="Path_48019" data-name="Path 48019" d="M49.075,72.949H46.554l1.89-4.626L43.29,55.507H45.9l3.8,10.149,3.9-10.149h2.611Z" fill="#fff"/>
    <path id="Path_48020" data-name="Path 48020" d="M49.079,72.924H46.573l1.878-4.612L43.328,55.533h2.6L49.7,65.651l3.873-10.118h2.6Z" fill="#fff"/>
    <path id="Path_48021" data-name="Path 48021" d="M63.492,57.394a4.221,4.221,0,0,0-4.176,3.824h8.349a4.22,4.22,0,0,0-4.173-3.824m6.528,5.713h-10.7A4.421,4.421,0,0,0,63.56,66.67a4.145,4.145,0,0,0,3.686-2.195h2.425a6.592,6.592,0,0,1-6.2,4.438,6.8,6.8,0,0,1-6.576-6.891,6.6,6.6,0,1,1,13.2-.143,10.756,10.756,0,0,1-.071,1.228" fill="#fff"/>
    <path id="Path_48022" data-name="Path 48022" d="M63.492,57.411a4.205,4.205,0,0,0-4.16,3.81h8.317a4.2,4.2,0,0,0-4.157-3.81M70,63.1H59.332a4.4,4.4,0,0,0,4.228,3.55,4.132,4.132,0,0,0,3.672-2.187h2.415a6.566,6.566,0,0,1-6.18,4.422,6.775,6.775,0,0,1-6.55-6.866,6.578,6.578,0,1,1,13.149-.143A10.688,10.688,0,0,1,70,63.1" fill="#fff"/>
    <path id="Path_48023" data-name="Path 48023" d="M81.549,68.582v-7.1c0-2.219-.654-4.083-3.218-4.083-2.38,0-3.4,1.864-3.4,4.059v7.128H72.5V55.506h2.263V56.9h.045a4.476,4.476,0,0,1,3.779-1.747,5.191,5.191,0,0,1,4.57,2.337,6.213,6.213,0,0,1,.817,3.352v7.741Z" fill="#fff"/>
    <path id="Path_48024" data-name="Path 48024" d="M81.535,68.556V61.479c0-2.209-.651-4.068-3.2-4.068-2.368,0-3.39,1.859-3.39,4.045v7.1H72.527V55.531H74.78v1.388h.044a4.45,4.45,0,0,1,3.763-1.741,5.168,5.168,0,0,1,4.551,2.328,6.2,6.2,0,0,1,.812,3.34v7.71Z" fill="#fff"/>
    <path id="Path_48025" data-name="Path 48025" d="M75.83,42.177v7.28H69.175v-7.28H62.023V35.444h7.152V28.161H75.83v7.283h7.15v6.733Z" fill="#fff"/>
    <path id="Path_48026" data-name="Path 48026" d="M75.822,42.169v7.263H69.184V42.169H62.048V35.452h7.136V28.186h6.638v7.266h7.133v6.717Z" fill="#fff"/>
  </g>
</svg>
