<svg id="Group_40022" data-name="Group 40022" xmlns="http://www.w3.org/2000/svg" xmlns:xlink="http://www.w3.org/1999/xlink" width="36" height="36" viewBox="0 0 36 36">
  <defs>
    <clipPath id="clip-path">
      <rect id="Rectangle_429" data-name="Rectangle 429" width="36" height="36" fill="#fff"/>
    </clipPath>
  </defs>
  <g id="Group_40021" data-name="Group 40021" clip-path="url(#clip-path)">
    <path id="Path_48053" data-name="Path 48053" d="M36,23.228c0-2.66-2.677-3.026-5.569-3.026a36.4,36.4,0,0,0-4.4.544l-.284.048-.225-.177a45.152,45.152,0,0,1-3.773-3.258c-1.179-1.178-2.253-2.344-3.193-3.465l-.23-.275.11-.34c1.25-3.864,2.025-6.5,2.025-7.711C20.461.426,18.562,0,16.447,0c-2.664,0-4.015,1.924-4.015,5.717,0,2.165,1.229,4.86,3.653,8.011l.209.271-.106.326q-.768,2.343-1.749,5.276l-.4,1.22c-.386,1.156-.82,2.273-1.289,3.324l-.1.227-.226.1c-.356.159-.7.32-1.038.487-1.208.6-2.357,1.149-3.427,1.656C3.131,28.9,0,30.38,0,33.04,0,34.869,2.083,36,4.015,36c2.463,0,6.64-3.434,9.858-10l.11-.226.233-.092A63.585,63.585,0,0,1,25,22.774l.284-.053.229.176c4.437,3.411,6,3.779,6.472,3.779,2.7,0,4.014-1.128,4.014-3.448M10.072,28.954C7.7,32.389,5.231,34.187,4.015,34.187a2.94,2.94,0,0,1-2.057-.739l-.145-.178v-.23c0-1.439,2.6-2.742,6.834-4.749l2.8-1.324Zm6.149-18.18a10.049,10.049,0,0,1-1.976-5.057c0-2.7.679-3.9,2.2-3.9,1.768,0,2.2.737,2.2,3.755a23.779,23.779,0,0,1-1.266,5.047l-.411,1.314Zm5.9,10.726c-2.114.46-4.079.977-5.844,1.536l-1.248.4.442-1.232c.1-.264.188-.533.277-.8l1.907-5.737.745.821c.631.694,1.325,1.42,2.064,2.16.269.269.973.909,1.939,1.733l.993.847Zm7,1.77-1.448-.986,1.741-.193c.471-.052.819-.077,1.014-.077,2.462,0,3.36.228,3.694.938l.063.131v.145c0,1.235-.507,1.634-2.087,1.645h-.07l-.069-.015c-.184-.039-.74-.159-2.838-1.588" fill="#fff"/>
  </g>
</svg>
