<svg xmlns="http://www.w3.org/2000/svg" width="373.027" height="60" viewBox="0 0 373.027 60">
  <g id="Group_40341" data-name="Group 40341" transform="translate(-592.999 -231)">
    <g id="Group_40240" data-name="Group 40240" transform="translate(974.951 195.18)">
      <path id="Path_62327" data-name="Path 62327" d="M-363.121,81.2l-12.654-12.1h-1.586V81.2h-4.591V52.46h4.591V64.9h1.244l12.568-12.439h5.705l-14.37,14.413L-356.9,81.2Z" fill="#fff"/>
      <path id="Path_62328" data-name="Path 62328" d="M-334.452,71.635H-351.7a7.024,7.024,0,0,0,2.144,4.589,6.1,6.1,0,0,0,4.291,1.715A6.447,6.447,0,0,0-339,74.251l3.989.857a9.976,9.976,0,0,1-3.968,5A11.521,11.521,0,0,1-345.26,81.8a10.555,10.555,0,0,1-7.657-3.131,10.8,10.8,0,0,1-3.2-8.064,10.922,10.922,0,0,1,3.2-8.129,10.721,10.721,0,0,1,7.828-3.153,10.15,10.15,0,0,1,7.4,3.025,10.989,10.989,0,0,1,3.238,7.742Zm-14.754-6.992a5.912,5.912,0,0,0-2.36,3.817h12.525a6.43,6.43,0,0,0-2.145-3.861,5.984,5.984,0,0,0-3.9-1.329A6.847,6.847,0,0,0-349.206,64.643Z" fill="#fff"/>
      <path id="Path_62329" data-name="Path 62329" d="M-308.7,81.2h-4.461V78.755a10.193,10.193,0,0,1-7.72,3.045,10.09,10.09,0,0,1-7.443-3.152,11.031,11.031,0,0,1-3.11-8.087A11,11,0,0,1-328.3,62.5a10.08,10.08,0,0,1,7.422-3.175,10.193,10.193,0,0,1,7.72,3.046V59.924h4.461Zm-6.563-5.384a6.99,6.99,0,0,0,2.1-5.255,6.988,6.988,0,0,0-2.1-5.253,6.808,6.808,0,0,0-4.89-2.038,6.712,6.712,0,0,0-4.975,1.994,7.206,7.206,0,0,0-1.973,5.3,7.205,7.205,0,0,0,1.973,5.3,6.709,6.709,0,0,0,4.975,1.995A6.812,6.812,0,0,0-315.265,75.816Z" fill="#fff"/>
      <path id="Path_62330" data-name="Path 62330" d="M-299.251,74.551a3.5,3.5,0,0,0,1.652,2.7,6.8,6.8,0,0,0,3.667.9,5.376,5.376,0,0,0,3.066-.772,2.378,2.378,0,0,0,1.137-2.059q0-1.888-2.874-2.53l-4.631-.945q-5.793-1.286-5.791-5.791a5.977,5.977,0,0,1,2.294-4.867,9.392,9.392,0,0,1,6.113-1.867,10.076,10.076,0,0,1,5.984,1.694,7.2,7.2,0,0,1,2.981,4.441l-4.247.9a3.772,3.772,0,0,0-1.544-2.531,5.455,5.455,0,0,0-3.3-.943,4.325,4.325,0,0,0-2.808.793,2.476,2.476,0,0,0-.965,1.994q0,1.8,2.574,2.4l5.06,1.114a7.861,7.861,0,0,1,4.075,2.038,5.074,5.074,0,0,1,1.459,3.711A5.924,5.924,0,0,1-287.8,80a10.744,10.744,0,0,1-6.521,1.8,11.988,11.988,0,0,1-6.392-1.608,6.141,6.141,0,0,1-3-4.7Z" fill="#fff"/>
      <path id="Path_62331" data-name="Path 62331" d="M-275.458,92.516a17.941,17.941,0,0,1-3.3-4.707q-4.408-9.516,2.8-22.532a57.585,57.585,0,0,1,7.011-9.963,71.886,71.886,0,0,1,9.013-8.763,67.517,67.517,0,0,1,9.764-6.659,32.979,32.979,0,0,1,9.463-3.655,13.038,13.038,0,0,1,3.854-.4,8.407,8.407,0,0,1,2.955.6q5.205,2.4,2.3,11.116a53.211,53.211,0,0,1-3.756,8.213,29.1,29.1,0,0,1-4.556,6.307q-2.7,2.805-3.9,1.7-1-1,1-3.205,1.3-1.3,1.6-.2c0,.2.05.286.15.251a3.587,3.587,0,0,0,.751-.651,28.9,28.9,0,0,0,2.6-3.3q1.3-1.9,2.453-3.956a43.6,43.6,0,0,0,2.052-4.156,31.259,31.259,0,0,0,1.4-3.907,20.406,20.406,0,0,0,.252-2.553,5.716,5.716,0,0,0-.252-2.153,4.253,4.253,0,0,0-3.6-2.9,15.469,15.469,0,0,0-7.31,1,36.174,36.174,0,0,0-7.761,3.7,63.311,63.311,0,0,0-8.012,5.91,78.767,78.767,0,0,0-7.511,7.409,67.074,67.074,0,0,0-6.258,8.212,41.324,41.324,0,0,0-3.554,6.609,35.016,35.016,0,0,0-2.153,6.409,17.538,17.538,0,0,0-.4,4.157,12.217,12.217,0,0,0,.5,3.955q2.3,8.511,10.115,9.814a16,16,0,0,0,1.7.151q1.1.049,2.3,0c.8-.035,1.568-.086,2.3-.151s1.3-.134,1.7-.2a39.35,39.35,0,0,0,8.262-3.1,53.233,53.233,0,0,0,8.662-5.407q1.2-.9,2.4-1.9t2.553-2.252q1.353-1.252,3.154-2.955t4.207-4.106q2-2,3.3-3.253c.866-.835,1.553-1.486,2.054-1.954a3.938,3.938,0,0,1,1.051-.8c.2-.066.3-.033.3.1a7.718,7.718,0,0,1-1.052,1.2q-1.053,1.1-2.705,2.7t-3.6,3.556Q-233.1,77.8-234.9,79.548t-3.155,3.054q-1.352,1.3-1.853,1.7-9.912,8.208-19.327,10.713a30.419,30.419,0,0,1-4.357.7,20.593,20.593,0,0,1-4.055,0A12.606,12.606,0,0,1-275.458,92.516Z" fill="#fff"/>
      <path id="Path_62332" data-name="Path 62332" d="M-224.286,69.484a4.67,4.67,0,0,0-.45.9q-.354.8-.751,1.9t-.753,2.255q-.351,1.152-.55,1.851a10.364,10.364,0,0,0-.3,4.607q.6,2.2,3.5.7,4.005-2.1,10.114-9.514a21.2,21.2,0,0,1,1.8-2.153c.668-.7,1.067-1.052,1.2-1.052q.5-.4-.7,1.5-1,1.5-2.454,3.306t-2.955,3.5a37.592,37.592,0,0,1-3,3.054,28.082,28.082,0,0,1-2.505,2.052q-3.1,2-5.006,1.1a4.385,4.385,0,0,1-1.8-2.2q-1.1-3.1,1.4-9.812a61.393,61.393,0,0,1,3.1-6.71,69.24,69.24,0,0,1,4.207-7.009q1.5-2.2,3.154-4.207t3.154-3.505a20.92,20.92,0,0,1,2.8-2.4,6.7,6.7,0,0,1,2.2-1.1h.3c.666,0,1,.4,1,1.2a6.084,6.084,0,0,1-.751,2.354q-.752,1.554-1.9,3.505t-2.6,4.106q-1.455,2.153-2.955,4.055-.7.9-1.7,1.952t-2.052,2.054q-1.053,1-1.954,1.753a12.555,12.555,0,0,1-1.4,1.051q-.4.2-.8.451A3.54,3.54,0,0,0-224.286,69.484Zm5.307-10.115a18.723,18.723,0,0,0-1.3,2.054q-.7,1.251-1.352,2.451c-.435.8-.8,1.5-1.1,2.1a6.18,6.18,0,0,0-.45,1c0,.135.333-.05,1-.55s1.467-1.152,2.4-1.952a46.331,46.331,0,0,0,3.606-3.606,43.028,43.028,0,0,0,3.3-4.106,47.084,47.084,0,0,0,3.655-6.058q1.352-2.752.851-3.255l-.1-.1q-.5-.1-2.2,1.451a36.286,36.286,0,0,0-3.3,3.456q-1.1,1.3-2.5,3.3T-218.979,59.369Z" fill="#fff"/>
      <path id="Path_62333" data-name="Path 62333" d="M-210.967,78.9q-2,1.1-2.954,0t-.25-3.405a12.057,12.057,0,0,1,1.1-2.553,31.654,31.654,0,0,1,1.7-2.754,19.048,19.048,0,0,1,1.753-2.2q.849-.9,1.352-.9a.966.966,0,0,1,.7.3.867.867,0,0,1,.3.6,4.363,4.363,0,0,1-1,1.7q-1,1.4-1.853,2.8t-1.4,2.553a11.639,11.639,0,0,0-.751,1.9c-.135.5-.1.751.1.751a2.615,2.615,0,0,0,1.051-.451,18.377,18.377,0,0,0,1.553-1.051q.6-.5,2-1.8t2.853-2.754q1.452-1.452,2.653-2.754t1.6-1.8q1.2-1.6,1.9-1.2a.914.914,0,0,1,.2.853,7.814,7.814,0,0,1-.9,1.952,34.364,34.364,0,0,0-3.406,7.361q-.8,2.852.5,2.853a5.177,5.177,0,0,0,1.853-.7,24.386,24.386,0,0,0,2.655-1.6c.4-.334.965-.817,1.7-1.451s1.468-1.253,2.2-1.853q3.1-2.906,4.256-3.907a13.261,13.261,0,0,1,1.352-1.1.292.292,0,0,1,.2.1,6.155,6.155,0,0,1-1.252,1.5q-1.252,1.3-2.9,2.9t-3.3,3.1q-1.653,1.5-2.553,2.2-3.606,2.706-5.309,2.1a2.291,2.291,0,0,1-1.25-1.353,4.513,4.513,0,0,1-.251-2.454,13.065,13.065,0,0,1,.5-2.1c.265-.866.566-1.7.9-2.5.133-.267.1-.334-.1-.2a14.533,14.533,0,0,0-1.5,1.5A49.538,49.538,0,0,1-210.967,78.9Z" fill="#fff"/>
      <path id="Path_62334" data-name="Path 62334" d="M-168.508,68.982a7.973,7.973,0,0,1-1.5,1.1q-1,.6-2.253,1.252a27.65,27.65,0,0,1-2.654,1.2q-1.4.55-2.6.952a11.155,11.155,0,0,0-1.451.6,1.606,1.606,0,0,0-.552.5,14.8,14.8,0,0,1-3.355,3.955,14.561,14.561,0,0,1-4.055,2.655,6.938,6.938,0,0,1-2.1.351,4.125,4.125,0,0,1-1.9-.252,2.384,2.384,0,0,1-.9-.65,1.424,1.424,0,0,1-.4-.951c0-.2-.064-.234-.2-.1a7.589,7.589,0,0,0-.7,1c-.4.534-.682.9-.85,1.1a1.242,1.242,0,0,1-.55.4q-.5,0-.5-.2-.2-.3.45-2.052t1.652-4.057q1.5-3.4,3.856-7.61t4.956-8.262q2.6-4.054,5.159-7.56a47.364,47.364,0,0,1,4.556-5.508,5.032,5.032,0,0,1,1-.85,1.543,1.543,0,0,1,.7-.15q1.1,0,1.1,1,0,.4-1.5,2a68.09,68.09,0,0,0-7.211,9.113q-3.806,5.61-8.31,13.118-1.3,2.205-2.154,3.756c-.565,1.036-.784,1.486-.651,1.352q.3-.3,1.8-2.3a36.658,36.658,0,0,1,3.255-3.805,20.688,20.688,0,0,1,3.055-2.7q3-1.9,4.606-.7,1.9,1.5.2,6.009c-.068.2.15.234.65.1a18.406,18.406,0,0,0,1.9-.652q1.15-.45,2.5-1.051a25.762,25.762,0,0,0,2.555-1.3q.8-.4,1.451-.751a2.541,2.541,0,0,1,.852-.351l.5-.2Zm-13.32,5.508-.7.1a23.141,23.141,0,0,0-3.1.751,18.777,18.777,0,0,0-2.6.951,6.383,6.383,0,0,0-1.1.6,4.36,4.36,0,0,0-1,.9,3.884,3.884,0,0,0-.751.751,1.509,1.509,0,0,0-.15.751.786.786,0,0,0,.6.8,2.775,2.775,0,0,0,2.6-.1,3.387,3.387,0,0,0,.952-.45q.548-.351,1.051-.652.8-.6,2.1-1.8a11,11,0,0,0,1.8-2Zm1.1-1.6a9.357,9.357,0,0,0,1-2,5.728,5.728,0,0,0,.4-1.9,2.572,2.572,0,0,0-.1-.85,1.36,1.36,0,0,0-.3-.451,3.1,3.1,0,0,1-.349-.2.62.62,0,0,0-.351-.1,5.263,5.263,0,0,0-1.9.6,7.143,7.143,0,0,0-1.4.9q-.6.5-1.7,1.6-.5.6-1.252,1.4t-1.4,1.6q-.652.8-1.252,1.5a6.169,6.169,0,0,0-.8,1.1c0,.068.2,0,.6-.2a7.27,7.27,0,0,1,1.8-.9,24.658,24.658,0,0,1,5.307-1.3c.6-.133,1-.233,1.2-.3A.9.9,0,0,0-180.726,72.887Z" fill="#fff"/>
    </g>
    <path id="Path_62337" data-name="Path 62337" d="M17849.664-3627.607v40" transform="translate(-17022.664 3868.107)" fill="none" stroke="#e2e2e2" stroke-width="1"/>
    <g id="Group_40266" data-name="Group 40266" transform="translate(1124.908 198.555)">
      <g id="Group_40255" data-name="Group 40255">
        <path id="Path_62360" data-name="Path 62360" d="M-275.98,71.759c0-3.523,5.392-9.406,12.072-12.408a9.981,9.981,0,0,0,1.225-.644c0-.091-1.93-.766-7.966-1.991-3.309-.644-7.078-1.348-7.078-3.831a4.785,4.785,0,0,1,.95-2.512c3.4-5.146,10.908-10.539,16.974-12.163a17.177,17.177,0,0,1,4.105-.582c2.911,0,4.167,1.1,4.167,2.85,0,3.8-5.882,10.232-7.231,10.232a.732.732,0,0,1-.734-.766l.03-.214c.061-.276.092-.276,1.165-.552.795-.214,1.408-.766,2.726-2.236,1.5-1.776,3.523-4.534,3.523-6.526,0-1.379-.98-2.359-3.8-2.359-3.432,0-7.967,1.746-12.409,4.749-4.5,3.125-8.763,7.874-8.824,9.957,0,2.053,2.849,2.544,7.659,3.554,5.485,1.134,5.516,1.195,7.691,2.053a11.645,11.645,0,0,1,3.584-.7c1.747.032,2.268.307,2.268.522,0,.061-.093.122-.215.122a15.909,15.909,0,0,0-1.869-.215,9.683,9.683,0,0,0-3.094.613c1.1.827,2.2,1.685,2.236,3.309,0,2.359-3.248,6.741-7.292,9.621-2.205,1.562-5.208,2.757-7.016,2.757C-275,74.24-275.98,73.413-275.98,71.759Zm8.855-.275c2.573-1.656,7.629-6.5,7.629-9.5a2.372,2.372,0,0,0-.093-.674,4.481,4.481,0,0,0-2.42-2.205l-.092.03a32.267,32.267,0,0,0-6.557,3.585c-2.42,1.746-6.74,6.127-6.74,8.916a2.115,2.115,0,0,0,2.39,2.052A12.5,12.5,0,0,0-267.125,71.484Z" fill="#fff"/>
        <path id="Path_62361" data-name="Path 62361" d="M-273.131,74.577c-2.017-.165-3.032-1.113-3.032-2.818,0-3.782,5.691-9.659,12.18-12.575.378-.181.7-.344.914-.458a67.49,67.49,0,0,0-7.616-1.831l-.11-.021c-3.335-.648-7.114-1.384-7.114-3.989a4.937,4.937,0,0,1,.979-2.612c3.452-5.223,10.954-10.6,17.08-12.239a17.229,17.229,0,0,1,4.152-.589c3.6,0,4.35,1.649,4.35,3.033,0,3.766-5.873,10.415-7.414,10.415a.913.913,0,0,1-.917-.949l.031-.24c.087-.391.193-.418,1.208-.679l.093-.024c.761-.2,1.353-.75,2.636-2.181,1.584-1.875,3.476-4.512,3.476-6.4,0-1.465-1.182-2.176-3.615-2.176-3.386,0-7.871,1.719-12.307,4.717-4.516,3.134-8.684,7.811-8.743,9.811,0,1.8,2.568,2.337,6.823,3.226l.69.144c5.254,1.086,5.5,1.185,7.441,1.951l.234.093c.047-.014.152-.049.253-.084a10.046,10.046,0,0,1,3.31-.616c1.627.029,2.45.267,2.45.705,0,.171-.174.305-.4.305-.283-.033-.512-.068-.725-.1a7.3,7.3,0,0,0-1.144-.115,8.635,8.635,0,0,0-2.7.5,4.1,4.1,0,0,1,2.025,3.238c0,2.454-3.374,6.928-7.369,9.773C-268.256,73.377-271.318,74.577-273.131,74.577ZM-255.7,37.81a16.912,16.912,0,0,0-4.06.577c-6.048,1.62-13.458,6.929-16.867,12.087a4.606,4.606,0,0,0-.919,2.411c0,2.3,3.623,3.009,6.819,3.63l.111.022c2.44.5,8.114,1.7,8.114,2.17,0,.12,0,.175-1.33.809-5.651,2.54-11.967,8.315-11.967,12.243,0,1.523.852,2.3,2.681,2.453,1.732,0,4.7-1.172,6.895-2.724,3.911-2.785,7.215-7.123,7.215-9.472-.03-1.562-1.114-2.376-2.163-3.163l-.284-.213.338-.108a9.768,9.768,0,0,1,3.15-.621,7.707,7.707,0,0,1,1.2.119c.179.028.37.057.582.084a5.3,5.3,0,0,0-1.968-.266,9.717,9.717,0,0,0-3.189.6,1.467,1.467,0,0,1-.392.109l-.067-.013-.281-.111c-1.911-.756-2.157-.853-7.38-1.933l-.691-.144c-4.436-.927-7.114-1.487-7.114-3.589.063-2.139,4.223-6.86,8.9-10.108,4.5-3.039,9.056-4.781,12.513-4.781,2.641,0,3.981.855,3.981,2.542,0,2-1.939,4.718-3.566,6.644-1.34,1.495-1.966,2.065-2.819,2.295l-.1.025c-.9.231-.9.231-.939.389l-.027.2a.545.545,0,0,0,.553.558c1.231,0,7.048-6.334,7.048-10.049C-251.714,38.708-253.054,37.81-255.7,37.81Zm-17.31,36.062a2.292,2.292,0,0,1-2.573-2.235c0-2.93,4.439-7.349,6.816-9.064a32.053,32.053,0,0,1,6.625-3.616l.132-.034c.691,0,2.265,1.413,2.592,2.327a2.59,2.59,0,0,1,.1.735c0,3.079-5.019,7.918-7.711,9.651A12.664,12.664,0,0,1-273.008,73.872Zm11.025-14.582-.062.02a32.218,32.218,0,0,0-6.5,3.558c-2.252,1.625-6.665,6.006-6.665,8.769,0,1.135.867,1.869,2.207,1.869a12.265,12.265,0,0,0,5.779-2.173l.005,0c2.561-1.647,7.545-6.439,7.545-9.345a2.228,2.228,0,0,0-.085-.624A4.52,4.52,0,0,0-261.983,59.29Z" fill="#fff"/>
      </g>
      <g id="Group_40256" data-name="Group 40256">
        <path id="Path_62362" data-name="Path 62362" d="M-256.635,66.826a8.043,8.043,0,0,1,1.593-4.258.527.527,0,0,1,.368-.184c.183,0,.306.184.306.429,0,.552-.521.857-1.042,1.961a5.9,5.9,0,0,0-.674,2.267c0,.612.276.889.889.919,2.206,0,6.1-2.757,7.567-3.922a1.3,1.3,0,0,1,.583-.307c.091,0,.091.032.091.063,0,.122-.122.305-.459.551-1.471,1.1-5.546,4.075-7.66,4.075C-256.145,68.358-256.635,67.93-256.635,66.826Zm2.971-6.832c0-.275.429-.429.705-.429.307,0,.522.154.522.4a.66.66,0,0,1-.614.614A.686.686,0,0,1-253.664,59.994Z" fill="#fff"/>
        <path id="Path_62363" data-name="Path 62363" d="M-255.073,68.6c-1.21-.07-1.745-.618-1.745-1.777a8.187,8.187,0,0,1,1.647-4.388.7.7,0,0,1,.5-.237c.283,0,.488.257.488.612a1.7,1.7,0,0,1-.424.975,6.843,6.843,0,0,0-.635,1.064,5.644,5.644,0,0,0-.656,2.189c0,.512.194.711.714.736,2.008,0,5.626-2.44,7.446-3.882a1.414,1.414,0,0,1,.7-.347.24.24,0,0,1,.274.246c0,.208-.175.437-.534.7C-249.806,66.367-253.185,68.6-255.073,68.6Zm.4-6.036a.364.364,0,0,0-.239.13,7.853,7.853,0,0,0-1.539,4.129c0,.97.377,1.353,1.389,1.412.98,0,2.608-.718,4.707-2.061-1.686,1.049-3.555,1.966-4.839,1.966a.983.983,0,0,1-1.071-1.1,6.137,6.137,0,0,1,.691-2.346,7.3,7.3,0,0,1,.664-1.117,1.391,1.391,0,0,0,.36-.765C-254.551,62.675-254.6,62.567-254.674,62.567Zm7.315,1.5c-.047.032-.1.069-.156.113-.1.079-.2.161-.314.245l.306-.228C-247.458,64.151-247.4,64.108-247.359,64.069Zm-5.692-3.309a.858.858,0,0,1-.795-.766c0-.4.515-.612.887-.612.415,0,.705.239.705.581A.841.841,0,0,1-253.051,60.76Zm.092-1.012c-.239,0-.522.134-.522.246a.513.513,0,0,0,.43.4.482.482,0,0,0,.431-.431C-252.62,59.758-252.9,59.748-252.959,59.748Z" fill="#fff"/>
      </g>
      <g id="Group_40257" data-name="Group 40257">
        <path id="Path_62364" data-name="Path 62364" d="M-253.475,85.21c0-1.747,1.226-4.5,2.972-6.956,2.481-3.37,5.944-6.188,8.732-8.64a.532.532,0,0,0,.245-.428,1.329,1.329,0,0,0-1.287-1.348,9.427,9.427,0,0,0-1.47.214c-.154,0-.215-.061-.215-.246.061-.734,3.278-4.075,3.278-5.668,0-.336-.153-.643-.429-.643a13.818,13.818,0,0,0-3.891,2.236c-.765.644-1.133.92-1.378.92-.214,0-.368-.245-.368-.552.03-.368.092-.459,1.134-.98,1.562-.766,3.432-2.176,4.534-2.176.552,0,.888.338.92,1.288,0,1.532-1.593,3.094-2.727,4.994h.551a2.13,2.13,0,0,1,1.961,1.347c.03.185.03.338.153.338l.153-.092c1.133-.827,6.374-4.719,7.6-5.055h.153c.153,0,.153.031.183.092,0,.061-.092.153-.214.214a72.361,72.361,0,0,0-7.659,4.841c-.338.215-.307.337-.338.674-.091,4.381-5.759,16.392-9.436,17.494a5.061,5.061,0,0,1-1.2.184A1.889,1.889,0,0,1-253.475,85.21Zm12.011-15.167c0-.152,0-.276-.093-.276l-.122.061c-1.441.92-9.436,8.212-10.969,13.665a8.13,8.13,0,0,0-.276,1.778,1.342,1.342,0,0,0,1.532,1.439C-247.164,86.71-241.5,73.475-241.464,70.043Z" fill="#fff"/>
        <path id="Path_62365" data-name="Path 62365" d="M-251.514,87.445a2.074,2.074,0,0,1-2.144-2.235c0-1.727,1.18-4.5,3.006-7.062a49.683,49.683,0,0,1,7.593-7.653c.4-.347.789-.686,1.167-1.018.17-.141.184-.218.184-.291a1.152,1.152,0,0,0-1.105-1.165,4.145,4.145,0,0,0-.877.11c-.168.033-.35.069-.566.1-.224.011-.425-.073-.425-.427a5.918,5.918,0,0,1,1.17-1.9c.89-1.206,2.108-2.857,2.108-3.769,0-.223-.086-.46-.246-.46a14,14,0,0,0-3.781,2.2c-.836.7-1.189.955-1.488.955s-.551-.315-.551-.734c.04-.488.178-.614,1.235-1.143.5-.248,1.049-.567,1.576-.877a7.606,7.606,0,0,1,3.04-1.318c.709,0,1.07.479,1.1,1.464,0,1.124-.8,2.248-1.642,3.438-.316.445-.64.9-.94,1.38h.224a2.3,2.3,0,0,1,2.136,1.477l.018.107.006.042.012-.007.341-.251c2.639-1.935,6.266-4.539,7.3-4.825l.048-.007h.154c.187,0,.279.05.342.183l.024.093c0,.162-.163.3-.315.378a72.366,72.366,0,0,0-7.632,4.824c-.234.149-.237.193-.256.436l-.009.108c-.092,4.421-5.786,16.519-9.566,17.653A5.358,5.358,0,0,1-251.514,87.445Zm4.3-12.666a31.448,31.448,0,0,0-3.136,3.584c-1.784,2.5-2.937,5.191-2.937,6.847a1.71,1.71,0,0,0,1.778,1.869,4.988,4.988,0,0,0,1.15-.178c3.57-1.071,9.21-13.08,9.3-17.321l.009-.116a.873.873,0,0,1,.112-.434.566.566,0,0,1-.137-.352l-.012-.076a1.953,1.953,0,0,0-1.78-1.194h-.873l.165-.276c.353-.591.745-1.145,1.125-1.681.846-1.19,1.576-2.219,1.576-3.22-.033-.973-.391-1.1-.737-1.1a7.661,7.661,0,0,0-2.855,1.269c-.533.312-1.084.636-1.6.888-1.006.5-1.011.56-1.033.831,0,.205.1.354.186.354a3.977,3.977,0,0,0,1.261-.877,13.819,13.819,0,0,1,3.984-2.277h0c.377,0,.633.347.633.824,0,1.032-1.209,2.67-2.18,3.986a7.7,7.7,0,0,0-1.1,1.7.2.2,0,0,0,.009.062c.206-.044.382-.08.545-.112a4.521,4.521,0,0,1,.949-.117,1.521,1.521,0,0,1,1.47,1.531.61.61,0,0,1-.147.405c.209.045.209.306.209.452v0c-.017,1.805-1.515,6.068-3.411,9.7-1.392,2.668-4.113,7.145-6.7,7.145a1.52,1.52,0,0,1-1.715-1.622,8.33,8.33,0,0,1,.281-1.82C-252.029,80.614-249.607,77.4-247.219,74.779Zm5.572-4.754c-1.565,1.048-9.338,8.227-10.825,13.518a7.944,7.944,0,0,0-.269,1.728c0,.834.454,1.257,1.349,1.257,1.749,0,4.073-2.533,6.376-6.949,1.873-3.591,3.352-7.78,3.369-9.536Z" fill="#fff"/>
      </g>
      <g id="Group_40258" data-name="Group 40258">
        <path id="Path_62366" data-name="Path 62366" d="M-233.95,66.06a3.871,3.871,0,0,1,.122-.827c.583-2.053,3.768-5.27,5.178-5.27.429.061.643.276.643.858,0,1.41-2.787,3.554-4.167,3.554l-.276-.03c-.336,0-.4.091-.612.551a3.786,3.786,0,0,0-.245,1.256c0,.981.735,1.5,1.9,1.5,3.094,0,6.158-2.42,7.966-3.859a.394.394,0,0,1,.214-.093c.091,0,.153.03.153.093a13.961,13.961,0,0,1-3.83,2.971,8.96,8.96,0,0,1-4.351,1.409C-232.879,68.174-233.95,67.47-233.95,66.06Zm2.88-2.971c1.5-.951,2.236-1.839,2.236-2.175,0-.093-.061-.124-.153-.124a1.867,1.867,0,0,0-.827.4,10.089,10.089,0,0,0-2.451,2.481l.061.031A7.712,7.712,0,0,0-231.07,63.089Z" fill="#fff"/>
        <path id="Path_62367" data-name="Path 62367" d="M-231.255,68.357c-1.8,0-2.878-.858-2.878-2.3a4,4,0,0,1,.126-.864c.605-2.133,3.857-5.416,5.357-5.416.579.081.826.4.826,1.041,0,1.5-2.852,3.737-4.35,3.737l-.295-.031c-.2,0-.22,0-.427.446a3.583,3.583,0,0,0-.228,1.179c0,1.147,1.076,1.318,1.717,1.318,3.057,0,6.176-2.484,7.852-3.819a.573.573,0,0,1,.328-.133c.232,0,.336.139.336.276-.052.378-1.865,1.942-3.921,3.129A9.178,9.178,0,0,1-231.255,68.357Zm2.579-8.213c-1.332,0-4.418,3.171-4.976,5.139a3.677,3.677,0,0,0-.115.777c0,1.681,1.574,1.932,2.512,1.932a8.838,8.838,0,0,0,4.261-1.386,19.807,19.807,0,0,0,3.251-2.339c-1.771,1.4-4.717,3.569-7.664,3.569-1.3,0-2.083-.629-2.083-1.684a3.943,3.943,0,0,1,.256-1.317c.224-.483.33-.673.784-.673l.3.031c1.283,0,3.965-2.083,3.965-3.372C-228.189,60.31-228.36,60.189-228.676,60.144Zm-3.528,3.74-.083-.019-.161-.082V63.67c0-.419,1.836-2.168,2.533-2.633a1.932,1.932,0,0,1,.928-.43.3.3,0,0,1,.336.307c0,.5-.976,1.477-2.321,2.329l-.007,0-.245.142C-231.925,63.8-232.087,63.884-232.2,63.884Zm3.174-2.9a2.087,2.087,0,0,0-.68.359,13.329,13.329,0,0,0-2.107,1.97l.41-.237.242-.14A5.741,5.741,0,0,0-229.03,60.981Z" fill="#fff"/>
      </g>
      <g id="Group_40259" data-name="Group 40259">
        <path id="Path_62368" data-name="Path 62368" d="M-214.668,67.562a4.984,4.984,0,0,1,.765-2.3c1.042-2.053.674-3.677,3-3.707a1.428,1.428,0,0,1,1.593,1.562,5,5,0,0,1-.8,2.39c-.52.95-2.3,3.217-3.584,3.217A1.041,1.041,0,0,1-214.668,67.562Zm4.136-2.39a3.8,3.8,0,0,0,.612-1.839c0-.734-.368-1.163-.919-1.163-.307,0-.337.03-.337.122v.153a1.358,1.358,0,0,1-.521.95,10,10,0,0,0-2.237,4.289c.031.215-.03.4.461.4C-212.739,68.052-210.931,65.816-210.532,65.172Zm-.553-4.9a1.242,1.242,0,0,1,.981-.981c.153.032.214.123.214.368a1.188,1.188,0,0,1-.857,1.133C-210.961,60.79-211.085,60.577-211.085,60.27Zm1.961.061a1.291,1.291,0,0,1,.981-.949c.123,0,.184.091.184.275-.061.674-.4,1.133-.827,1.133C-209,60.79-209.124,60.577-209.124,60.331Z" fill="#fff"/>
        <path id="Path_62369" data-name="Path 62369" d="M-213.688,68.909a1.223,1.223,0,0,1-1.163-1.347,5.277,5.277,0,0,1,.791-2.391,11.189,11.189,0,0,0,.621-1.572c.41-1.23.734-2.2,2.536-2.224a1.6,1.6,0,0,1,1.779,1.744,5.156,5.156,0,0,1-.823,2.483C-210.408,66.445-212.232,68.909-213.688,68.909Zm2.788-7.169c-1.54.02-1.786.756-2.192,1.975a11.418,11.418,0,0,1-.647,1.632,4.767,4.767,0,0,0-.746,2.215c0,.578.327.981.8.981,1.205,0,2.937-2.233,3.423-3.122a4.8,4.8,0,0,0,.775-2.3A1.248,1.248,0,0,0-210.9,61.74Zm-2.567,6.525c-.5,0-.613-.183-.64-.479l-.008-.075a9.95,9.95,0,0,1,2.29-4.448c.466-.464.466-.73.466-.818v-.153c0-.305.288-.305.52-.305.67,0,1.1.529,1.1,1.346a3.988,3.988,0,0,1-.637,1.931l0,0c-.361.583-2.231,2.962-3.089,3Zm2.474-5.908v.088a1.591,1.591,0,0,1-.575,1.079,9.916,9.916,0,0,0-2.183,4.16.506.506,0,0,1,.009.07c.011.129.013.145.269.145.576-.024,2.31-2.058,2.784-2.821a3.641,3.641,0,0,0,.586-1.745c0-.614-.275-.98-.736-.98C-210.912,62.353-210.96,62.355-210.993,62.357Zm2.207-1.384a.571.571,0,0,1-.521-.642,1.443,1.443,0,0,1,1.164-1.132c.086,0,.367.033.367.458C-207.847,60.451-208.253,60.973-208.786,60.973Zm.629-1.421c-.24.012-.784.494-.784.779,0,.111.041.276.155.276.328,0,.594-.4.645-.966A.2.2,0,0,0-208.157,59.552Zm-2.59,1.421c-.316,0-.52-.276-.52-.7a1.412,1.412,0,0,1,1.163-1.163.474.474,0,0,1,.4.55A1.36,1.36,0,0,1-210.747,60.973Zm.606-1.5c-.214,0-.761.458-.761.8,0,.125.033.337.155.337a1.032,1.032,0,0,0,.674-.95C-210.073,59.483-210.1,59.477-210.141,59.469Z" fill="#fff"/>
      </g>
      <g id="Group_40260" data-name="Group 40260">
        <path id="Path_62370" data-name="Path 62370" d="M-213.256,85.21c0-1.747,1.226-4.5,2.972-6.956,2.481-3.37,5.944-6.188,8.732-8.64a.529.529,0,0,0,.245-.428,1.329,1.329,0,0,0-1.287-1.348,9.456,9.456,0,0,0-1.471.214c-.153,0-.214-.061-.214-.246.061-.734,3.278-4.075,3.278-5.668,0-.336-.153-.643-.429-.643a13.818,13.818,0,0,0-3.891,2.236c-.766.644-1.134.92-1.378.92-.215,0-.368-.245-.368-.552.03-.368.092-.459,1.134-.98,1.562-.766,3.431-2.176,4.534-2.176.551,0,.888.338.919,1.288,0,1.532-1.593,3.094-2.726,4.994h.551a2.131,2.131,0,0,1,1.961,1.347c.03.185.03.338.153.338l.154-.092c1.132-.827,6.371-4.719,7.6-5.055h.154c.153,0,.153.031.183.092,0,.061-.091.153-.214.214a72.361,72.361,0,0,0-7.659,4.841c-.338.215-.307.337-.338.674-.091,4.381-5.759,16.392-9.437,17.494a5.053,5.053,0,0,1-1.2.184A1.889,1.889,0,0,1-213.256,85.21Zm12.01-15.167c0-.152,0-.276-.092-.276l-.122.061c-1.441.92-9.436,8.212-10.969,13.665a8.13,8.13,0,0,0-.276,1.778,1.342,1.342,0,0,0,1.533,1.439C-206.945,86.71-201.277,73.475-201.246,70.043Z" fill="#fff"/>
        <path id="Path_62371" data-name="Path 62371" d="M-211.3,87.445a2.073,2.073,0,0,1-2.143-2.235c0-1.727,1.18-4.5,3.006-7.062A49.594,49.594,0,0,1-202.84,70.5c.4-.347.789-.686,1.166-1.018.171-.141.184-.218.184-.291a1.151,1.151,0,0,0-1.1-1.165,4.154,4.154,0,0,0-.878.11c-.168.033-.35.069-.565.1h-.009a.373.373,0,0,1-.416-.427,5.907,5.907,0,0,1,1.169-1.9c.89-1.206,2.109-2.857,2.109-3.769,0-.223-.086-.46-.246-.46a14,14,0,0,0-3.781,2.2c-.837.7-1.189.955-1.488.955s-.551-.315-.551-.734c.039-.488.178-.614,1.235-1.143.5-.248,1.049-.568,1.576-.877a7.606,7.606,0,0,1,3.04-1.318c.709,0,1.069.479,1.1,1.464,0,1.124-.8,2.248-1.643,3.438-.315.445-.64.9-.94,1.38h.225a2.305,2.305,0,0,1,2.136,1.477l.017.107.007.042.013-.008.327-.24c2.642-1.939,6.275-4.549,7.317-4.835l.048-.007h.154c.186,0,.279.05.341.183l.025.093c0,.163-.163.3-.316.378a72.471,72.471,0,0,0-7.631,4.824c-.234.149-.237.193-.256.435l-.009.109c-.091,4.421-5.787,16.519-9.566,17.653A5.358,5.358,0,0,1-211.3,87.445Zm4.3-12.668a31.494,31.494,0,0,0-3.139,3.586c-1.783,2.5-2.937,5.191-2.937,6.847a1.711,1.711,0,0,0,1.778,1.869,5,5,0,0,0,1.151-.178c3.57-1.071,9.21-13.08,9.3-17.321l.009-.116a.88.88,0,0,1,.112-.435.561.561,0,0,1-.137-.351l-.012-.076a1.953,1.953,0,0,0-1.78-1.194h-.873l.164-.276c.353-.591.746-1.145,1.126-1.68.845-1.191,1.576-2.219,1.576-3.221-.033-.973-.391-1.1-.737-1.1a7.661,7.661,0,0,0-2.855,1.269c-.533.312-1.084.636-1.6.888-1.005.5-1.01.56-1.032.831,0,.205.1.354.186.354a3.988,3.988,0,0,0,1.261-.877,13.831,13.831,0,0,1,3.984-2.277h0c.377,0,.633.347.633.824,0,1.032-1.209,2.67-2.18,3.986a7.722,7.722,0,0,0-1.1,1.7.165.165,0,0,0,.009.062c.205-.044.382-.08.545-.112a4.513,4.513,0,0,1,.949-.117,1.5,1.5,0,0,1,1.47,1.531.613.613,0,0,1-.146.405c.207.046.207.306.207.452v0c-.016,1.805-1.514,6.068-3.41,9.7-1.392,2.668-4.113,7.145-6.7,7.145a1.521,1.521,0,0,1-1.716-1.622,8.329,8.329,0,0,1,.281-1.82C-211.81,80.613-209.387,77.4-207,74.777Zm5.57-4.752c-1.564,1.047-9.338,8.227-10.825,13.518a7.944,7.944,0,0,0-.269,1.728c0,.834.454,1.257,1.35,1.257,1.748,0,4.071-2.533,6.374-6.949,1.873-3.591,3.353-7.78,3.37-9.536Z" fill="#fff"/>
      </g>
      <g id="Group_40261" data-name="Group 40261">
        <path id="Path_62372" data-name="Path 62372" d="M-193.731,66.06a3.871,3.871,0,0,1,.122-.827c.582-2.053,3.768-5.27,5.178-5.27.429.061.643.276.643.858,0,1.41-2.788,3.554-4.167,3.554l-.276-.03c-.337,0-.4.091-.612.551a3.786,3.786,0,0,0-.245,1.256c0,.981.735,1.5,1.9,1.5,3.094,0,6.159-2.42,7.967-3.859a.394.394,0,0,1,.214-.093c.091,0,.154.03.154.093a14.03,14.03,0,0,1-3.831,2.971,8.96,8.96,0,0,1-4.351,1.409C-192.659,68.174-193.731,67.47-193.731,66.06Zm2.88-2.971c1.5-.951,2.236-1.839,2.236-2.175,0-.093-.061-.124-.153-.124a1.863,1.863,0,0,0-.827.4,10.089,10.089,0,0,0-2.451,2.481l.061.031A7.712,7.712,0,0,0-190.851,63.089Z" fill="#fff"/>
        <path id="Path_62373" data-name="Path 62373" d="M-191.036,68.357c-1.8,0-2.878-.858-2.878-2.3a3.985,3.985,0,0,1,.125-.861c.606-2.136,3.858-5.419,5.358-5.419.579.081.826.4.826,1.041,0,1.5-2.852,3.737-4.35,3.737l-.3-.031c-.2,0-.219,0-.427.446a3.6,3.6,0,0,0-.227,1.179c0,1.147,1.075,1.318,1.716,1.318,3.058,0,6.177-2.484,7.853-3.819a.57.57,0,0,1,.328-.133c.233,0,.337.139.337.276-.054.38-1.87,1.944-3.923,3.129A9.172,9.172,0,0,1-191.036,68.357Zm2.579-8.213c-1.332,0-4.418,3.171-4.976,5.139a3.654,3.654,0,0,0-.116.777c0,1.681,1.575,1.932,2.513,1.932a8.841,8.841,0,0,0,4.261-1.386,19.784,19.784,0,0,0,3.253-2.341c-1.77,1.4-4.718,3.571-7.667,3.571-1.3,0-2.082-.629-2.082-1.684a3.956,3.956,0,0,1,.255-1.317c.225-.483.332-.673.785-.673l.3.031c1.283,0,3.964-2.083,3.964-3.372C-187.971,60.307-188.135,60.19-188.457,60.144Zm-3.528,3.74-.083-.02-.161-.081V63.67c0-.42,1.836-2.169,2.532-2.633a1.938,1.938,0,0,1,.929-.43.3.3,0,0,1,.336.307c0,.5-.976,1.477-2.322,2.329l-.006,0-.245.142C-191.707,63.8-191.868,63.884-191.985,63.884Zm3.174-2.9a2.087,2.087,0,0,0-.68.359,13.369,13.369,0,0,0-2.107,1.969c.128-.072.272-.156.409-.236l.243-.14A5.759,5.759,0,0,0-188.811,60.981Z" fill="#fff"/>
      </g>
      <g id="Group_40262" data-name="Group 40262">
        <path id="Path_62374" data-name="Path 62374" d="M-184.107,68.236c0-3.524,2.359-8.149,4.412-11.52,3.278-5.392,7.446-10.6,10.265-13.021a6.2,6.2,0,0,1,3.278-1.685c.612,0,.98.366.98,1.2-.153,2.236-2.053,4.993-7.384,10.324-4.044,4.2-7.078,6.8-8.18,7.017-.705.183-2.666,5.238-2.666,7.9.092,2.207.98,3.339,2.573,3.339a4.617,4.617,0,0,0,2.176-.612c2.053-1.042,5.852-5.393,7.874-7.2.184-.183.306-.246.368-.246s.091.032.091.063c0,.061,0,.061-.153.366a76.02,76.02,0,0,1-5.545,5.761,9.87,9.87,0,0,1-2.665,1.992,5.565,5.565,0,0,1-2.237.551C-182.851,72.464-184.107,70.809-184.107,68.236Zm11.49-14.951A48.021,48.021,0,0,0-166.4,45.5a4.84,4.84,0,0,0,.827-2.175c0-.429-.214-.613-.581-.613-1.685,0-5.853,3.891-10.724,11.03a56.116,56.116,0,0,0-3.707,6.1.081.081,0,0,0,.091.092C-179.848,59.933-176.079,56.838-172.617,53.285Z" fill="#fff"/>
        <path id="Path_62375" data-name="Path 62375" d="M-180.92,72.647c-2.047,0-3.37-1.731-3.37-4.412,0-3.577,2.414-8.29,4.439-11.614,3.211-5.281,7.351-10.532,10.3-13.065a6.342,6.342,0,0,1,3.4-1.729c.434,0,1.163.179,1.163,1.378-.161,2.363-2.177,5.193-7.437,10.454-4.112,4.267-7.129,6.843-8.276,7.066-.491.131-2.517,4.892-2.517,7.725.088,2.092.892,3.157,2.39,3.157a4.432,4.432,0,0,0,2.089-.591c1.363-.691,3.515-2.872,5.414-4.8.907-.92,1.763-1.787,2.425-2.379a.8.8,0,0,1,.49-.293.255.255,0,0,1,.274.246c0,.1-.006.117-.173.448a77.349,77.349,0,0,1-5.58,5.81,10.151,10.151,0,0,1-2.714,2.026A5.762,5.762,0,0,1-180.92,72.647Zm14.768-30.454a6.127,6.127,0,0,0-3.162,1.643c-2.876,2.469-7.082,7.805-10.225,12.975-2,3.284-4.385,7.932-4.385,11.424,0,2.458,1.179,4.046,3,4.046a5.4,5.4,0,0,0,2.163-.535,9.643,9.643,0,0,0,2.617-1.96c2.373-2.31,5.051-5.035,5.478-5.668-.66.591-1.507,1.45-2.4,2.358-1.918,1.944-4.093,4.148-5.5,4.864a4.782,4.782,0,0,1-2.259.632c-1.19,0-2.634-.609-2.756-3.514,0-2.67,1.934-7.864,2.8-8.09a9.4,9.4,0,0,0,2.972-2.024,8.427,8.427,0,0,1-2.681,1.772.263.263,0,0,1-.274-.275l.007-.048a55.405,55.405,0,0,1,3.732-6.153c4.534-6.644,8.9-11.109,10.875-11.109a.711.711,0,0,1,.764.8,5.029,5.029,0,0,1-.853,2.269,33,33,0,0,1-3.4,4.63c2.948-3.242,4.164-5.292,4.284-7.034C-165.355,42.3-165.81,42.193-166.152,42.193Zm0,.7c-1.541,0-5.668,3.761-10.573,10.949a68.272,68.272,0,0,0-3.612,5.862c.881-.375,4.291-3.166,7.588-6.55a47.258,47.258,0,0,0,6.191-7.744,4.479,4.479,0,0,0,.8-2.087C-165.754,43.018-165.866,42.9-166.152,42.9Z" fill="#fff"/>
      </g>
      <g id="Group_40263" data-name="Group 40263">
        <path id="Path_62376" data-name="Path 62376" d="M-170.313,69.982a1.183,1.183,0,0,1,1.072-1.1.541.541,0,0,1,.552.459c0,.4-.735,1.226-1.164,1.226A.528.528,0,0,1-170.313,69.982Z" fill="#fff"/>
        <path id="Path_62377" data-name="Path 62377" d="M-169.853,70.747a.7.7,0,0,1-.643-.765,1.357,1.357,0,0,1,1.255-1.286.719.719,0,0,1,.735.642C-168.506,69.824-169.311,70.747-169.853,70.747Zm.612-1.685a1.011,1.011,0,0,0-.89.92c0,.247.145.4.278.4.327,0,.981-.749.981-1.044A.365.365,0,0,0-169.241,69.062Z" fill="#fff"/>
      </g>
      <g id="Group_40264" data-name="Group 40264">
        <path id="Path_62378" data-name="Path 62378" d="M-165.5,69.982a1.183,1.183,0,0,1,1.073-1.1.54.54,0,0,1,.551.459c0,.4-.735,1.226-1.164,1.226A.528.528,0,0,1-165.5,69.982Z" fill="#fff"/>
        <path id="Path_62379" data-name="Path 62379" d="M-165.041,70.747a.7.7,0,0,1-.643-.765,1.358,1.358,0,0,1,1.256-1.286.719.719,0,0,1,.734.642C-163.694,69.824-164.5,70.747-165.041,70.747Zm.613-1.685a1.011,1.011,0,0,0-.89.92c0,.247.144.4.277.4.327,0,.981-.749.981-1.044A.365.365,0,0,0-164.428,69.062Z" fill="#fff"/>
      </g>
      <g id="Group_40265" data-name="Group 40265">
        <path id="Path_62380" data-name="Path 62380" d="M-160.689,69.982a1.184,1.184,0,0,1,1.073-1.1.54.54,0,0,1,.551.459c0,.4-.734,1.226-1.163,1.226A.528.528,0,0,1-160.689,69.982Z" fill="#fff"/>
        <path id="Path_62381" data-name="Path 62381" d="M-160.229,70.747a.7.7,0,0,1-.642-.765,1.357,1.357,0,0,1,1.255-1.286.719.719,0,0,1,.734.642C-158.882,69.824-159.687,70.747-160.229,70.747Zm.613-1.685a1.011,1.011,0,0,0-.89.92c0,.247.144.4.277.4.328,0,.981-.749.981-1.044A.365.365,0,0,0-159.616,69.062Z" fill="#fff"/>
      </g>
    </g>
  </g>
</svg>
