<svg xmlns="http://www.w3.org/2000/svg" xmlns:xlink="http://www.w3.org/1999/xlink" width="326.579" height="47.06" viewBox="0 0 326.579 47.06">
  <defs>
    <clipPath id="clip-path">
      <rect id="Rectangle_401" data-name="Rectangle 401" width="326.579" height="47.06" transform="translate(0 0)" fill="none"/>
    </clipPath>
  </defs>
  <g id="Group_39883" data-name="Group 39883" transform="translate(0 0)">
    <g id="Group_39882" data-name="Group 39882" clip-path="url(#clip-path)">
      <path id="Path_47991" data-name="Path 47991" d="M16.131,47.06c-9,0-16.13-4.718-16.13-14.4V31.19H11.358c0,2.941,1.329,6.188,4.652,6.188a4.348,4.348,0,0,0,4.35-4.35c0-2.941-2.418-3.922-4.773-4.963-1.329-.613-2.658-1.164-3.988-1.717C5.8,23.9.666,20.465.666,13.359.666,4.9,8.7,0,16.312,0,20.663,0,25.556,1.653,28.4,5.147c2.3,2.88,2.838,5.392,2.959,8.947h-11.3c-.364-2.514-1.211-4.412-4.109-4.412a3.742,3.742,0,0,0-3.927,3.554,3.382,3.382,0,0,0,.423,1.9c1.087,1.839,6.946,4.167,8.821,5.025,5.92,2.757,10.448,5.882,10.448,12.99,0,9.5-6.764,13.91-15.584,13.91" fill="#1d1d1d"/>
      <path id="Path_47992" data-name="Path 47992" d="M33.709.857V11.029h8.819V46.2H53.947V11.029h8.761V.857Z" fill="#1d1d1d"/>
      <path id="Path_47993" data-name="Path 47993" d="M67.3.857V46.2h24.83V36.029h-13.9v-7.78H91.7V18.075H78.232V11.029h13.9V.857Z" fill="#1d1d1d"/>
      <path id="Path_47994" data-name="Path 47994" d="M128.131,28.065c-3.866,3.431-8.035,3.921-13.048,3.921h-4.955V46.2H99.194V.858h14.62c4.59,0,10.089.184,13.774,3.308a15.523,15.523,0,0,1,5.255,12.011c0,4.166-1.571,9.069-4.712,11.888M114.358,11.03h-4.23V21.815h4.653c3.745,0,7.128-.858,7.128-5.453,0-4.719-3.806-5.332-7.551-5.332" fill="#1d1d1d"/>
      <path id="Path_47995" data-name="Path 47995" d="M160.571,47.06a23.423,23.423,0,0,1-23.562-23.592,23.47,23.47,0,0,1,43.136-12.807,19.436,19.436,0,0,1,3.02,7.415H171.2a11.584,11.584,0,0,0-10.813-7.9c-7.25,0-11.962,6.25-11.962,13.235s4.712,13.482,12.022,13.482c5.015,0,8.76-3.187,10.753-7.66h11.962A22.976,22.976,0,0,1,160.571,47.06" fill="#1d1d1d"/>
      <path id="Path_47996" data-name="Path 47996" d="M189.386.858V46.2h24.648V36.03H200.8V.858Z" fill="#1d1d1d"/>
      <rect id="Rectangle_400" data-name="Rectangle 400" width="11.418" height="45.344" transform="translate(218.505 0.857)" fill="#1d1d1d"/>
      <path id="Path_47997" data-name="Path 47997" d="M313.65.858l-12.624,20.4H300.9V.858H289.486V46.2H300.9V26.593h.122l12.2,19.61h13.352L310.813,23.469,325.614.858Z" fill="#1d1d1d"/>
      <path id="Path_47998" data-name="Path 47998" d="M259.765,47.06A23.423,23.423,0,0,1,236.2,23.468a23.47,23.47,0,0,1,43.136-12.807,19.436,19.436,0,0,1,3.02,7.415H270.4a11.584,11.584,0,0,0-10.812-7.9c-7.251,0-11.963,6.25-11.963,13.235s4.712,13.482,12.022,13.482c5.015,0,8.76-3.187,10.753-7.66h11.962A22.977,22.977,0,0,1,259.765,47.06" fill="#1d1d1d"/>
    </g>
  </g>
</svg>
