<svg id="Group_40288" data-name="Group 40288" xmlns="http://www.w3.org/2000/svg" xmlns:xlink="http://www.w3.org/1999/xlink" width="214.672" height="90" viewBox="0 0 214.672 90">
  <defs>
    <clipPath id="clip-path">
      <rect id="Rectangle_1732" data-name="Rectangle 1732" width="214.672" height="90" fill="none"/>
    </clipPath>
  </defs>
  <g id="Group_40287" data-name="Group 40287" clip-path="url(#clip-path)">
    <path id="Path_51649" data-name="Path 51649" d="M57.861,11.119a11.146,11.146,0,0,0-4.528.94,12,12,0,0,0-3.648,2.413,11.926,11.926,0,0,0-2.47,3.646,11.481,11.481,0,0,0-.885,4.47,11.624,11.624,0,0,0,.885,4.531,13.036,13.036,0,0,0,2.47,3.649,13.061,13.061,0,0,0,3.648,2.471,11.712,11.712,0,0,0,4.382.879H72.194v9.766H57.861a21.59,21.59,0,0,1-15.205-6.236,21.924,21.924,0,0,1-4.59-6.766,20.6,20.6,0,0,1-1.647-8.233,21.022,21.022,0,0,1,1.647-8.294A21.716,21.716,0,0,1,49.42,3a21.067,21.067,0,0,1,8.3-1.644h6.192v9.765Z" fill="#fff"/>
    <path id="Path_51650" data-name="Path 51650" d="M85,10.159v9.262l3.446,0h4.289a4.774,4.774,0,0,0,4.9-4.631,4.772,4.772,0,0,0-4.9-4.634H85Zm25.907,33.723H98.968L89.381,28.766h-4V43.882H75.615V11.119H71.321V1.354H90.967a18.32,18.32,0,0,1,5.709.881,13.75,13.75,0,0,1,4.706,2.59A12.1,12.1,0,0,1,104.617,9a12.1,12.1,0,0,1,1.234,5.588,13.168,13.168,0,0,1-6.7,11.648Z" fill="#fff" fill-rule="evenodd"/>
    <path id="Path_51651" data-name="Path 51651" d="M169.824,43.882V34.118H154.589V1.156h-9.766V43.882Z" fill="#fff" fill-rule="evenodd"/>
    <path id="Path_51652" data-name="Path 51652" d="M182.261,43.882V1.1H172.5V43.882Z" fill="#fff" fill-rule="evenodd"/>
    <path id="Path_51653" data-name="Path 51653" d="M206.133,11.119a11.15,11.15,0,0,0-4.529.94,12.009,12.009,0,0,0-3.648,2.413,11.946,11.946,0,0,0-2.471,3.646,11.5,11.5,0,0,0-.883,4.47,11.641,11.641,0,0,0,.883,4.531,13.061,13.061,0,0,0,2.471,3.649,13.075,13.075,0,0,0,3.648,2.471,11.717,11.717,0,0,0,4.383.879h8.382v9.766h-8.236a21.595,21.595,0,0,1-15.206-6.236,22.012,22.012,0,0,1-4.59-6.766,20.648,20.648,0,0,1-1.643-8.233,21.072,21.072,0,0,1,1.643-8.294A21.719,21.719,0,0,1,197.69,3a21.088,21.088,0,0,1,8.3-1.644h8.382v9.765Z" fill="#fff"/>
    <path id="Path_51654" data-name="Path 51654" d="M0,43.884H10.766L20.413,22.06,47.377,86.874H59.618L20.413,0Z" fill="#fff" fill-rule="evenodd"/>
    <path id="Path_51655" data-name="Path 51655" d="M214.672,86.874V78.012H200.849V49.245h-8.861V86.874Z" fill="#fff" fill-rule="evenodd"/>
    <path id="Path_51656" data-name="Path 51656" d="M159.974,90V49.172H147.112v8.861h4V70.308L123.254,45.757v41.1h8.86V65.4Z" fill="#fff" fill-rule="evenodd"/>
    <path id="Path_51657" data-name="Path 51657" d="M185.191,86.874V78.012H172.543V72.73h12.648V64.191H172.543V58.053h12.648v-8.86H163.682V86.874Z" fill="#fff" fill-rule="evenodd"/>
    <path id="Path_51658" data-name="Path 51658" d="M76.678,49.239l-11.222,0-6.957,0v8.914h4V86.875h8.861V73.986l1.228.029,4.088-.024c7.23,0,13.1-5.541,13.1-12.378s-5.865-12.374-13.1-12.374M77.661,66.1H69.845V56.743l3.481,0h4.335a4.689,4.689,0,1,1,0,9.363" fill="#fff"/>
    <path id="Path_51659" data-name="Path 51659" d="M83.28,86.634h9.766l8.751-19.8,8.809,19.8h9.766L101.8,46.819Z" fill="#fff" fill-rule="evenodd"/>
    <path id="Path_51660" data-name="Path 51660" d="M143.184,1.354H132.407l-8.492,18.214L115.423,1.354H104.647l13.882,29.692L112.42,43.893H123.2Z" fill="#fff" fill-rule="evenodd"/>
  </g>
</svg>
