<svg id="Group_40325" data-name="Group 40325" xmlns="http://www.w3.org/2000/svg" xmlns:xlink="http://www.w3.org/1999/xlink" width="253.918" height="65" viewBox="0 0 253.918 65">
  <defs>
    <clipPath id="clip-path">
      <rect id="Rectangle_1749" data-name="Rectangle 1749" width="253.918" height="65" fill="none"/>
    </clipPath>
  </defs>
  <g id="Group_40324" data-name="Group 40324" clip-path="url(#clip-path)">
    <path id="Path_51791" data-name="Path 51791" d="M37.31,33.724c-3.083.421-4.874-.544-5.635-2.137-1.412-2.965,1.032-8.254,5.9-10.644,1.483-.709,2.429.1,2.972,1.239a9.111,9.111,0,0,1,.738,4.193c2.166.434,6.461-1.262,7.492.9a3.663,3.663,0,0,1,.128,2.176c-.713,3.485-3.269,13.235-1.477,16.994.324.682.745.832,1.086.669a2.566,2.566,0,0,0,.991-1.448c.324-.784,1.908-5.384,2.936-9.092.757-2.666,3.054-12.222,3.4-14.136.063-.308.12-.478.291-.558.514-.246,1.372.676,1.372.676-.371,3.181-1.451,9.568-2.61,15.5-.879,4.756-3.572,14.359-7.163,16.07-1.935.923-3.33-.092-4.335-2.2-2.144-4.5-2.446-13.795-2.315-19.24a16,16,0,0,1-1.764.559c-.17,1.548-.493,3.8-1.21,7.429a3.514,3.514,0,0,1-.543.329c-.513.245-1.195.431-1.466-.138a2.834,2.834,0,0,1,0-1.751c.273-1.04.805-3.741,1.2-5.4" fill="#c00018"/>
    <path id="Path_51792" data-name="Path 51792" d="M84.768,4.988c-.2-.41-.947-.481-3.05.528-2.042.983-2.11-.208-3.393.408a50.755,50.755,0,0,0-8.245,3.31s-3.484,1.8-4.344,2.212c-.254.122-.565.261-.884.4.453-2.766.919-5.478,1.26-8.068a2.887,2.887,0,0,0-.253-1.555c-.924-1.938-4.72-2.717-6.43-1.9a2.994,2.994,0,0,0-1.975,2.9c.155,2.231-.042,6.789-.367,12.107a36.883,36.883,0,0,1-8.077,2.365.469.469,0,0,0-.462-.066c-.349.169-.1,1.128.148,1.652,1.466,3.057,2.4,4.406,6.86,2.893a11.761,11.761,0,0,0,1.174-.079c-.358,8.491-.409,17.186,1.193,20.546,1.222,2.563,5.657,3.945,8.048,2.806a3.536,3.536,0,0,0,1.239-1.22c2.075-2.678,1.979-6.482,1.711-9.61,0,0-.858-.919-1.371-.675-.169.081-.228.249-.292.56a16.507,16.507,0,0,1-2.3,5.14,4.274,4.274,0,0,1-1.327,1.47c-.456.217-.791-.045-1.062-.613a5.224,5.224,0,0,1-.475-1.731c-.351-5.832.5-12.821,1.567-19.75.417-.18.83-.36,1.233-.543.022.066,1.589-.742,2.485-1.169.795-.379,2.2-1.023,2.184-1.072A68.739,68.739,0,0,0,84.395,6.457s.6-1,.373-1.469" fill="#c00018"/>
    <path id="Path_51793" data-name="Path 51793" d="M23.26,39.747c-.249-.231-.672-.241-1.585.194-.34.162-6.939,4.358-7.916,5.244-1.868,1.658-2.72,11.016-3.41,14.561-.152.558-.1,1.1-.73,1.4-2,.95-6.05-1.1-6.918-2.928a2.4,2.4,0,0,1-.031-1.38C3.209,53.711,3.8,50.7,4.394,47.688a4.744,4.744,0,0,1-4.259-3.07.816.816,0,0,1,.389-1.235c.855-.408,2.9-1.1,5.063-1.995C7.823,30.534,10.171,19.91,12.863,7.367c.68-3.12,1.079-4.777,2.276-5.348.8-.38,2.009-.331,3.81.073,1.069.189,7.578-2.287,8.828.334a2.568,2.568,0,0,1,.2,1.447c-1.1,10.31-1.068,32.384,4.881,44.862,2.118,4.444,4.965,7.631,8.783,8.749a.9.9,0,0,1,.836.576c.652,1.37-.542,4.878-3.333,6.208-4.9,2.336-8.476-1.206-11.028-6.562-2.607-5.468-4.188-12.9-4.858-17.959m-1.437-6.1-2.16-11.136c-.191-.4-.3-.627-.469-.547-.571.273-4.169,12.964-3.816,13.706.137.286.473.406,1.151.22a52.423,52.423,0,0,0,5.294-2.243" fill="#c00018"/>
    <path id="Path_51794" data-name="Path 51794" d="M101.69,22.034H85.8V32.991h15.329v6.466H85.8V61.164H78.919v-45.6H101.69Z" fill="#161615"/>
    <path id="Path_51795" data-name="Path 51795" d="M112.674,15.565V54.64h13.392V61.1H105.807V15.565Z" fill="#161615"/>
    <path id="Path_51796" data-name="Path 51796" d="M126.058,38.145a21.48,21.48,0,0,1,6.79-15.908,22.348,22.348,0,0,1,16.25-6.648,21.931,21.931,0,0,1,16.079,6.7A21.932,21.932,0,0,1,171.908,38.4a21.562,21.562,0,0,1-6.762,16.05,23.174,23.174,0,0,1-31.644.74q-7.443-6.5-7.444-17.044m6.677.069a15.828,15.828,0,0,0,4.886,11.95,16.193,16.193,0,0,0,22.866-.088,16.124,16.124,0,0,0,4.748-11.749,16.051,16.051,0,0,0-4.69-11.75,16.365,16.365,0,0,0-23.1,0,15.813,15.813,0,0,0-4.715,11.637" fill="#161615"/>
    <path id="Path_51797" data-name="Path 51797" d="M173.684,38.145a21.474,21.474,0,0,1,6.788-15.908,22.346,22.346,0,0,1,16.25-6.648,21.924,21.924,0,0,1,16.077,6.7A21.929,21.929,0,0,1,219.535,38.4a21.572,21.572,0,0,1-6.765,16.05,23.176,23.176,0,0,1-31.646.74q-7.44-6.5-7.44-17.044m6.673.069a15.822,15.822,0,0,0,4.888,11.95,16.194,16.194,0,0,0,22.867-.088,16.116,16.116,0,0,0,4.743-11.749,16.049,16.049,0,0,0-4.688-11.75,16.362,16.362,0,0,0-23.093,0,15.8,15.8,0,0,0-4.717,11.637" fill="#161615"/>
    <path id="Path_51798" data-name="Path 51798" d="M239.825,41.691,253.918,61.1h-8.4L232.508,42.459h-1.236V61.1H224.4V15.564h8.05q9.025,0,13.035,3.39a12.462,12.462,0,0,1,4.422,9.97,12.932,12.932,0,0,1-2.77,8.316,12.342,12.342,0,0,1-7.31,4.451m-8.553-5.218h2.181q9.756,0,9.759-7.462,0-6.987-9.492-6.988h-2.448Z" fill="#161615"/>
  </g>
</svg>
