<svg id="Group_40254" data-name="Group 40254" xmlns="http://www.w3.org/2000/svg" xmlns:xlink="http://www.w3.org/1999/xlink" width="294.863" height="45" viewBox="0 0 294.863 45">
  <defs>
    <clipPath id="clip-path">
      <rect id="Rectangle_1720" data-name="Rectangle 1720" width="294.863" height="45" fill="none"/>
    </clipPath>
  </defs>
  <g id="Group_40253" data-name="Group 40253" clip-path="url(#clip-path)">
    <path id="Path_48211" data-name="Path 48211" d="M0,44.574V0H16.434A22.117,22.117,0,0,1,32.427,6.473a21.23,21.23,0,0,1,6.648,15.815A21.23,21.23,0,0,1,32.427,38.1a22.112,22.112,0,0,1-15.993,6.472ZM11.585,9.812V34.761h2.6a13.27,13.27,0,0,0,8.986-2.956q3.84-3.307,3.842-9.517,0-5.854-3.487-9.165a12.847,12.847,0,0,0-9.223-3.311Z" fill="#fff"/>
    <path id="Path_48212" data-name="Path 48212" d="M158.642,45h-14.5L133.152,27.769h-.118V45H121.389V.2H138.8c8.851,0,15.567,4.221,15.567,13.786,0,6.182-3.388,11.527-9.8,12.654ZM133.034,20.287h1.129c3.862,0,8.081-.658,8.081-5.587s-4.219-5.587-8.081-5.587h-1.129Z" fill="#fff"/>
    <path id="Path_48213" data-name="Path 48213" d="M173.385,35.138h13.962V45H161.74V.2h11.645Z" fill="#fff"/>
    <path id="Path_48214" data-name="Path 48214" d="M205.392,37.216,202.3,45H189.945L207.172.2h12.716L236.761,45H224.344l-2.911-7.784Zm8.139-23.17h-.118L208.6,28.305h9.683Z" fill="#fff"/>
    <path id="Path_48215" data-name="Path 48215" d="M246.322.2h11.467l9.09,23.947L276.5.2h11.587L294.863,45H283.218L279.95,19.214h-.118L269.077,45h-4.634L254.166,19.214h-.12L250.3,45H238.717Z" fill="#fff"/>
    <path id="Path_48216" data-name="Path 48216" d="M63.28.231A22.176,22.176,0,1,0,85.456,22.406,22.176,22.176,0,0,0,63.28.231m0,32.522A10.347,10.347,0,1,1,73.628,22.406,10.358,10.358,0,0,1,63.28,32.753" fill="#fff"/>
    <path id="Path_48217" data-name="Path 48217" d="M73.628,22.406A22.174,22.174,0,1,0,95.8.232,22.176,22.176,0,0,0,73.628,22.406m32.523,0A10.348,10.348,0,1,1,95.8,12.058a10.36,10.36,0,0,1,10.348,10.348" fill="#fff"/>
  </g>
</svg>
