<svg id="Group_40238" data-name="Group 40238" xmlns="http://www.w3.org/2000/svg" xmlns:xlink="http://www.w3.org/1999/xlink" width="295.375" height="50" viewBox="0 0 295.375 50">
  <defs>
    <clipPath id="clip-path">
      <rect id="Rectangle_1713" data-name="Rectangle 1713" width="295.375" height="50" fill="none"/>
    </clipPath>
  </defs>
  <g id="Group_40237" data-name="Group 40237" clip-path="url(#clip-path)">
    <path id="Path_48149" data-name="Path 48149" d="M264.06,8.177H257.8V1.242h-2.552c.007.077.01.154.01.226V8.177h-6.263v2.74h6.263v6.931H257.8V10.917h6.263Z" fill="#fff"/>
    <path id="Path_48150" data-name="Path 48150" d="M72.417,0,53.976,49.121c-.051.137-.118.249-.176.373h3.205L63.881,30.6H77.973l7,18.891h5.845c-.124-.281-.259-.561-.364-.855ZM64.691,27.86l6.194-16.83,6.2,16.83Z" fill="#fff"/>
    <path id="Path_48151" data-name="Path 48151" d="M83.3,3.952H99.459V48.883c0,.188-.049.41-.07.612h5.535c-.033-.2-.057-.407-.07-.612V3.952h15.794V.965H83.3Z" fill="#fff"/>
    <path id="Path_48152" data-name="Path 48152" d="M124.21,3.952h16.162V48.883c-.013.205-.037.409-.07.612h5.536a5.724,5.724,0,0,1-.067-.612V3.952h15.787V.965H124.21Z" fill="#fff"/>
    <path id="Path_48153" data-name="Path 48153" d="M187.019,4.392Q182.381.967,173.446.965h-8.323V49.494H170.3V28.349h3.077a22.776,22.776,0,0,0,6.5-.969,20.677,20.677,0,0,0,5.9-2.776,14.7,14.7,0,0,0,4.242-4.472,11.385,11.385,0,0,0,1.613-6.04,11.346,11.346,0,0,0-4.63-9.7m-1.661,14.615a10.091,10.091,0,0,1-2.586,3.3,13.17,13.17,0,0,1-4.25,2.334,17.6,17.6,0,0,1-5.791.886H170.3V3.788h1.134a22.564,22.564,0,0,1,6.959.923,12.538,12.538,0,0,1,4.575,2.5,9.12,9.12,0,0,1,2.51,3.623,12.492,12.492,0,0,1,.767,4.389,8.615,8.615,0,0,1-.893,3.789" fill="#fff"/>
    <path id="Path_48154" data-name="Path 48154" d="M42.573.965,23.889,39.679,5.2.965H0V49.5H2.709V9.023L22.441,49.668,43.216,6.526V49.5h5.337V.965Z" fill="#fff"/>
    <path id="Path_48155" data-name="Path 48155" d="M294.684,32.428a12.964,12.964,0,0,0-2.761-4.3,19.474,19.474,0,0,0-4.181-3.234q-2.393-1.4-4.73-2.647c-1.384-.708-2.7-1.437-3.944-2.176a19.154,19.154,0,0,1-3.263-2.389,8.888,8.888,0,0,1-2.1-2.829,6.4,6.4,0,0,1-.468-3.568,12.037,12.037,0,0,1,.758-2.8,8.129,8.129,0,0,1,1.862-2.84,8.83,8.83,0,0,1,3.233-2.008,10.157,10.157,0,0,1,4.851-.377,18.908,18.908,0,0,1,7.648,2.316.061.061,0,0,1,.019.017l.351-2.794c-.305-.1-.615-.21-.925-.331-.982-.363-2.006-.7-3.1-1.014a24.19,24.19,0,0,0-3.5-.691,19.29,19.29,0,0,0-5.461.082,14.588,14.588,0,0,0-4.967,1.676,11.218,11.218,0,0,0-3.766,3.441,11.871,11.871,0,0,0-1.922,5.357,10.329,10.329,0,0,0,.514,5.228,11.935,11.935,0,0,0,2.582,3.907,18.4,18.4,0,0,0,3.939,3.024q2.246,1.305,4.579,2.555,2.055,1.134,4.034,2.265a16.948,16.948,0,0,1,3.448,2.556,10.675,10.675,0,0,1,2.267,3.176,7.482,7.482,0,0,1,.511,4.127,10.382,10.382,0,0,1-1.153,3.588,9.624,9.624,0,0,1-2.547,3.01,10.725,10.725,0,0,1-3.988,1.912,14.518,14.518,0,0,1-5.463.225,22.854,22.854,0,0,1-2.712-.6,13.13,13.13,0,0,1-3.627-1.594,8.4,8.4,0,0,1-.711-.491l-.361,2.828c.941.4,1.949.828,3.04,1.282a19.231,19.231,0,0,0,4.915,1.2,23.544,23.544,0,0,0,5.763-.005,15.713,15.713,0,0,0,5.419-1.66,12.076,12.076,0,0,0,6.465-9.65,11.666,11.666,0,0,0-.555-5.785" fill="#fff"/>
    <path id="Path_48156" data-name="Path 48156" d="M255.222,34.678a30.191,30.191,0,0,1-.364,4.573,10.987,10.987,0,0,1-1.527,4.18,8.693,8.693,0,0,1-3.339,3.012,12.391,12.391,0,0,1-5.808,1.165,13.819,13.819,0,0,1-5.522-.983,9.224,9.224,0,0,1-3.631-2.718,10.609,10.609,0,0,1-1.959-4.14,22.156,22.156,0,0,1-.583-5.227V1.371h-4.862V34.536a21.2,21.2,0,0,0,1.163,7.586,11,11,0,0,0,8.024,7.187,25.334,25.334,0,0,0,6.059.69,24.81,24.81,0,0,0,5.772-.651,11.176,11.176,0,0,0,4.758-2.4,11.561,11.561,0,0,0,3.191-4.756,21.639,21.639,0,0,0,1.169-7.731V20.547h-2.542Z" fill="#fff"/>
    <path id="Path_48157" data-name="Path 48157" d="M201.409,46.586V1.423c0-.045.006-.092.006-.14h-4.842V49.27h24.958V46.584H221.4Z" fill="#fff"/>
  </g>
</svg>
