<svg id="Group_40294" data-name="Group 40294" xmlns="http://www.w3.org/2000/svg" xmlns:xlink="http://www.w3.org/1999/xlink" width="214.672" height="104.591" viewBox="0 0 214.672 104.591">
  <defs>
    <clipPath id="clip-path">
      <rect id="Rectangle_1735" data-name="Rectangle 1735" width="214.672" height="104.591" fill="none"/>
    </clipPath>
  </defs>
  <g id="Group_40293" data-name="Group 40293" clip-path="url(#clip-path)">
    <path id="Path_51673" data-name="Path 51673" d="M133.027,1.468a1.392,1.392,0,0,1-2.779,0,1.392,1.392,0,0,1,2.779,0m-.09,10.775h-2.619V3.808h2.619Z" fill="#fff"/>
    <path id="Path_51674" data-name="Path 51674" d="M136.417,6.5c0-1.055-.029-1.928-.07-2.692h2.281l.119,1.183h.047a3.045,3.045,0,0,1,2.61-1.363c1.726,0,3.007,1.147,3.007,3.632v4.984H141.8V7.572c0-1.09-.387-1.83-1.331-1.83a1.438,1.438,0,0,0-1.345.985,1.823,1.823,0,0,0-.085.652v4.865h-2.622Z" fill="#fff"/>
    <path id="Path_51675" data-name="Path 51675" d="M156.069,0V9.722c0,.949.04,1.951.073,2.522h-2.333l-.1-1.224h-.049a2.959,2.959,0,0,1-2.642,1.41c-2,0-3.6-1.713-3.6-4.322-.029-2.849,1.754-4.5,3.775-4.5a2.6,2.6,0,0,1,2.22.944h.029V0Zm-2.622,7.376a2.8,2.8,0,0,0-.029-.483,1.579,1.579,0,0,0-1.532-1.276c-1.206,0-1.812,1.066-1.812,2.4,0,1.428.705,2.331,1.789,2.331A1.572,1.572,0,0,0,153.4,9.089a5.122,5.122,0,0,0,.046-.609Z" fill="#fff"/>
    <path id="Path_51676" data-name="Path 51676" d="M167.5,9.535c0,1.1.035,2,.069,2.709h-2.277l-.117-1.2h-.051a3.014,3.014,0,0,1-2.64,1.378c-1.728,0-2.966-1.069-2.966-3.667V3.808h2.616V8.346c0,1.224.4,1.961,1.335,1.961a1.394,1.394,0,0,0,1.31-.912,1.415,1.415,0,0,0,.1-.565V3.808H167.5Z" fill="#fff"/>
    <path id="Path_51677" data-name="Path 51677" d="M170.96,9.963a5.109,5.109,0,0,0,2.266.624c.787,0,1.115-.259,1.115-.685,0-.46-.261-.659-1.22-.988-1.765-.591-2.435-1.535-2.417-2.531,0-1.59,1.345-2.779,3.431-2.779a5.541,5.541,0,0,1,2.359.5l-.442,1.809a4.2,4.2,0,0,0-1.824-.48c-.647,0-1,.256-1,.675s.32.618,1.351.979c1.6.553,2.268,1.381,2.282,2.6,0,1.585-1.216,2.741-3.633,2.741a5.941,5.941,0,0,1-2.727-.606Z" fill="#fff"/>
    <path id="Path_51678" data-name="Path 51678" d="M182.769,1.538v2.27h1.876V5.742h-1.876V8.8c0,1.013.25,1.473,1.04,1.473a3,3,0,0,0,.766-.064l.023,1.981a5.494,5.494,0,0,1-1.7.228,2.779,2.779,0,0,1-1.975-.723,3.5,3.5,0,0,1-.723-2.5V5.742h-1.118V3.808h1.118V2.24Z" fill="#fff"/>
    <path id="Path_51679" data-name="Path 51679" d="M187.547,6.584c0-1.241-.018-2.048-.064-2.776h2.231l.1,1.556h.07a2.467,2.467,0,0,1,2.284-1.76,2.869,2.869,0,0,1,.554.05V6.127a3.71,3.71,0,0,0-.7-.076,1.669,1.669,0,0,0-1.8,1.328,3.007,3.007,0,0,0-.053.583v4.282h-2.621Z" fill="#fff"/>
    <path id="Path_51680" data-name="Path 51680" d="M198.179,1.468a1.309,1.309,0,0,1-1.41,1.309A1.291,1.291,0,0,1,195.4,1.468a1.389,1.389,0,0,1,2.774,0m-.091,10.775h-2.619V3.808h2.619Z" fill="#fff"/>
    <path id="Path_51681" data-name="Path 51681" d="M208.59,10.2a11.216,11.216,0,0,0,.139,2.039h-2.364l-.152-.851h-.053a3.025,3.025,0,0,1-2.411,1.037,2.583,2.583,0,0,1-2.724-2.586c0-2.188,1.96-3.228,4.944-3.228v-.1c0-.466-.24-1.1-1.533-1.1a4.721,4.721,0,0,0-2.324.635l-.49-1.684A6.885,6.885,0,0,1,204.9,3.6c2.809,0,3.688,1.655,3.688,3.656Zm-2.532-1.946c-1.383,0-2.449.326-2.449,1.326a.942.942,0,0,0,1.031,1,1.462,1.462,0,0,0,1.367-.968,2.279,2.279,0,0,0,.051-.445Z" fill="#fff"/>
    <rect id="Rectangle_1734" data-name="Rectangle 1734" width="2.616" height="12.243" transform="translate(212.056)" fill="#fff"/>
    <path id="Path_51682" data-name="Path 51682" d="M56.328,30.275a10.415,10.415,0,0,0-4.27.892,11.193,11.193,0,0,0-3.438,2.269,11.354,11.354,0,0,0-2.327,3.428,10.932,10.932,0,0,0-.833,4.219,11.066,11.066,0,0,0,.833,4.27A12.5,12.5,0,0,0,48.62,48.79a12.271,12.271,0,0,0,3.438,2.322,11,11,0,0,0,4.13.836H69.832v9.194h-13.5A20.294,20.294,0,0,1,42,55.268,20.511,20.511,0,0,1,37.679,48.9a19.434,19.434,0,0,1-1.552-7.76,19.844,19.844,0,0,1,1.552-7.819,20.461,20.461,0,0,1,10.694-10.7,19.779,19.779,0,0,1,7.815-1.562l5.832.012v9.2Z" fill="#fff"/>
    <path id="Path_51683" data-name="Path 51683" d="M83.711,29.367V38.1H91a4.374,4.374,0,1,0,0-8.735H83.711Zm24.4,31.775H96.871L87.829,46.9h-3.77V61.142H74.867V30.275h-4.05v-9.2H89.332a16.922,16.922,0,0,1,5.372.831,12.774,12.774,0,0,1,4.44,2.437,11.9,11.9,0,0,1,4.212,9.194A12.408,12.408,0,0,1,97.031,44.52Z" fill="#fff" fill-rule="evenodd"/>
    <path id="Path_51684" data-name="Path 51684" d="M167.255,61.142v-9.2H152.9V20.887h-9.2V61.142Z" fill="#fff" fill-rule="evenodd"/>
    <path id="Path_51685" data-name="Path 51685" d="M180.782,61.142V20.837h-9.2V61.142Z" fill="#fff" fill-rule="evenodd"/>
    <path id="Path_51686" data-name="Path 51686" d="M206.854,30.275a10.608,10.608,0,0,0-4.265.88,10.674,10.674,0,0,0-5.767,5.709,10.87,10.87,0,0,0-.834,4.213,11.03,11.03,0,0,0,.834,4.276,12.359,12.359,0,0,0,2.33,3.437,12.151,12.151,0,0,0,3.437,2.322,10.908,10.908,0,0,0,4.125.836h7.9v9.194h-7.757a20.353,20.353,0,0,1-14.324-5.874A20.553,20.553,0,0,1,188.2,48.89a19.362,19.362,0,0,1-1.548-7.755,19.784,19.784,0,0,1,1.548-7.813,20.5,20.5,0,0,1,10.693-10.7,19.815,19.815,0,0,1,7.818-1.562h7.9v9.211Z" fill="#fff"/>
    <path id="Path_51687" data-name="Path 51687" d="M0,61.146H10.14l9.083-20.563,25.412,61.065H56.171L19.223,19.8Z" fill="#fff" fill-rule="evenodd"/>
    <path id="Path_51688" data-name="Path 51688" d="M214.672,101.649V93.306H201.645V66.195H193.3v35.454Z" fill="#fff" fill-rule="evenodd"/>
    <path id="Path_51689" data-name="Path 51689" d="M157.974,104.591V66.133H145.85v8.338h3.775V86.038L123.376,62.915v38.711h8.346V81.418Z" fill="#fff" fill-rule="evenodd"/>
    <path id="Path_51690" data-name="Path 51690" d="M185.353,101.644V93.3H173.436V88.322h11.917V80.277H173.436V74.495h11.917V66.146H165.082v35.5Z" fill="#fff" fill-rule="evenodd"/>
    <path id="Path_51691" data-name="Path 51691" d="M77.133,66.19l-10.58,0H60v8.4h3.77v27.055h8.343V89.508l1.165.029,3.851-.024c6.814,0,12.334-5.219,12.334-11.67,0-6.434-5.52-11.653-12.334-11.653m.926,15.89H70.695V73.265l3.274-.012h4.09a4.42,4.42,0,1,1,0,8.827" fill="#fff"/>
    <path id="Path_51692" data-name="Path 51692" d="M85.705,98.2h9.2l8.249-18.653,8.3,18.653h9.2l-17.5-37.513Z" fill="#fff" fill-rule="evenodd"/>
    <path id="Path_51693" data-name="Path 51693" d="M140.339,21.07l-10.152,0-8,17.152-8-17.152H104.028l13.077,27.971L111.36,61.152H121.5Z" fill="#fff" fill-rule="evenodd"/>
  </g>
</svg>
