<svg id="Group_40281" data-name="Group 40281" xmlns="http://www.w3.org/2000/svg" xmlns:xlink="http://www.w3.org/1999/xlink" width="252.889" height="85" viewBox="0 0 252.889 85">
  <defs>
    <clipPath id="clip-path">
      <rect id="Rectangle_1730" data-name="Rectangle 1730" width="252.889" height="85" fill="none"/>
    </clipPath>
  </defs>
  <path id="Path_51605" data-name="Path 51605" d="M110.332,2.957h139.6V82.043h-139.6ZM107.375,85H252.889V0H107.375Z" fill="#fff"/>
  <g id="Group_40280" data-name="Group 40280">
    <g id="Group_40279" data-name="Group 40279" clip-path="url(#clip-path)">
      <path id="Path_51606" data-name="Path 51606" d="M128.457,14.139h.6q5.542,0,9.146,7.248a15.779,15.779,0,0,1,1.208,4.659,20.517,20.517,0,0,1-2.071,2.5,2.524,2.524,0,0,1-1.122.518h-.086q-1.273,0-3.279-4.573-1.122-3.235-3.019-4.142l-.432-.259a7.228,7.228,0,0,0-4.141,2.5q-3.453,4.25-3.453,11.907v.862q0,11.5,6.472,19.414a5.777,5.777,0,0,0,4.142,2.157q4.811,0,8.887-11.821a54.219,54.219,0,0,0,1.639-7.247q-2.458.345-10.267,1.984v-.259q0-.842-1.64-1.38-.775-.583-.776-1.122V37q0-3.3,8.283-4.573a64.486,64.486,0,0,1,8.455-.6q1.294,0,1.295.518a19.606,19.606,0,0,1,.344,2.933q0,5.912-5.348,18.034a16.814,16.814,0,0,1-8.284,8.282,5.588,5.588,0,0,1-2.415.518h-.259q-4.638,0-9.146-4.141-7.68-10.2-7.68-21.658v-.949q0-10.914,5.609-17.774a10.31,10.31,0,0,1,7.334-3.451" fill="#fff"/>
      <path id="Path_51607" data-name="Path 51607" d="M157.647,9.134h.345q1.638,0,1.64,1.381a36.991,36.991,0,0,1,.6,6.9l-.6,15.79v1.639A126.044,126.044,0,0,0,161.7,54.6v1.122q0,2.049-.949,2.33a10.308,10.308,0,0,0-2.588.6,10.181,10.181,0,0,0-1.726-1.295,160.911,160.911,0,0,1-2.33-24.159V30.188A82.833,82.833,0,0,1,155.231,16.9q-.28,0-.518-2.243l-.69-.518q.518,0,.949-3.882a4.628,4.628,0,0,1,2.675-1.123" fill="#fff"/>
      <path id="Path_51608" data-name="Path 51608" d="M178.7,38.277h.086q4.443,0,6.169,5.414a9.949,9.949,0,0,1,.474,3.193v.775a12.088,12.088,0,0,1-4.659,9.9,9.1,9.1,0,0,1-4.572,1.532h-.3q-4.573,0-6.493-5.868a11.419,11.419,0,0,1-.453-3.127v-.454a22.882,22.882,0,0,1,1.143-7.4,7.461,7.461,0,0,1,2.135-1.143,11.8,11.8,0,0,0,1.6-1.92q1.4-.906,4.876-.906m-4.1,7.1.065.69-.15,4.1q.235,3.516,1.531,3.515a6.317,6.317,0,0,0,2.975-2.825,7.394,7.394,0,0,0,.907-3.43v-.3a5.656,5.656,0,0,0-1.9-4.336,3.264,3.264,0,0,0-2.61,1.812,2.846,2.846,0,0,1-.82.777" fill="#fff"/>
      <path id="Path_51609" data-name="Path 51609" d="M203.04,35.688h.711q3.127,0,3.452,1.531a8.749,8.749,0,0,1,.6,1.921,4.4,4.4,0,0,1-2.675,1.466q-6.234.97-6.235,1.683.929,1.488,4.682,2.545a53.06,53.06,0,0,1,9.383,2.912,4.91,4.91,0,0,1,2.7,4.314q0,4.486-7.917,6a26.453,26.453,0,0,1-4.314.388q-8-.54-8-1.855a2.957,2.957,0,0,1-.842-2.071v-.453a3.856,3.856,0,0,1,1.77-3,18.473,18.473,0,0,0,7.549,2.157,5.733,5.733,0,0,0,4.076-1.467v-.087a38.594,38.594,0,0,0-8.93-2.847q-6.534-1.962-6.535-4.766v-.3q0-4.421,5.457-6.773a11.861,11.861,0,0,1,5.07-1.294" fill="#fff"/>
      <path id="Path_51610" data-name="Path 51610" d="M231.647,35.688h.711q3.127,0,3.452,1.531a8.749,8.749,0,0,1,.6,1.921,4.395,4.395,0,0,1-2.674,1.466q-6.236.97-6.235,1.683.927,1.488,4.68,2.545a53.094,53.094,0,0,1,9.385,2.912,4.909,4.909,0,0,1,2.7,4.314q0,4.486-7.917,6a26.45,26.45,0,0,1-4.313.388q-8-.54-8-1.855a2.953,2.953,0,0,1-.842-2.071v-.453a3.856,3.856,0,0,1,1.77-3,18.469,18.469,0,0,0,7.548,2.157,5.737,5.737,0,0,0,4.077-1.467v-.087a38.628,38.628,0,0,0-8.93-2.847q-6.537-1.962-6.535-4.766v-.3q0-4.421,5.457-6.773a11.857,11.857,0,0,1,5.069-1.294" fill="#fff"/>
      <path id="Path_51611" data-name="Path 51611" d="M88.813,42.439a3.215,3.215,0,0,1-.859.964l.068.857-.158,5.088q.248,4.365,1.605,4.365a7.246,7.246,0,0,0,3.119-3.508,10.551,10.551,0,0,0,.95-4.258v-.375a7.666,7.666,0,0,0-1.99-5.382q-1.492,0-2.735,2.249" fill="#fff"/>
      <path id="Path_51612" data-name="Path 51612" d="M0,85H110.332V0H0ZM50.1,48.331q0,.24-3.617.857a44.553,44.553,0,0,0-18,10.5q-3.167,2.355-5.517,2.357h-.994q-3.46,0-5.7-7.712-1.626-4.794-1.989-16.175a5.138,5.138,0,0,1-3.346-1.607v-.321q0-1.982,2.171-4.928a1.459,1.459,0,0,0,.361-.75l-.09-1.178.271-7.5.09-.107-1.085.107h-.813q-2.714,0-2.714-1.714V19.088q0-4.2,6.421-5.891a9.2,9.2,0,0,0,1.628-1.929,8.855,8.855,0,0,0,1.9-1.713h.181q2.283,0,4.25,2.678h.181q2.645,0,8.861-2.464a8.238,8.238,0,0,1,3.166-.643h.452a3.669,3.669,0,0,1,2.713.857v.858q0,5.918-11.394,7.39-6.6.75-6.6,1.286a27.827,27.827,0,0,0-.994,7.926v1.178q10.716-3.213,16.186-3.213,4.07.16,4.07.643v.856a1.718,1.718,0,0,0,.452,1.179q-1.108,2.329-4.883,3.749-2.714.75-11.575,2.035a29.349,29.349,0,0,0-3.708,1.393,38.151,38.151,0,0,0,1.447,14.782l1,2.571.452.107q2.871,0,10.58-4.392,8.094-4.177,12.841-4.177,3.345.215,3.346.642ZM73.571,37.244q-1.945,1.9-4.34,14.14-2.238,8.249-5.517,8.248-2.938,0-6.691-8.891-4.884-8.73-4.884-10.819v-.857q0-3.319,4.793-3.321L61.815,46.35l.814,1.392q2.759-2.169,4.7-11.355,1.536-5.141,2.532-5.141l.994-.108h.814q1.424,0,2.442,2.25a18.339,18.339,0,0,0-.723,2.892Zm25.732,9q0,7.632-4.884,12.292a8.559,8.559,0,0,1-4.792,1.9H89.31q-4.792,0-6.8-7.284a16.6,16.6,0,0,1-.475-3.883v-.562a33.223,33.223,0,0,1,1.2-9.185,7.614,7.614,0,0,1,2.238-1.42,14.316,14.316,0,0,0,1.673-2.383q1.47-1.125,5.109-1.125h.091q4.656,0,6.465,6.722a14.42,14.42,0,0,1,.5,3.963Z" fill="#fff"/>
      <path id="Path_51613" data-name="Path 51613" d="M147.542,64.49q.61,0,.7.432a1.21,1.21,0,0,1,.062.411l.082,1.5q0,.663-.01,4.522c.041.37.089.556.145.556q2.157.271,2.312.883,0,.515-.638.514h-.123a5.366,5.366,0,0,1-1.572-.144v-.02l-.042.04c.045,0,.063.234.051.7q.053.4.278,3.843l.021.206v.021a.986.986,0,0,1-.782.287q-.574,0-.575-.246-.15-.926-.329-3.824a4.183,4.183,0,0,0-.123-.863l-.422-.02-2.107.082q.095,1.536.093,1.952.036,1.131-.339,1.131l-.617-.041-.247.041q-.267,0-.21-1.5A4.733,4.733,0,0,0,143,73.421l-.144.031-.206.02q-.744,0-.965-.328a.33.33,0,0,1-.083-.206q.011-.719.257-.719h.74c.219-.01.329-.038.329-.083q-.02-2.754-.154-5.858v-.041q.1-1.459.493-1.459l.247-.021q.638.021.637.226a.579.579,0,0,1,.144.412l-.042.9q0,1.165.052,5.241l.062.556h.123A13.064,13.064,0,0,0,147,71.911q-.072-4.842-.175-6.331v-.165q0-.775.535-.925Z" fill="#fff"/>
      <path id="Path_51614" data-name="Path 51614" d="M151.092,68.2h.124c.345,0,.558.09.637.268l.062.225v.021c0,.277-.281.463-.843.555h-.144c-.411-.037-.617-.161-.617-.37l-.02-.082v-.124a.743.743,0,0,1,.8-.493m.042,2.1c.274,0,.411.068.411.206a15.947,15.947,0,0,1,.246,2.877v.6l-.041,2.22a1.176,1.176,0,0,1-.493.184l-.165.165h-.02c-.12,0-.23-.09-.329-.268,0,.083-.013.124-.041.124a1.632,1.632,0,0,1-.309-1.192l.185-2.529q-.041-.539-.04-1.521,0-.863.6-.863" fill="#fff"/>
      <path id="Path_51615" data-name="Path 51615" d="M155.178,71.171h.165a2.076,2.076,0,0,1,1.521.514.172.172,0,0,1,.124.165.714.714,0,0,0-.206.184q.123,2.72.123,4.05a7.544,7.544,0,0,1-.432,3.268,1.883,1.883,0,0,1-1.685,1.254,2.359,2.359,0,0,1-1.768-.8l-.041-.082V79.64a1.984,1.984,0,0,0-.534-.966,1.341,1.341,0,0,1-.226-.678.484.484,0,0,1,.164-.412h.082c.052,0,.161.076.329.226.164,0,.247.035.247.1a2.515,2.515,0,0,0,1.027,1.193,3.428,3.428,0,0,1,.556.37,1.307,1.307,0,0,0,.719-.576,4.5,4.5,0,0,0,.349-1.973l-.061-2.529.02-.411a9.693,9.693,0,0,0-.945,1.377,1.591,1.591,0,0,1-1.151.7h-.144a1.239,1.239,0,0,1-.823-.472.641.641,0,0,1-.348-.535,2.35,2.35,0,0,1-.124-.8V74.11a2.9,2.9,0,0,1,1.767-2.651,3.259,3.259,0,0,1,1.295-.288m-1.767,3.022v.144l.041.432a2.575,2.575,0,0,0,.966-1.069q.529-.925.8-1.316c-.013-.055-.041-.083-.082-.083a2.006,2.006,0,0,0-1.15.556,1.931,1.931,0,0,0-.576,1.336" fill="#fff"/>
      <path id="Path_51616" data-name="Path 51616" d="M158.287,67.851h.041q.35.18.349.267a33.9,33.9,0,0,0-.328,4.872v.1l.02.554a6.1,6.1,0,0,0,.967-2.034c.177-.384.35-.576.514-.576a1.32,1.32,0,0,1,.513-.226h.1c.161,0,.284.158.369.472a14.658,14.658,0,0,1,.576,2.57,5.682,5.682,0,0,0,.494,1.4,2.731,2.731,0,0,0,.534.637v.021a1.487,1.487,0,0,1-.555.514,1.73,1.73,0,0,1-1.027-.514,3.258,3.258,0,0,1-.555-1.131l-.329-1.542a10.908,10.908,0,0,0-.967,2.056,4.362,4.362,0,0,1-.78,1.151h-.145q-.21,0-.534-.349l-.206-.1.021-.2a2.5,2.5,0,0,0-.185-.8q.056,0,.1-4.543a12.094,12.094,0,0,1,.288-2.3.365.365,0,0,0,.37-.247v-.02a.649.649,0,0,0,.288.1c.04,0,.061-.04.061-.123" fill="#fff"/>
      <path id="Path_51617" data-name="Path 51617" d="M168.241,65.837h.144q1.32,0,2.179,1.726a3.787,3.787,0,0,1,.287,1.11,4.868,4.868,0,0,1-.493.6.587.587,0,0,1-.267.123h-.021c-.2,0-.463-.362-.781-1.089a1.6,1.6,0,0,0-.72-.987l-.1-.061a1.721,1.721,0,0,0-.987.6,4.383,4.383,0,0,0-.822,2.836v.2a7.073,7.073,0,0,0,1.541,4.625,1.379,1.379,0,0,0,.987.514q1.147,0,2.118-2.816a12.85,12.85,0,0,0,.39-1.727q-.585.083-2.446.473V71.9c0-.134-.13-.242-.391-.328-.123-.093-.184-.182-.184-.267v-.021q0-.786,1.973-1.089a15.373,15.373,0,0,1,2.014-.145c.206,0,.309.042.309.124a4.736,4.736,0,0,1,.082.7,12.141,12.141,0,0,1-1.275,4.3,4,4,0,0,1-1.973,1.973,1.337,1.337,0,0,1-.576.123h-.061a3.23,3.23,0,0,1-2.179-.987,8.439,8.439,0,0,1-1.83-5.159v-.226a6.48,6.48,0,0,1,1.336-4.234,2.458,2.458,0,0,1,1.748-.822" fill="#fff"/>
      <path id="Path_51618" data-name="Path 51618" d="M173.616,64.645h.083c.259,0,.39.109.39.329a8.78,8.78,0,0,1,.144,1.644l-.144,3.762v.391a29.973,29.973,0,0,0,.493,4.706v.268q0,.487-.226.554a2.52,2.52,0,0,0-.617.144,2.419,2.419,0,0,0-.411-.308,38.318,38.318,0,0,1-.555-5.755v-.72a19.659,19.659,0,0,1,.268-3.166c-.045,0-.086-.177-.123-.533l-.165-.124c.082,0,.157-.309.226-.925a1.1,1.1,0,0,1,.637-.267" fill="#fff"/>
      <path id="Path_51619" data-name="Path 51619" d="M177.055,71.587h.019q1.059,0,1.471,1.29a2.381,2.381,0,0,1,.113.76v.185a2.88,2.88,0,0,1-1.11,2.359,2.162,2.162,0,0,1-1.09.365h-.071q-1.09,0-1.548-1.4a2.767,2.767,0,0,1-.107-.746v-.108A5.436,5.436,0,0,1,175,72.533a1.751,1.751,0,0,1,.508-.272,2.784,2.784,0,0,0,.382-.458,2.268,2.268,0,0,1,1.161-.216m-.977,1.691.015.164-.036.977c.038.558.16.838.365.838a1.509,1.509,0,0,0,.71-.674,1.775,1.775,0,0,0,.215-.817v-.072a1.345,1.345,0,0,0-.452-1.033.775.775,0,0,0-.621.432.726.726,0,0,1-.2.185" fill="#fff"/>
      <path id="Path_51620" data-name="Path 51620" d="M181.273,70.97h.17c.5,0,.771.122.822.365a2.084,2.084,0,0,1,.144.457,1.045,1.045,0,0,1-.638.35c-.99.155-1.484.287-1.484.4a1.916,1.916,0,0,0,1.114.606,12.625,12.625,0,0,1,2.236.695,1.166,1.166,0,0,1,.642,1.027q0,1.068-1.886,1.428a6.243,6.243,0,0,1-1.028.093q-1.905-.129-1.906-.441a.711.711,0,0,1-.2-.493v-.11a.917.917,0,0,1,.422-.713,4.426,4.426,0,0,0,1.8.514,1.374,1.374,0,0,0,.971-.35v-.021a9.291,9.291,0,0,0-2.128-.679q-1.557-.466-1.557-1.134v-.073q0-1.051,1.3-1.612a2.813,2.813,0,0,1,1.208-.31" fill="#fff"/>
      <path id="Path_51621" data-name="Path 51621" d="M186.509,70.97h.17c.5,0,.771.122.821.365a2.115,2.115,0,0,1,.145.457,1.042,1.042,0,0,1-.638.35c-.99.155-1.484.287-1.484.4a1.916,1.916,0,0,0,1.114.606,12.625,12.625,0,0,1,2.236.695,1.166,1.166,0,0,1,.642,1.027q0,1.068-1.886,1.428a6.243,6.243,0,0,1-1.028.093q-1.905-.129-1.906-.441a.706.706,0,0,1-.2-.493v-.11a.916.916,0,0,1,.423-.713,4.418,4.418,0,0,0,1.8.514,1.373,1.373,0,0,0,.972-.35v-.021a9.309,9.309,0,0,0-2.128-.679Q184,73.633,184,72.965v-.073q0-1.051,1.3-1.612a2.81,2.81,0,0,1,1.208-.31" fill="#fff"/>
      <path id="Path_51622" data-name="Path 51622" d="M193.991,65.826h.124a.6.6,0,0,1,.638.453c0,.123.067.184.2.184a14.1,14.1,0,0,1,3.536,1.316,2.142,2.142,0,0,1,1.418,1.911v.082a3.131,3.131,0,0,1-1.316,2.447,11.746,11.746,0,0,1-2.22,1.295l-1.706.39a13.915,13.915,0,0,0,.154,2.447v.184q0,.817-.452.987-.838,0-1.027-2.158a3.437,3.437,0,0,0-.114-1.2l-.226.01a.963.963,0,0,1-.226-.554l-.062-.062v-.041a2.483,2.483,0,0,1,.576-.493q-.057-1.019-.112-3.926l-.011-1.285q-.987-.232-.987-.4v-.123q.2-.659.288-.658l.74-.226a.808.808,0,0,1,.78-.576m.638,1.953q-.051,4.22.031,4.83a10.258,10.258,0,0,0,2.518-.966,2.807,2.807,0,0,0,1.274-1.6.672.672,0,0,0,.042-.268v-.02q0-1.135-3.865-1.973" fill="#fff"/>
      <path id="Path_51623" data-name="Path 51623" d="M204.208,70.431h.1q.4,0,.534.678a17.472,17.472,0,0,0,.432,2.3,5.229,5.229,0,0,0,.884,1.83,1.638,1.638,0,0,1,.349.8v.123c0,.164-.1.247-.308.247a1.125,1.125,0,0,1-.392.184,2.1,2.1,0,0,1-1.026-.9q-.263-.5-.843-1.932l-.123-.165a15.41,15.41,0,0,1-1.295,1.788,2.107,2.107,0,0,1-1.542.7,1.061,1.061,0,0,1-1.089-.863l-.021-.267V74.87a4.864,4.864,0,0,1,1.5-2.877A9.122,9.122,0,0,1,203.53,70.7a1.122,1.122,0,0,1,.678-.267m-2.878,4.234.021.021h.021q.5,0,1.007-.864a3.372,3.372,0,0,0,.924-1.788l-.02-.02h-.042a4.713,4.713,0,0,0-1.315,1.089,2.455,2.455,0,0,0-.6,1.562" fill="#fff"/>
      <path id="Path_51624" data-name="Path 51624" d="M209.125,70.041c.438.113.658.188.658.225a8.813,8.813,0,0,1,.493,1.563q.432,2.929.658,3.782c.034,0,.069.13.1.391v.041q0,.35-.451.349h-.042c-.438,0-.658-.082-.658-.247a6.691,6.691,0,0,1-.493-1.541l-.451-2.713h-.021a14.133,14.133,0,0,0-1.706,3.411,4.593,4.593,0,0,1-.453.843c0-.041-.068-.068-.205-.082h-.309a.162.162,0,0,1-.184-.184l-.247-.432a15.386,15.386,0,0,0,.289-3.618,1.759,1.759,0,0,0,.451-.309q0-.1.081-.1c.508.076.761.151.761.226l-.061.185.021.021h.02a3.912,3.912,0,0,0,.74-1.008q.565-.8,1.007-.8" fill="#fff"/>
      <path id="Path_51625" data-name="Path 51625" d="M212.789,70.564q1.069,0,1.747,1.4a2.723,2.723,0,0,1,.124.678q0,1.034-1.6,1.666v.02a1.258,1.258,0,0,0,1.11.72q.925,0,1.993-1.5.638-.72.988-.72h.04l.041.042v.205l-.019.082a.109.109,0,0,0,.081.083c.085,0,.147-.076.185-.226h.041v.02a2.456,2.456,0,0,1-.616,1.151,1.623,1.623,0,0,0-.145.411c-.191.038-.287.113-.287.226a3.091,3.091,0,0,1-1.706,1.336,2.568,2.568,0,0,1-.6.082h-.206q-1.506,0-2.98-2.178v-.042l-.1-1.624v-.164q0-1.017.658-1.274a2.7,2.7,0,0,1,1.253-.391m-.637,2.015a.985.985,0,0,0,.35.863,1.428,1.428,0,0,0,.719-.37,1.272,1.272,0,0,0,.083-.411.855.855,0,0,0-.556-.863l-.164-.021c-.205,0-.308.069-.308.205a1.2,1.2,0,0,0-.124.6" fill="#fff"/>
      <path id="Path_51626" data-name="Path 51626" d="M217.214,64.645h.082c.26,0,.39.109.39.329a8.7,8.7,0,0,1,.144,1.644l-.144,3.762v.391a30.094,30.094,0,0,0,.493,4.706v.268q0,.487-.226.554a2.516,2.516,0,0,0-.616.144,2.5,2.5,0,0,0-.411-.308,38.32,38.32,0,0,1-.555-5.755v-.72a19.77,19.77,0,0,1,.267-3.166c-.045,0-.086-.177-.123-.533l-.165-.124c.082,0,.158-.309.226-.925a1.109,1.109,0,0,1,.638-.267" fill="#fff"/>
    </g>
  </g>
</svg>
