<svg id="Group_40261" data-name="Group 40261" xmlns="http://www.w3.org/2000/svg" xmlns:xlink="http://www.w3.org/1999/xlink" width="287.456" height="45" viewBox="0 0 287.456 45">
  <defs>
    <clipPath id="clip-path">
      <rect id="Rectangle_1723" data-name="Rectangle 1723" width="287.456" height="45" fill="none"/>
    </clipPath>
  </defs>
  <path id="Path_48234" data-name="Path 48234" d="M0,.821V44.18H10.993V27.656H24.05V17.93H10.993V10.547H24.536V.821Z" fill="#fff"/>
  <path id="Path_48235" data-name="Path 48235" d="M27.389.821V44.18h24.78V34.454h-13.3V.821Z" fill="#fff"/>
  <g id="Group_40260" data-name="Group 40260">
    <g id="Group_40259" data-name="Group 40259" clip-path="url(#clip-path)">
      <path id="Path_48236" data-name="Path 48236" d="M112.412,0A23.572,23.572,0,0,0,94.149,8.014,24.231,24.231,0,0,0,75.852,0,23.511,23.511,0,0,0,56.844,8.907a20,20,0,0,0-2.915,4.863,24.154,24.154,0,0,0-1.761,9.258C52.168,35.509,63.1,45,75.792,45a24.314,24.314,0,0,0,18.34-7.974A24.457,24.457,0,0,0,112.352,45c13.178,0,23.806-9.668,23.806-22.5C136.158,9.727,125.53,0,112.412,0M76.035,35.274c-7.47,0-12.389-5.977-12.389-12.891,0-6.8,4.919-12.656,12.267-12.656s12.208,6.094,12.208,12.832c0,6.621-4.859,12.715-12.086,12.715m36.559,0c-7.47,0-12.389-5.977-12.389-12.891,0-6.8,4.919-12.656,12.268-12.656s12.207,6.094,12.207,12.832c0,6.621-4.858,12.715-12.086,12.715" fill="#fff"/>
      <path id="Path_48237" data-name="Path 48237" d="M160.271,44.18l-10.386-14h-.121v14H138.771V.821h14.211c4.737,0,9.961.116,13.847,3.105a14.8,14.8,0,0,1,5.528,11.837c0,6.678-4.071,12.538-11.175,13.651L173.389,44.18Zm-6.317-33.633h-4.19V22.618h4.069c4.312,0,7.53-1.759,7.53-6.212,0-4.277-3.461-5.859-7.409-5.859" fill="#fff"/>
      <path id="Path_48238" data-name="Path 48238" d="M205.333,26.871c-3.887,3.281-8.077,3.75-13.118,3.75h-4.98V44.215H176.243V.856h14.7c4.615,0,10.142.175,13.846,3.163A14.521,14.521,0,0,1,210.07,15.5c0,3.984-1.579,8.671-4.737,11.367M191.486,10.582h-4.251V20.894h4.677c3.765,0,7.166-.82,7.166-5.215,0-4.511-3.827-5.1-7.592-5.1" fill="#fff"/>
      <path id="Path_48239" data-name="Path 48239" d="M234.257,44.215l-2.186-6.27H216.462l-2.368,6.27H201.765L219.8.855h9.048l17.855,43.36Zm-9.839-29.883h-.182L219.62,29.156h9.413Z" fill="#fff"/>
      <path id="Path_48240" data-name="Path 48240" d="M276.893.855V28.039l-.064.062L260.123.855H249.561V44.214h10.562V17.7l16.77,26.512h10.563V.855Z" fill="#fff"/>
    </g>
  </g>
</svg>
