<svg id="Group_40248" data-name="Group 40248" xmlns="http://www.w3.org/2000/svg" xmlns:xlink="http://www.w3.org/1999/xlink" width="317.975" height="55" viewBox="0 0 317.975 55">
  <defs>
    <clipPath id="clip-path">
      <rect id="Rectangle_1717" data-name="Rectangle 1717" width="317.975" height="55" fill="none"/>
    </clipPath>
  </defs>
  <path id="Path_48189" data-name="Path 48189" d="M2.008,9.273H7.822V19.916l12.3.015v5.233H2.008Zm7.818,8.642V9.244l10.322.01v8.67ZM22.154,7.251l-12.3-.014V2.008H27.969V17.9H22.154ZM7.849,0V7.265H0v19.9H22.127V19.9h7.848V0Z" fill="#fff"/>
  <g id="Group_40247" data-name="Group 40247">
    <g id="Group_40246" data-name="Group 40246" clip-path="url(#clip-path)">
      <path id="Path_48190" data-name="Path 48190" d="M82.425,49.115V18.339H78.656V49.115a5.667,5.667,0,0,0,5.658,5.659h.549V51h-.549a1.892,1.892,0,0,1-1.89-1.89" fill="#fff"/>
      <path id="Path_48191" data-name="Path 48191" d="M170.035,17.685V54.766h3.77V25.836l21.611,18.4,21.608-18.4v28.93h3.77V17.685l-25.38,21.552Z" fill="#fff"/>
      <path id="Path_48192" data-name="Path 48192" d="M30.229,36.557c0,10.042,9.31,18.214,20.755,18.214H74.738V34.9H51v3.769H70.97V51.005H50.98c-9.369,0-16.987-6.484-16.987-14.448s7.62-14.449,16.987-14.449H74.809V18.339H50.98c-11.445,0-20.755,8.172-20.755,18.214" fill="#fff"/>
      <path id="Path_48193" data-name="Path 48193" d="M133.715,42.946H119.666a1.819,1.819,0,0,1-1.818-1.818v-.653a1.817,1.817,0,0,1,1.817-1.816H135.29v-3.77H119.662a5.584,5.584,0,0,0-5.579,5.579v.663a5.586,5.586,0,0,0,5.579,5.579H133.71a1.817,1.817,0,0,1,1.814,1.815v.656a1.818,1.818,0,0,1-1.814,1.814H115.44v3.77h18.275a5.579,5.579,0,0,0,5.579-5.579v-.663a5.584,5.584,0,0,0-5.579-5.579" fill="#fff"/>
      <path id="Path_48194" data-name="Path 48194" d="M160.367,42.946H146.318a1.819,1.819,0,0,1-1.818-1.818v-.653a1.817,1.817,0,0,1,1.817-1.816h15.625v-3.77H146.31a5.584,5.584,0,0,0-5.579,5.579v.663a5.584,5.584,0,0,0,5.579,5.579h14.052a1.815,1.815,0,0,1,1.814,1.815v.656a1.816,1.816,0,0,1-1.814,1.814h-18.27v3.77h18.274a5.584,5.584,0,0,0,5.579-5.579v-.663a5.584,5.584,0,0,0-5.579-5.579" fill="#fff"/>
      <path id="Path_48195" data-name="Path 48195" d="M99.534,32.451c-7.077,0-12.832,5.056-12.832,11.274S92.457,55,99.534,55s12.832-5.057,12.832-11.275-5.758-11.274-12.832-11.274m0,18.78c-5,0-9.063-3.367-9.063-7.506s4.065-7.509,9.063-7.509,9.063,3.37,9.063,7.509-4.065,7.506-9.063,7.506" fill="#fff"/>
      <path id="Path_48196" data-name="Path 48196" d="M222,54.763h4.561l11.579-16.1h20.684l11.577,16.1h4.566L248.482,17.931Zm26.482-30.487,7.633,10.616H240.849Z" fill="#fff"/>
      <path id="Path_48197" data-name="Path 48197" d="M317.975,18.323h-5.353L297.075,33.866l-15.54-15.543h-5.353L294.4,36.545,276.182,54.767h5.353l15.54-15.544,15.544,15.543h5.352L299.749,36.544Z" fill="#fff"/>
    </g>
  </g>
</svg>
