<svg id="Group_40312" data-name="Group 40312" xmlns="http://www.w3.org/2000/svg" xmlns:xlink="http://www.w3.org/1999/xlink" width="258.887" height="65" viewBox="0 0 258.887 65">
  <defs>
    <clipPath id="clip-path">
      <rect id="Rectangle_1743" data-name="Rectangle 1743" width="258.887" height="65" fill="none"/>
    </clipPath>
  </defs>
  <g id="Group_40311" data-name="Group 40311" clip-path="url(#clip-path)">
    <path id="Path_51744" data-name="Path 51744" d="M.118,64.947l150.095.012V.009L.118,0c-.265,0,0,64.947,0,64.947M88.09,54.681v-44.4H97.4q12.5,0,18.623,5.167a20.627,20.627,0,0,1,5.588,7.752,23.531,23.531,0,0,1,2.043,9.492A22.88,22.88,0,0,1,121.613,42a21.2,21.2,0,0,1-5.646,7.63,19.853,19.853,0,0,1-8.653,4.205,44.91,44.91,0,0,1-9.73.843Zm8.231-7.994h1.021a39.429,39.429,0,0,0,6.669-.418,14.505,14.505,0,0,0,6.068-2.586,13.011,13.011,0,0,0,5.347-10.989q0-7.752-5.889-11.778-3.845-2.639-12.614-2.64Zm30.042,7.994v-44.4h23.85v7.993H134.592V28.488h14.96v7.986h-14.96V46.687h15.621v7.994Zm-65.325,0v-44.4H84.89v7.993H69.27V28.488H84.228v7.986H69.27V46.687H84.89v7.994Zm-49.906,0v-44.4H22.367l11.9,33.941L46.338,10.283H57.511v44.4H49.28V21.4L37.807,54.681H30.838L19.362,21.4v33.28Z" fill="#bc1020" fill-rule="evenodd"/>
    <path id="Path_51745" data-name="Path 51745" d="M258.887,65H150.162V61.085h104.4V4l-104.4-.011V.074L258.887.087Z" fill="#003f8e"/>
    <path id="Path_51746" data-name="Path 51746" d="M150.162,54.734v-44.4h10.419V45.855h12.727v8.879Z" fill="#003f8e"/>
    <path id="Path_51747" data-name="Path 51747" d="M190.6,18.392l-3.137,19.887H193.5ZM174.619,54.734l9.71-44.4h12.548l9.649,44.4H195.991l-1.483-8.643h-8.167L185.1,54.734Z" fill="#003f8e" fill-rule="evenodd"/>
    <path id="Path_51748" data-name="Path 51748" d="M208.052,54.734v-44.4h14.681l5.385,26.227L233.8,10.336h14.56v44.4H238.42l1.065-34.8-7.458,34.8h-7.754l-7.163-34.8.827,34.8Z" fill="#003f8e"/>
  </g>
</svg>
