<svg id="Group_40306" data-name="Group 40306" xmlns="http://www.w3.org/2000/svg" xmlns:xlink="http://www.w3.org/1999/xlink" width="298.883" height="43" viewBox="0 0 298.883 43">
  <defs>
    <clipPath id="clip-path">
      <rect id="Rectangle_1741" data-name="Rectangle 1741" width="298.883" height="43" fill="none"/>
    </clipPath>
  </defs>
  <g id="Group_40305" data-name="Group 40305" clip-path="url(#clip-path)">
    <path id="Path_51733" data-name="Path 51733" d="M34.342,32.192l2.774-16.241a4.7,4.7,0,0,0-.87-3.821,4.117,4.117,0,0,0-3.438-1.585h-11a6.141,6.141,0,0,0-4.034,1.538,6.093,6.093,0,0,0-2.2,3.776l-2.9,16.418A12.794,12.794,0,0,1,8.217,39.9,12.32,12.32,0,0,1,0,43L5.867,10.819a12.846,12.846,0,0,1,4.493-7.7A12.4,12.4,0,0,1,18.611,0H40.157a8.994,8.994,0,0,1,6.508,2.477,8.517,8.517,0,0,1,2.568,6.417,10.675,10.675,0,0,1-.184,1.925L43.182,43a8.952,8.952,0,0,1-6.509-2.492,8.615,8.615,0,0,1-2.567-6.467,8.263,8.263,0,0,1,.236-1.849" fill="#d9000d"/>
    <path id="Path_51734" data-name="Path 51734" d="M70.961,10.545a3.105,3.105,0,0,0-3.3,2.889q-.552,2.888,2.292,2.887h8.434a8.728,8.728,0,0,1,6.236,2.338,8.009,8.009,0,0,1,2.475,6.1,9.248,9.248,0,0,1-.185,1.831H65.368l-.091.368a3.942,3.942,0,0,0,.78,3.712,4.352,4.352,0,0,0,3.529,1.607h16.32a8.814,8.814,0,0,1,6.372,2.429,8.333,8.333,0,0,1,2.52,6.277A11.43,11.43,0,0,1,94.616,43H62.435a9.315,9.315,0,0,1-6.6-2.475,8.36,8.36,0,0,1-2.659-6.419,11.187,11.187,0,0,1,.184-1.83l3.757-21.638a12.391,12.391,0,0,1,4.539-7.611A12.932,12.932,0,0,1,70.043,0h32.182A12.73,12.73,0,0,1,97.87,7.5a12.067,12.067,0,0,1-8.115,3.044Z" fill="#d9000d"/>
    <path id="Path_51735" data-name="Path 51735" d="M102.591,32.182l3.758-21.27a13.041,13.041,0,0,1,4.493-7.546A12.154,12.154,0,0,1,119,.185h21.637A8.887,8.887,0,0,1,147.1,2.64,8.486,8.486,0,0,1,149.624,9a13.538,13.538,0,0,1-.092,1.91l-3.849,21.454a12.753,12.753,0,0,1-4.4,7.561A12.164,12.164,0,0,1,133.122,43H111.576a9.152,9.152,0,0,1-6.555-2.475,8.44,8.44,0,0,1-2.614-6.42,10.721,10.721,0,0,1,.184-1.923m13.49-15.752-1.906,10.256a5.245,5.245,0,0,0,.87,4,3.964,3.964,0,0,0,3.438,1.769h11a5.7,5.7,0,0,0,4.032-1.769,7.1,7.1,0,0,0,2.2-4l1.842-10.267a5.127,5.127,0,0,0-.867-3.946,3.967,3.967,0,0,0-3.427-1.744H122.294a5.715,5.715,0,0,0-4.022,1.747,7.008,7.008,0,0,0-2.191,3.955" fill="#d9000d"/>
    <path id="Path_51736" data-name="Path 51736" d="M163.559,10.729a8.852,8.852,0,0,1-6.372-2.409,8.223,8.223,0,0,1-2.52-6.227,10.439,10.439,0,0,1,.182-1.908h43.183A12.523,12.523,0,0,1,193.4,7.7a12.827,12.827,0,0,1-8.3,3.117,5.765,5.765,0,0,0-4.083,1.7,6.856,6.856,0,0,0-2.156,3.985L174.085,43H163.192l4.676-26.5a5.251,5.251,0,0,0-.87-4,3.962,3.962,0,0,0-3.439-1.771" fill="#757474"/>
    <path id="Path_51737" data-name="Path 51737" d="M197.848,32.182l3.759-21.27A13.043,13.043,0,0,1,206.1,3.366,12.165,12.165,0,0,1,214.261.185H235.9a8.884,8.884,0,0,1,6.463,2.455A8.487,8.487,0,0,1,244.882,9a13.3,13.3,0,0,1-.094,1.91l-3.847,21.454a12.761,12.761,0,0,1-4.4,7.561A12.168,12.168,0,0,1,228.38,43H206.834a9.166,9.166,0,0,1-6.558-2.475,8.444,8.444,0,0,1-2.61-6.42,10.712,10.712,0,0,1,.182-1.923m13.49-15.752-1.906,10.256a5.236,5.236,0,0,0,.87,4,3.965,3.965,0,0,0,3.439,1.769h11a5.7,5.7,0,0,0,4.03-1.769,7.1,7.1,0,0,0,2.2-4l1.841-10.267a5.13,5.13,0,0,0-.866-3.946,3.968,3.968,0,0,0-3.429-1.744H217.553a5.719,5.719,0,0,0-4.024,1.747,7.019,7.019,0,0,0-2.191,3.955" fill="#757474"/>
    <path id="Path_51738" data-name="Path 51738" d="M266.426,10.545a9.141,9.141,0,0,1-6.509-2.406,8.261,8.261,0,0,1-2.568-6.321A9.126,9.126,0,0,1,257.533,0H289.9a8.849,8.849,0,0,1,6.464,2.477,8.607,8.607,0,0,1,2.522,6.417,14.06,14.06,0,0,1-.091,1.925l-.92,5.319a11.605,11.605,0,0,1-4.539,7.472,13.285,13.285,0,0,1-8.388,2.979H268.716a5.9,5.9,0,0,0-4.125,1.708,6.838,6.838,0,0,0-2.2,4.011q-2.2,5.715-4.4,7.559A12.145,12.145,0,0,1,249.923,43l2.84-16.283a12.7,12.7,0,0,1,12.47-10.4h18.706a3.084,3.084,0,0,0,3.39-2.887q.456-2.891-2.384-2.889Z" fill="#757474"/>
  </g>
</svg>
