<svg id="Group_40359" data-name="Group 40359" xmlns="http://www.w3.org/2000/svg" xmlns:xlink="http://www.w3.org/1999/xlink" width="287.835" height="76.182" viewBox="0 0 287.835 76.182">
  <defs>
    <clipPath id="clip-path">
      <rect id="Rectangle_1751" data-name="Rectangle 1751" width="287.835" height="76.182" fill="#fff"/>
    </clipPath>
  </defs>
  <g id="Group_40358" data-name="Group 40358" clip-path="url(#clip-path)">
    <path id="Path_51806" data-name="Path 51806" d="M469.35,53.978h1.8a15.31,15.31,0,0,0,2.774-.208,6.137,6.137,0,0,0,2.291-1.107A4.69,4.69,0,0,0,477.4,50.44a12.083,12.083,0,0,0,.348-3.054,13.063,13.063,0,0,0-.483-3.747,2.7,2.7,0,0,0-1.528-2.078A5.728,5.728,0,0,0,473.721,41q-.9-.066-2.431-.071h-1.943ZM456.9,83.612V31.564h14.5a39.129,39.129,0,0,1,8.676.9,10.554,10.554,0,0,1,6.105,3.268,12.143,12.143,0,0,1,2.774,5.067,23.545,23.545,0,0,1,.763,6.383,24.157,24.157,0,0,1-1.522,8.88,9.08,9.08,0,0,1-4.515,5.275,19.825,19.825,0,0,1-5.273,1.735,35.446,35.446,0,0,1-5.414.348h-1.943c-.642,0-1.291-.023-1.944-.069l.005,20.262Z" transform="translate(-281.764 -19.465)" fill="#fff" fill-rule="evenodd"/>
    <path id="Path_51807" data-name="Path 51807" d="M548.566,41l-3.678,23.319h7.076ZM529.83,83.612l11.378-52.048,14.714,0,11.316,52.043H554.882l-1.739-10.13h-9.576l-1.455,10.13Z" transform="translate(-326.738 -19.465)" fill="#fff" fill-rule="evenodd"/>
    <path id="Path_51808" data-name="Path 51808" d="M643.15,54.473l-.14.146,1.111,29H632.535V31.575h12.559l9.44,29.079-.976-29.079h11.591v52.05l-12.486-.007Z" transform="translate(-390.075 -19.472)" fill="#fff"/>
    <path id="Path_51809" data-name="Path 51809" d="M0,76.1l175.223.009V71.514l0-66.926V0H0ZM49.031,64.08V12.005l15.08,0q9.158,0,13.53,3.66A16.026,16.026,0,0,1,83.7,28.5a17.107,17.107,0,0,1-1.2,6.058,16.538,16.538,0,0,1-3.1,5.289,16.889,16.889,0,0,1-9.228,5L84.266,64.085H72.358L58.683,44.137l.006,19.948Zm9.652-27.272h5.288q5.423,0,7.754-2.252a7.463,7.463,0,0,0,2.323-5.566,6.916,6.916,0,0,0-2.82-5.853q-2.4-1.762-7.186-1.758h-5.36ZM22.076,64.08l-9.652,0,0-52.077,12.264.007a62.075,62.075,0,0,1,7.258.278,15.326,15.326,0,0,1,6.833,2.467,14.913,14.913,0,0,1,6.906,13.111,16.111,16.111,0,0,1-6.2,13.317,14.946,14.946,0,0,1-7.465,2.893,76.476,76.476,0,0,1-8.035.274h-1.9Zm0-29.107h1.762a30.758,30.758,0,0,0,7.469-.56A6.153,6.153,0,0,0,36.026,28q0-4.867-5-6.2a35.837,35.837,0,0,0-7.19-.425H22.071ZM155.941,64.09l0-42.7h-9.58l0-9.373h28.966v9.373h-9.724l0,42.7Zm-55.113-.005,0-52.076h10.85l21.709,38.059,0-38.054h9.658V64.09h-10.71L110.48,26.17V64.085Zm-13.787,0,0-52.076h9.652L96.7,64.085Z" fill="#fff" fill-rule="evenodd"/>
    <path id="Path_51810" data-name="Path 51810" d="M569.6,76.295l-112.7-.008V71.7l107.637,0V4.791L456.9,4.774V.182L569.6.2Z" transform="translate(-281.764 -0.112)" fill="#fff"/>
  </g>
</svg>
