<svg id="Group_40264" data-name="Group 40264" xmlns="http://www.w3.org/2000/svg" xmlns:xlink="http://www.w3.org/1999/xlink" width="312.278" height="45.001" viewBox="0 0 312.278 45.001">
  <defs>
    <clipPath id="clip-path">
      <rect id="Rectangle_1725" data-name="Rectangle 1725" width="312.278" height="45.001" transform="translate(0 0)" fill="none"/>
    </clipPath>
  </defs>
  <g id="Group_40263" data-name="Group 40263" clip-path="url(#clip-path)">
    <path id="Path_48241" data-name="Path 48241" d="M15.424,45C6.818,45,0,40.489,0,31.23v-1.4H10.86c0,2.812,1.271,5.917,4.448,5.917a4.158,4.158,0,0,0,4.16-4.156v0c0-2.812-2.312-3.75-4.564-4.746-1.271-.586-2.542-1.113-3.814-1.641C5.545,22.854.636,19.569.636,12.774.636,4.686,8.318,0,15.6,0c4.161,0,8.839,1.581,11.559,4.922,2.2,2.754,2.714,5.156,2.829,8.555H19.18c-.348-2.4-1.158-4.219-3.929-4.219A3.578,3.578,0,0,0,11.5,12.651v.006a3.23,3.23,0,0,0,.4,1.816c1.04,1.759,6.642,3.985,8.435,4.805C26,21.915,30.326,24.9,30.326,31.7c0,9.084-6.468,13.3-14.9,13.3" fill="#161716"/>
    <path id="Path_48242" data-name="Path 48242" d="M32.232.819v9.727h8.433V44.177H51.584V10.546h8.378V.819Z" fill="#161716"/>
    <path id="Path_48243" data-name="Path 48243" d="M64.353.819V44.177H88.1V34.451H74.805V27.012h12.88V17.283H74.806V10.546H88.1V.819Z" fill="#161716"/>
    <path id="Path_48244" data-name="Path 48244" d="M122.521,26.836c-3.7,3.281-7.683,3.75-12.477,3.75h-4.738V44.177H94.851V.82h13.98C113.22.82,118.478,1,122,3.983a14.845,14.845,0,0,1,5.025,11.486c0,3.983-1.5,8.672-4.506,11.367m-13.17-16.289h-4.045V20.86h4.449c3.582,0,6.816-.821,6.816-5.214,0-4.513-3.639-5.1-7.22-5.1" fill="#161716"/>
    <path id="Path_48245" data-name="Path 48245" d="M153.541,45A22.4,22.4,0,0,1,131.01,22.736v-.3a22.443,22.443,0,0,1,41.248-12.247,18.589,18.589,0,0,1,2.888,7.091H163.705a11.078,11.078,0,0,0-10.34-7.554c-6.933,0-11.438,5.976-11.438,12.655s4.505,12.892,11.495,12.892c4.8,0,8.377-3.047,10.283-7.325h11.438A21.971,21.971,0,0,1,153.541,45" fill="#161716"/>
    <path id="Path_48246" data-name="Path 48246" d="M181.095.82V44.177h23.569V34.452H192.009V.82Z" fill="#161716"/>
    <rect id="Rectangle_1724" data-name="Rectangle 1724" width="10.918" height="43.359" transform="translate(208.939 0.82)" fill="#161716"/>
    <path id="Path_48247" data-name="Path 48247" d="M299.919.82,287.848,20.327h-.121V.82H276.813V44.177h10.914V25.428h.117L299.51,44.18h12.767L297.206,22.441,311.359.82Z" fill="#161716"/>
    <path id="Path_48248" data-name="Path 48248" d="M248.393,45a22.4,22.4,0,0,1-22.534-22.261c0-.1,0-.2,0-.3a22.442,22.442,0,0,1,41.247-12.247,18.573,18.573,0,0,1,2.888,7.091H258.562a11.074,11.074,0,0,0-10.338-7.554c-6.934,0-11.44,5.976-11.44,12.655s4.506,12.892,11.5,12.892c4.8,0,8.377-3.047,10.282-7.325H270A21.971,21.971,0,0,1,248.393,45" fill="#161716"/>
  </g>
</svg>
