<svg id="Group_40232" data-name="Group 40232" xmlns="http://www.w3.org/2000/svg" xmlns:xlink="http://www.w3.org/1999/xlink" width="371.377" height="86.167" viewBox="0 0 371.377 86.167">
  <defs>
    <clipPath id="clip-path">
      <rect id="Rectangle_1710" data-name="Rectangle 1710" width="371.377" height="86.167" fill="none"/>
    </clipPath>
  </defs>
  <g id="Group_40231" data-name="Group 40231" clip-path="url(#clip-path)">
    <path id="Path_48123" data-name="Path 48123" d="M31.952,40.041,25.6,43.809a10.878,10.878,0,0,0-3.4-4.035,7.932,7.932,0,0,0-4.338-1.079,8.025,8.025,0,0,0-5.414,1.851,5.745,5.745,0,0,0-2.151,4.579q0,3.806,5.648,6.128l5.18,2.119q6.326,2.557,9.251,6.244A14.093,14.093,0,0,1,33.3,68.655a15.9,15.9,0,0,1-4.776,11.853A16.387,16.387,0,0,1,16.58,85.218,15.956,15.956,0,0,1,5.411,81.2Q1.078,77.181,0,69.91l7.936-1.744q.541,4.569,1.884,6.321a8.157,8.157,0,0,0,7.066,3.363A8.208,8.208,0,0,0,22.974,75.4a8.481,8.481,0,0,0,2.42-6.219,8.742,8.742,0,0,0-.421-2.774,7.1,7.1,0,0,0-1.311-2.321,10.579,10.579,0,0,0-2.3-1.982A22.231,22.231,0,0,0,18,60.337l-5.014-2.083Q2.32,53.753,2.319,45.08a12.5,12.5,0,0,1,4.474-9.785,16.169,16.169,0,0,1,11.132-3.964q8.984,0,14.026,8.71" transform="translate(0 -11.971)" fill="#fff"/>
    <path id="Path_48124" data-name="Path 48124" d="M68.664,32.964V64.225q0,6.688,2.184,9.78a10.711,10.711,0,0,0,9.185,4.468A10.736,10.736,0,0,0,89.249,74q2.186-2.989,2.188-9.78V32.964h7.838V66.4A18.7,18.7,0,0,1,94.16,79.921a19.773,19.773,0,0,1-28.22,0A18.707,18.707,0,0,1,60.826,66.4V32.964Z" transform="translate(-23.241 -12.595)" fill="#fff"/>
    <path id="Path_48125" data-name="Path 48125" d="M134.122,82.715V27.249L172,66.872V30.78h7.836v55.1L141.96,46.355v36.36Z" transform="translate(-51.247 -10.412)" fill="#fff"/>
    <path id="Path_48126" data-name="Path 48126" d="M245.819,40.332h-18.1V52.811h17.462v7.364H227.717V84.9h-7.836V32.964h25.937Z" transform="translate(-84.014 -12.595)" fill="#fff"/>
    <path id="Path_48127" data-name="Path 48127" d="M276.031,32.964V77.535H291.3V84.9H268.192V32.964Z" transform="translate(-102.474 -12.595)" fill="#fff"/>
    <path id="Path_48128" data-name="Path 48128" d="M304.618,42.735q0-17.545,12.861-30.141A42.351,42.351,0,0,1,348.263,0a41.549,41.549,0,0,1,30.462,12.705A41.513,41.513,0,0,1,391.48,43.22a40.86,40.86,0,0,1-12.808,30.409,42.858,42.858,0,0,1-31.054,12.539q-16.095,0-28.9-11.142-14.1-12.325-14.1-32.29m12.643.137q0,13.761,9.258,22.636,9.2,8.876,21.26,8.872a29.93,29.93,0,0,0,22.067-9.033,30.563,30.563,0,0,0,8.99-22.263,30.4,30.4,0,0,0-8.882-22.258,31,31,0,0,0-43.754,0,29.923,29.923,0,0,0-8.939,22.046" transform="translate(-116.391)" fill="#ffc428"/>
    <path id="Path_48129" data-name="Path 48129" d="M451.081,58.095a25.426,25.426,0,0,1,8.041-18.838,26.466,26.466,0,0,1,19.242-7.868A25.96,25.96,0,0,1,497.4,39.321,25.96,25.96,0,0,1,505.373,58.4a25.526,25.526,0,0,1-8.006,19,27.442,27.442,0,0,1-37.474.874q-8.814-7.7-8.812-20.18m7.9.086a19.251,19.251,0,0,0,32.866,14.046,19.1,19.1,0,0,0,5.619-13.915,18.984,18.984,0,0,0-5.553-13.91,18.313,18.313,0,0,0-13.654-5.649A18.5,18.5,0,0,0,464.569,44.4a18.709,18.709,0,0,0-5.584,13.779" transform="translate(-172.353 -11.993)" fill="#fff"/>
    <path id="Path_48130" data-name="Path 48130" d="M564.127,62.767,580.2,84.9h-9.584L555.785,63.639h-1.413V84.9h-7.84V32.963h9.182q10.3,0,14.868,3.869A14.2,14.2,0,0,1,575.627,48.2a14.762,14.762,0,0,1-3.161,9.487,14.086,14.086,0,0,1-8.339,5.079m-9.755-5.957h2.487q11.136,0,11.137-8.509,0-7.975-10.833-7.969h-2.79Z" transform="translate(-208.824 -12.595)" fill="#fff"/>
  </g>
</svg>
