<svg id="Group_40245" data-name="Group 40245" xmlns="http://www.w3.org/2000/svg" xmlns:xlink="http://www.w3.org/1999/xlink" width="274.574" height="60" viewBox="0 0 274.574 60">
  <defs>
    <clipPath id="clip-path">
      <rect id="Rectangle_1716" data-name="Rectangle 1716" width="274.574" height="60" fill="none"/>
    </clipPath>
  </defs>
  <g id="Group_40244" data-name="Group 40244" clip-path="url(#clip-path)">
    <path id="Path_48178" data-name="Path 48178" d="M17.369,18.67Q17.369,1.9,33.463.21A3.241,3.241,0,0,0,32.257,0H2.491A2.235,2.235,0,0,0,0,2.5V17.424a2.2,2.2,0,0,0,2.491,2.493H17.369Z" fill="#fff" fill-rule="evenodd"/>
    <path id="Path_48179" data-name="Path 48179" d="M38.62.831h24.9a2.2,2.2,0,0,1,2.49,2.488V18.261a2.2,2.2,0,0,1-2.49,2.486H43.6q-4.986,0-4.982,4.979V56.65a2.194,2.194,0,0,1-2.485,2.483H21.189a2.2,2.2,0,0,1-2.494-2.483V19.5Q18.695.832,38.62.831" fill="#fff" fill-rule="evenodd"/>
    <path id="Path_48180" data-name="Path 48180" d="M58.783,59.056H51.377V36.838H45.256V30.566H64.9v6.272H58.783Z" fill="#fff"/>
    <path id="Path_48181" data-name="Path 48181" d="M74.989,36.838v4.724h8.35v6.271h-8.35v4.95h8.8v6.273H67.583V30.566H83.792v6.271Z" fill="#fff"/>
    <path id="Path_48182" data-name="Path 48182" d="M108.727,40.125a7.883,7.883,0,0,0-6.5-3.136c-4.535,0-7.6,3.476-7.6,7.9a7.368,7.368,0,0,0,7.709,7.744,8.514,8.514,0,0,0,6.385-3.022v8.88a20.99,20.99,0,0,1-6.536,1.322A15.757,15.757,0,0,1,91.5,55.617a13.807,13.807,0,0,1-4.571-10.769A14.9,14.9,0,0,1,91.12,34.421a15.429,15.429,0,0,1,10.843-4.611,17.394,17.394,0,0,1,6.764,1.436Z" fill="#fff"/>
    <path id="Path_48183" data-name="Path 48183" d="M131.394,41.561V30.566H138.8v28.49h-7.406V47.38H120.7V59.056h-7.407V30.566H120.7V41.561Z" fill="#fff"/>
    <path id="Path_48184" data-name="Path 48184" d="M143.631,30.566h7.406L164.6,47.984h.076V30.566h7.4v28.49h-7.4L151.112,41.6h-.075V59.056h-7.406Z" fill="#fff"/>
    <path id="Path_48185" data-name="Path 48185" d="M206.992,44.282C206.992,53.5,200.416,60,191.235,60s-15.757-6.5-15.757-15.718c0-8.616,7.558-14.661,15.757-14.661s15.757,6.045,15.757,14.661m-23.805.037a8.06,8.06,0,1,0,16.1,0c0-3.929-3.665-7.519-8.048-7.519s-8.048,3.59-8.048,7.519" fill="#fff"/>
    <path id="Path_48186" data-name="Path 48186" d="M215.26,59.056V33.513h-6.876V30.566h17v2.947h-6.953V59.056Z" fill="#fff"/>
    <path id="Path_48187" data-name="Path 48187" d="M250.927,55.277a15.009,15.009,0,0,1-20.971,0,14.409,14.409,0,0,1-4.344-10.429,14.243,14.243,0,0,1,4.382-10.427,14.693,14.693,0,0,1,10.467-4.346,14.9,14.9,0,0,1,14.848,14.773,14.006,14.006,0,0,1-4.382,10.429m-18.741-2.153a11.361,11.361,0,0,0,8.275,3.477,11.189,11.189,0,0,0,8.236-3.44,11.619,11.619,0,0,0,3.438-8.35,11.742,11.742,0,0,0-11.674-11.789,11.066,11.066,0,0,0-8.275,3.477,11.406,11.406,0,0,0-3.4,8.312,11.531,11.531,0,0,0,3.4,8.313" fill="#fff"/>
    <path id="Path_48188" data-name="Path 48188" d="M259.613,59.056V30.566H264.3a23.79,23.79,0,0,1,4.044.264,6.953,6.953,0,0,1,3.02,1.286,7.166,7.166,0,0,1,2.343,2.795,8.857,8.857,0,0,1,.869,3.664,8,8,0,0,1-.718,3.439,7.05,7.05,0,0,1-2,2.683,7.7,7.7,0,0,1-2.985,1.511,17.916,17.916,0,0,1-3.778.379h-2.306V59.056ZM264.9,43.64a8.694,8.694,0,0,0,4.76-1.134c1.134-.757,1.7-2.079,1.738-4.005a4.644,4.644,0,0,0-1.473-3.7c-.945-.831-2.909-1.247-5.97-1.285h-1.172V43.64Z" fill="#fff"/>
  </g>
</svg>
