<svg xmlns="http://www.w3.org/2000/svg" width="458.489" height="43.902" viewBox="0 0 458.489 43.902">
  <g id="surface1" transform="translate(-173.757 -446.796)">
    <g id="Group_2" data-name="Group 2" transform="translate(173.757 447.743)">
      <g id="Group_1" data-name="Group 1" transform="translate(0 0)">
        <path id="Path_1" data-name="Path 1" d="M47.427-72.094H34L23.9-47.005,13.742-72.094H.328L17.949-30.076H29.806Zm0,0" transform="translate(-0.328 72.094)" fill="#fff"/>
      </g>
    </g>
    <g id="Group_4" data-name="Group 4" transform="translate(271.652 447.743)">
      <g id="Group_3" data-name="Group 3" transform="translate(0 0)">
        <path id="Path_2" data-name="Path 2" d="M17.1-30.076V-72.094H5.063v42.018Zm0,0" transform="translate(-5.063 72.094)" fill="#fff"/>
      </g>
    </g>
    <g id="Group_6" data-name="Group 6" transform="translate(336.183 446.796)">
      <g id="Group_5" data-name="Group 5" transform="translate(0 0)">
        <path id="Path_3" data-name="Path 3" d="M21.793-73.719c-9.844,0-17.312,4.9-17.312,13.742C4.482-53.02,9-49.441,16.029-47.811l8.715,2.067c2.322.565,2.887,1.566,2.887,2.823,0,2.195-2.076,3.388-4.954,3.388-3.579,0-6.147-1.63-7.158-5.582L3.234-42.793C4.418-34.77,12.2-29.816,22.422-29.816c8.715,0,17.876-4.134,17.876-13.979,0-6.775-4.262-10.545-11.984-12.485l-8.524-2c-2.013-.446-2.45-1.512-2.45-2.7,0-2.067,1.821-3.379,4.453-3.379A6.193,6.193,0,0,1,28.132-59.1l11.793-2.386C38.413-69.329,31.638-73.719,21.793-73.719Zm0,0" transform="translate(-3.234 73.719)" fill="#fff"/>
      </g>
    </g>
    <g id="Group_8" data-name="Group 8" transform="translate(425.736 447.743)">
      <g id="Group_7" data-name="Group 7" transform="translate(0 0)">
        <path id="Path_4" data-name="Path 4" d="M17.1-30.076V-72.094H5.063v42.018Zm0,0" transform="translate(-5.063 72.094)" fill="#fff"/>
      </g>
    </g>
    <g id="Group_10" data-name="Group 10" transform="translate(490.268 446.796)">
      <g id="Group_9" data-name="Group 9" transform="translate(0 0)">
        <path id="Path_5" data-name="Path 5" d="M25.873-73.719c-12.731,0-22.639,9.726-22.639,21.956,0,12.294,9.908,21.947,22.639,21.947s22.639-9.653,22.639-21.947C48.512-63.993,38.6-73.719,25.873-73.719Zm0,33.057c-6.083,0-10.472-4.772-10.472-11.1,0-6.274,4.389-11.1,10.472-11.1s10.473,4.826,10.473,11.1C36.346-45.434,31.956-40.662,25.873-40.662Zm0,0" transform="translate(-3.234 73.719)" fill="#fff"/>
      </g>
    </g>
    <g id="Group_13" data-name="Group 13" transform="translate(588.037 447.743)">
      <g id="Group_11" data-name="Group 11" transform="translate(0 0)">
        <path id="Path_6" data-name="Path 6" d="M46.388-72.094h-12.1V-49.71L14.97-72.094H5.063v42.018H17.1V-51.713L36.416-30.076h9.972Zm0,0" transform="translate(-5.063 72.094)" fill="#fff"/>
      </g>
      <g id="Group_12" data-name="Group 12" transform="translate(44.209 42.018)">
        <path id="Path_7" data-name="Path 7" fill="#fff"/>
      </g>
    </g>
  </g>
</svg>
